{
.appVersion = "3343";
.formatVersion = 3;
DisplayStrings = (
"⏵",
"⏩",
"🔁",
"⏸",
"⏹",
"⏭",
"⏮",
"⏯"
);
axes = (
{
name = Weight;
tag = wght;
}
);
customParameters = (
{
name = vendorID;
value = dmol;
},
{
name = fsType;
value = (
);
},
{
name = unicodeRanges;
value = (
0,
1,
2,
3,
6,
7,
29,
31,
32,
33,
35,
36,
37
);
},
{
name = "Keep Kerning in one Lookup";
value = 1;
}
);
date = "2025-05-11 21:11:47 +0000";
familyName = "Gyrotrope Text";
fontMaster = (
{
axesValues = (
400
);
id = m01;
metricValues = (
{
over = 30;
pos = 1536;
},
{
over = -30;
},
{
over = -30;
pos = -480;
},
{
over = 30;
pos = 1408;
},
{
over = 20;
pos = 1072;
},
{
},
{
over = 20;
pos = 536;
},
{
pos = 704;
},
{
}
);
name = Regular;
stemValues = (
176,
144,
160,
128,
128,
112,
112,
96
);
userData = {
GSCornerRadius = 60;
};
visible = 1;
},
{
axesValues = (
900
);
iconName = Bold;
id = m002;
metricValues = (
{
over = 30;
pos = 1536;
},
{
over = -30;
},
{
over = -30;
pos = -480;
},
{
over = 30;
pos = 1408;
},
{
over = 20;
pos = 1072;
},
{
},
{
over = 20;
pos = 536;
},
{
pos = 704;
},
{
}
);
name = Black;
stemValues = (
396,
324,
360,
288,
288,
252,
252,
216
);
userData = {
GSCornerRadius = 60;
};
visible = 1;
}
);
glyphs = (
{
glyphname = A;
kernLeft = A;
kernRight = A;
lastChange = "2025-03-15 21:26:56 +0000";
layers = (
{
anchors = (
{
name = bottom;
pos = (976,0);
},
{
name = ogonek;
pos = (1819,10);
},
{
name = top;
pos = (976,1408);
}
);
layerId = m01;
shapes = (
{
closed = 1;
nodes = (
(153,0,ls),
(194,0,o),
(222,15,o),
(243,51,cs),
(443,392,l),
(1524,392,l),
(1725,51,ls),
(1746,15,o),
(1773,0,o),
(1814,0,cs),
(1856,0,ls),
(1914,0,o),
(1937,37,o),
(1907,89,cs),
(1163,1357,ls),
(1142,1393,o),
(1115,1408,o),
(1074,1408,cs),
(894,1408,ls),
(853,1408,o),
(826,1393,o),
(805,1357,cs),
(61,89,ls),
(31,37,o),
(54,0,o),
(113,0,cs)
);
},
{
closed = 1;
nodes = (
(954,1264,l),
(1014,1264,l),
(1439,536,l),
(528,536,l)
);
}
);
width = 1968;
},
{
anchors = (
{
name = bottom;
pos = (985,0);
},
{
name = ogonek;
pos = (1782,10);
},
{
name = top;
pos = (985,1408);
}
);
layerId = m002;
shapes = (
{
closed = 1;
nodes = (
(353,0,ls),
(394,0,o),
(423,14,o),
(442,51,cs),
(522,212,l),
(1447,212,l),
(1527,51,ls),
(1546,14,o),
(1576,0,o),
(1617,0,cs),
(1858,0,ls),
(1917,0,o),
(1937,37,o),
(1911,89,cs),
(1282,1357,ls),
(1264,1393,o),
(1234,1408,o),
(1193,1408,cs),
(777,1408,ls),
(736,1408,o),
(705,1393,o),
(687,1357,cs),
(59,89,ls),
(33,37,o),
(52,0,o),
(111,0,cs)
);
},
{
closed = 1;
nodes = (
(955,1084,l),
(1015,1084,l),
(1287,536,l),
(683,536,l)
);
}
);
width = 1970;
}
);
unicode = 65;
},
{
glyphname = AE;
kernLeft = A;
kernRight = E;
lastChange = "2025-03-15 22:05:42 +0000";
layers = (
{
anchors = (
{
name = bottom;
pos = (1082,0);
},
{
name = top;
pos = (1082,1408);
}
);
layerId = m01;
shapes = (
{
closed = 1;
nodes = (
(128,0,ls),
(169,0,o),
(197,15,o),
(218,50,cs),
(420,392,l),
(994,392,l),
(994,73,ls),
(994,26,o),
(1021,0,o),
(1069,0,cs),
(2059,0,ls),
(2108,0,o),
(2134,16,o),
(2134,64,cs),
(2134,80,ls),
(2134,128,o),
(2108,144,o),
(2059,144,cs),
(1170,144,l),
(1170,632,l),
(1883,632,ls),
(1932,632,o),
(1958,649,o),
(1958,697,cs),
(1958,711,ls),
(1958,759,o),
(1932,776,o),
(1883,776,cs),
(1170,776,l),
(1170,1264,l),
(2059,1264,ls),
(2108,1264,o),
(2134,1280,o),
(2134,1328,cs),
(2134,1344,ls),
(2134,1392,o),
(2108,1408,o),
(2059,1408,cs),
(881,1408,ls),
(840,1408,o),
(811,1393,o),
(791,1358,cs),
(41,88,ls),
(11,37,o),
(34,0,o),
(93,0,cs)
);
},
{
closed = 1;
nodes = (
(935,1264,l),
(994,1264,l),
(994,536,l),
(505,536,l)
);
}
);
width = 2190;
},
{
anchors = (
{
name = bottom;
pos = (1192,0);
},
{
name = top;
pos = (1192,1429);
}
);
layerId = m002;
shapes = (
{
closed = 1;
nodes = (
(330,0,ls),
(371,0,o),
(401,13,o),
(419,51,cs),
(495,212,l),
(994,212,l),
(994,72,ls),
(994,25,o),
(1020,0,o),
(1069,0,cs),
(2058,0,ls),
(2106,0,o),
(2132,25,o),
(2132,72,cs),
(2132,251,ls),
(2132,298,o),
(2106,324,o),
(2058,324,cs),
(1390,324,l),
(1390,536,l),
(1883,536,ls),
(1931,536,o),
(1957,561,o),
(1957,610,cs),
(1957,786,ls),
(1957,835,o),
(1931,860,o),
(1883,860,cs),
(1390,860,l),
(1390,1084,l),
(2058,1084,ls),
(2106,1084,o),
(2132,1110,o),
(2132,1157,cs),
(2132,1335,ls),
(2132,1382,o),
(2106,1408,o),
(2058,1408,cs),
(722,1408,ls),
(681,1408,o),
(650,1394,o),
(633,1357,cs),
(39,87,ls),
(14,33,o),
(32,0,o),
(91,0,cs)
);
},
{
closed = 1;
nodes = (
(903,1084,l),
(994,1084,l),
(994,536,l),
(646,536,l)
);
}
);
width = 2188;
}
);
unicode = 198;
},
{
glyphname = B;
kernLeft = H;
kernRight = H;
lastChange = "2025-03-15 21:27:17 +0000";
layers = (
{
anchors = (
{
name = bottom;
pos = (992,0);
},
{
name = center;
pos = (478,352);
},
{
name = top;
pos = (992,1408);
}
);
layerId = m01;
shapes = (
{
closed = 1;
nodes = (
(1417,0,ls),
(1753,0,o),
(1900,113,o),
(1900,373,cs),
(1900,403,ls),
(1900,574,o),
(1825,666,o),
(1654,705,c),
(1784,749,o),
(1841,840,o),
(1841,1005,cs),
(1841,1035,ls),
(1841,1295,o),
(1694,1408,o),
(1357,1408,cs),
(218,1408,ls),
(170,1408,o),
(144,1382,o),
(144,1334,cs),
(144,74,ls),
(144,26,o),
(170,0,o),
(218,0,cs)
);
},
{
closed = 1;
nodes = (
(320,632,l),
(1406,632,ls),
(1645,632,o),
(1724,574,o),
(1724,400,cs),
(1724,376,ls),
(1724,202,o),
(1645,144,o),
(1406,144,cs),
(320,144,l)
);
},
{
closed = 1;
nodes = (
(320,1264,l),
(1347,1264,ls),
(1586,1264,o),
(1665,1206,o),
(1665,1032,cs),
(1665,1008,ls),
(1665,834,o),
(1586,776,o),
(1347,776,cs),
(320,776,l)
);
}
);
width = 1996;
},
{
anchors = (
{
name = bottom;
pos = (992,0);
},
{
name = center;
pos = (478,352);
},
{
name = top;
pos = (992,1408);
}
);
layerId = m002;
shapes = (
{
closed = 1;
nodes = (
(1417,0,ls),
(1753,0,o),
(1900,113,o),
(1900,373,cs),
(1900,403,ls),
(1900,564,o),
(1808,656,o),
(1597,704,c),
(1766,761,o),
(1840,853,o),
(1840,1005,cs),
(1840,1035,ls),
(1840,1295,o),
(1693,1408,o),
(1357,1408,cs),
(218,1408,ls),
(170,1408,o),
(144,1382,o),
(144,1334,cs),
(144,73,ls),
(144,25,o),
(170,0,o),
(218,0,cs)
);
},
{
closed = 1;
nodes = (
(540,542,l),
(1186,542,ls),
(1425,542,o),
(1504,518,o),
(1504,444,cs),
(1504,422,ls),
(1504,349,o),
(1425,324,o),
(1186,324,cs),
(540,324,l)
);
},
{
closed = 1;
nodes = (
(540,1084,l),
(1126,1084,ls),
(1365,1084,o),
(1444,1060,o),
(1444,986,cs),
(1444,964,ls),
(1444,891,o),
(1365,866,o),
(1126,866,cs),
(540,866,l)
);
}
);
width = 1996;
}
);
unicode = 66;
},
{
glyphname = C;
kernLeft = O;
kernRight = O;
lastChange = "2025-03-15 21:27:33 +0000";
layers = (
{
anchors = (
{
name = bottom;
pos = (997,0);
},
{
name = top;
pos = (997,1408);
}
);
layerId = m01;
shapes = (
{
closed = 1;
nodes = (
(1150,-30,ls),
(1575,-30,o),
(1789,98,o),
(1851,392,cs),
(1861,441,o),
(1827,469,o),
(1779,469,cs),
(1747,469,ls),
(1699,469,o),
(1684,443,o),
(1670,396,cs),
(1607,185,o),
(1473,114,o),
(1131,114,cs),
(865,114,ls),
(438,114,o),
(296,257,o),
(296,686,cs),
(296,722,ls),
(296,1151,o),
(438,1294,o),
(865,1294,cs),
(1131,1294,ls),
(1473,1294,o),
(1608,1224,o),
(1670,1012,cs),
(1684,965,o),
(1699,939,o),
(1747,939,cs),
(1779,939,ls),
(1827,939,o),
(1862,965,o),
(1851,1016,cs),
(1788,1310,o),
(1575,1438,o),
(1150,1438,cs),
(846,1438,ls),
(341,1438,o),
(120,1222,o),
(120,727,cs),
(120,681,ls),
(120,186,o),
(341,-30,o),
(846,-30,cs)
);
}
);
width = 1973;
},
{
anchors = (
{
name = bottom;
pos = (974,0);
},
{
name = top;
pos = (974,1459);
}
);
layerId = m002;
shapes = (
{
closed = 1;
nodes = (
(1126,-30,ls),
(1592,-30,o),
(1807,130,o),
(1834,496,cs),
(1838,545,o),
(1810,572,o),
(1762,572,cs),
(1514,572,ls),
(1467,572,o),
(1445,547,o),
(1438,500,cs),
(1416,346,o),
(1333,294,o),
(1107,294,cs),
(841,294,ls),
(579,294,o),
(492,392,o),
(492,686,cs),
(492,722,ls),
(492,1016,o),
(579,1114,o),
(841,1114,cs),
(1107,1114,ls),
(1333,1114,o),
(1416,1062,o),
(1438,907,cs),
(1445,861,o),
(1467,836,o),
(1514,836,cs),
(1762,836,ls),
(1810,836,o),
(1838,863,o),
(1834,911,cs),
(1807,1278,o),
(1592,1438,o),
(1126,1438,cs),
(822,1438,ls),
(317,1438,o),
(96,1221,o),
(96,726,cs),
(96,681,ls),
(96,186,o),
(317,-30,o),
(822,-30,cs)
);
}
);
width = 1930;
}
);
unicode = 67;
},
{
glyphname = D;
kernLeft = H;
kernRight = O;
lastChange = "2025-03-21 22:34:43 +0000";
layers = (
{
anchors = (
{
name = bottom;
pos = (963,0);
},
{
name = center;
pos = (320,704);
},
{
name = top;
pos = (963,1408);
}
);
layerId = m01;
shapes = (
{
closed = 1;
nodes = (
(144,74,ls),
(144,26,o),
(170,0,o),
(218,0,cs),
(1193,0,ls),
(1685,0,o),
(1900,185,o),
(1900,608,cs),
(1900,799,ls),
(1900,1223,o),
(1685,1408,o),
(1193,1408,cs),
(218,1408,ls),
(170,1408,o),
(144,1382,o),
(144,1334,cs)
);
},
{
closed = 1;
nodes = (
(1180,1264,ls),
(1587,1264,o),
(1722,1147,o),
(1722,797,cs),
(1722,611,ls),
(1722,261,o),
(1587,144,o),
(1180,144,cs),
(322,144,l),
(322,1264,l)
);
}
);
width = 1996;
},
{
anchors = (
{
name = bottom;
pos = (963,0);
},
{
name = center;
pos = (342,704);
},
{
name = top;
pos = (963,1408);
}
);
layerId = m002;
shapes = (
{
closed = 1;
nodes = (
(144,73,ls),
(144,25,o),
(170,0,o),
(218,0,cs),
(1193,0,ls),
(1685,0,o),
(1900,185,o),
(1900,608,cs),
(1900,799,ls),
(1900,1223,o),
(1685,1408,o),
(1193,1408,cs),
(218,1408,ls),
(170,1408,o),
(144,1382,o),
(144,1334,cs)
);
},
{
closed = 1;
nodes = (
(1180,1084,ls),
(1423,1084,o),
(1504,1012,o),
(1504,796,cs),
(1504,611,ls),
(1504,396,o),
(1423,324,o),
(1180,324,cs),
(540,324,l),
(540,1084,l)
);
}
);
width = 1996;
}
);
unicode = 68;
},
{
glyphname = E;
kernLeft = H;
kernRight = Z;
lastChange = "2025-03-15 21:29:05 +0000";
layers = (
{
anchors = (
{
name = bottom;
pos = (864,0);
},
{
name = ogonek;
pos = (1476,10);
},
{
name = top;
pos = (864,1408);
},
{
name = topleft;
pos = (-16,1408);
}
);
layerId = m01;
shapes = (
{
closed = 1;
nodes = (
(1517,0,ls),
(1558,0,o),
(1584,23,o),
(1584,64,cs),
(1584,80,ls),
(1584,121,o),
(1558,144,o),
(1517,144,cs),
(322,144,l),
(322,632,l),
(1342,632,ls),
(1383,632,o),
(1409,655,o),
(1409,696,cs),
(1409,712,ls),
(1409,753,o),
(1383,776,o),
(1342,776,cs),
(322,776,l),
(322,1264,l),
(1517,1264,ls),
(1558,1264,o),
(1584,1287,o),
(1584,1328,cs),
(1584,1344,ls),
(1584,1385,o),
(1558,1408,o),
(1517,1408,cs),
(218,1408,ls),
(170,1408,o),
(144,1382,o),
(144,1337,cs),
(144,74,ls),
(144,26,o),
(170,0,o),
(218,0,cs)
);
}
);
width = 1656;
},
{
anchors = (
{
name = bottom;
pos = (864,0);
},
{
name = ogonek;
pos = (1476,10);
},
{
name = top;
pos = (864,1408);
},
{
name = topleft;
pos = (-16,1408);
}
);
layerId = m002;
shapes = (
{
closed = 1;
nodes = (
(1517,0,ls),
(1558,0,o),
(1584,25,o),
(1584,66,cs),
(1584,264,ls),
(1584,304,o),
(1558,324,o),
(1517,324,cs),
(540,324,l),
(540,542,l),
(1341,542,ls),
(1382,542,o),
(1408,567,o),
(1408,608,cs),
(1408,800,ls),
(1408,840,o),
(1382,866,o),
(1341,866,cs),
(540,866,l),
(540,1084,l),
(1517,1084,ls),
(1558,1084,o),
(1584,1109,o),
(1584,1150,cs),
(1584,1342,ls),
(1584,1382,o),
(1558,1408,o),
(1517,1408,cs),
(219,1408,ls),
(170,1408,o),
(144,1382,o),
(144,1334,cs),
(144,73,ls),
(144,25,o),
(170,0,o),
(219,0,cs)
);
}
);
width = 1656;
}
);
unicode = 69;
},
{
glyphname = Schwa;
kernLeft = O;
kernRight = O;
lastChange = "2025-03-15 23:18:45 +0000";
layers = (
{
anchors = (
{
name = bottom;
pos = (1016,0);
},
{
name = top;
pos = (1016,1438);
}
);
layerId = m01;
shapes = (
{
closed = 1;
nodes = (
(1168,-30,ls),
(1674,-30,o),
(1895,186,o),
(1895,681,cs),
(1895,727,ls),
(1895,1222,o),
(1674,1438,o),
(1168,1438,cs),
(864,1438,ls),
(439,1438,o),
(226,1310,o),
(163,1016,cs),
(152,966,o),
(186,939,o),
(235,939,cs),
(267,939,ls),
(315,939,o),
(330,965,o),
(344,1012,cs),
(406,1224,o),
(541,1294,o),
(883,1294,cs),
(1149,1294,ls),
(1577,1294,o),
(1719,1147,o),
(1719,704,c),
(215,704,ls),
(166,704,o),
(138,677,o),
(140,626,cs),
(154,170,o),
(375,-30,o),
(864,-30,cs)
);
},
{
closed = 1;
nodes = (
(489,114,o),
(349,226,o),
(320,560,c),
(1714,560,l),
(1686,229,o),
(1532,114,o),
(1149,114,cs),
(883,114,ls)
);
}
);
width = 2007;
},
{
anchors = (
{
name = bottom;
pos = (1021,0);
},
{
name = top;
pos = (1020,1438);
}
);
layerId = m002;
shapes = (
{
closed = 1;
nodes = (
(1173,-30,ls),
(1677,-30,o),
(1898,187,o),
(1898,682,cs),
(1898,726,ls),
(1898,1221,o),
(1677,1438,o),
(1173,1438,cs),
(867,1438,ls),
(464,1438,o),
(219,1323,o),
(156,1029,cs),
(144,973,o),
(167,939,o),
(224,939,cs),
(477,939,ls),
(521,939,o),
(558,952,o),
(573,995,cs),
(604,1084,o),
(673,1114,o),
(887,1114,cs),
(1153,1114,ls),
(1387,1114,o),
(1481,1037,o),
(1499,811,c),
(226,811,ls),
(176,811,o),
(146,786,o),
(144,738,cs),
(109,197,o),
(306,-30,o),
(867,-30,cs)
);
},
{
closed = 1;
nodes = (
(673,294,o),
(576,318,o),
(547,487,c),
(1481,487,l),
(1442,347,o),
(1343,294,o),
(1153,294,cs),
(887,294,ls)
);
}
);
width = 2010;
}
);
unicode = 399;
},
{
glyphname = F;
kernLeft = H;
kernRight = V;
lastChange = "2025-03-15 21:29:39 +0000";
layers = (
{
anchors = (
{
name = bottom;
pos = (792,0);
},
{
name = top;
pos = (792,1408);
}
);
layerId = m01;
shapes = (
{
closed = 1;
nodes = (
(144,74,ls),
(144,26,o),
(170,0,o),
(218,0,cs),
(248,0,ls),
(296,0,o),
(322,26,o),
(322,74,cs),
(322,632,l),
(1262,632,ls),
(1303,632,o),
(1329,655,o),
(1329,696,cs),
(1329,712,ls),
(1329,753,o),
(1303,776,o),
(1262,776,cs),
(322,776,l),
(322,1264,l),
(1429,1264,ls),
(1477,1264,o),
(1504,1287,o),
(1504,1328,cs),
(1504,1344,ls),
(1504,1385,o),
(1477,1408,o),
(1429,1408,cs),
(218,1408,ls),
(170,1408,o),
(144,1382,o),
(144,1334,cs)
);
}
);
width = 1570;
},
{
anchors = (
{
name = bottom;
pos = (806,0);
},
{
name = top;
pos = (806,1408);
}
);
layerId = m002;
shapes = (
{
closed = 1;
nodes = (
(144,73,ls),
(144,25,o),
(170,0,o),
(218,0,cs),
(465,0,ls),
(514,0,o),
(540,25,o),
(540,73,cs),
(540,542,l),
(1262,542,ls),
(1303,542,o),
(1329,567,o),
(1329,608,cs),
(1329,800,ls),
(1329,840,o),
(1303,866,o),
(1262,866,cs),
(540,866,l),
(540,1084,l),
(1429,1084,ls),
(1477,1084,o),
(1504,1109,o),
(1504,1150,cs),
(1504,1342,ls),
(1504,1382,o),
(1477,1408,o),
(1429,1408,cs),
(218,1408,ls),
(170,1408,o),
(144,1382,o),
(144,1334,cs)
);
}
);
width = 1570;
}
);
unicode = 70;
},
{
glyphname = G;
kernLeft = O;
kernRight = O;
lastChange = "2025-03-15 22:06:46 +0000";
layers = (
{
anchors = (
{
name = bottom;
pos = (991,0);
},
{
name = top;
pos = (991,1438);
}
);
layerId = m01;
shapes = (
{
closed = 1;
nodes = (
(1143,-30,ls),
(1631,-30,o),
(1852,170,o),
(1866,626,cs),
(1868,677,o),
(1840,704,o),
(1791,704,cs),
(1058,704,ls),
(1017,704,o),
(991,681,o),
(991,640,cs),
(991,624,ls),
(991,583,o),
(1017,560,o),
(1058,560,cs),
(1686,560,l),
(1657,226,o),
(1517,114,o),
(1124,114,cs),
(858,114,ls),
(431,114,o),
(288,257,o),
(288,686,cs),
(288,722,ls),
(288,1151,o),
(431,1294,o),
(858,1294,cs),
(1124,1294,ls),
(1465,1294,o),
(1600,1224,o),
(1662,1012,cs),
(1676,965,o),
(1691,939,o),
(1739,939,cs),
(1771,939,ls),
(1820,939,o),
(1854,966,o),
(1843,1016,cs),
(1780,1310,o),
(1567,1438,o),
(1143,1438,cs),
(839,1438,ls),
(333,1438,o),
(112,1222,o),
(112,727,cs),
(112,681,ls),
(112,186,o),
(333,-30,o),
(839,-30,cs)
);
}
);
width = 2006;
},
{
anchors = (
{
name = bottom;
pos = (1000,0);
},
{
name = top;
pos = (990,1438);
}
);
layerId = m002;
shapes = (
{
closed = 1;
nodes = (
(1143,-30,ls),
(1704,-30,o),
(1901,197,o),
(1866,738,cs),
(1864,786,o),
(1834,811,o),
(1784,811,cs),
(1070,811,ls),
(1018,811,o),
(990,783,o),
(990,731,cs),
(990,567,ls),
(990,515,o),
(1018,487,o),
(1070,487,cs),
(1463,487,l),
(1434,318,o),
(1337,294,o),
(1123,294,cs),
(857,294,ls),
(595,294,o),
(508,392,o),
(508,686,cs),
(508,722,ls),
(508,1016,o),
(595,1114,o),
(857,1114,cs),
(1123,1114,ls),
(1337,1114,o),
(1406,1084,o),
(1437,995,cs),
(1452,952,o),
(1489,939,o),
(1533,939,cs),
(1786,939,ls),
(1843,939,o),
(1866,973,o),
(1854,1029,cs),
(1791,1323,o),
(1546,1438,o),
(1143,1438,cs),
(837,1438,ls),
(333,1438,o),
(112,1221,o),
(112,726,cs),
(112,682,ls),
(112,187,o),
(333,-30,o),
(837,-30,cs)
);
}
);
width = 2010;
}
);
unicode = 71;
},
{
glyphname = H;
kernLeft = H;
kernRight = H;
lastChange = "2025-03-15 21:34:07 +0000";
layers = (
{
anchors = (
{
name = bottom;
pos = (1016,0);
},
{
name = center;
pos = (1016,1072);
},
{
name = top;
pos = (1016,1408);
},
{
name = topleft;
pos = (8,1408);
}
);
layerId = m01;
shapes = (
{
closed = 1;
nodes = (
(168,74,ls),
(168,26,o),
(194,0,o),
(242,0,cs),
(270,0,ls),
(318,0,o),
(344,26,o),
(344,74,cs),
(344,632,l),
(1688,632,l),
(1688,74,ls),
(1688,26,o),
(1714,0,o),
(1762,0,cs),
(1790,0,ls),
(1838,0,o),
(1864,26,o),
(1864,74,cs),
(1864,1334,ls),
(1864,1382,o),
(1838,1408,o),
(1790,1408,cs),
(1762,1408,ls),
(1714,1408,o),
(1688,1382,o),
(1688,1334,cs),
(1688,776,l),
(344,776,l),
(344,1334,ls),
(344,1382,o),
(318,1408,o),
(270,1408,cs),
(242,1408,ls),
(194,1408,o),
(168,1382,o),
(168,1334,cs)
);
}
);
width = 2032;
},
{
anchors = (
{
name = bottom;
pos = (1017,0);
},
{
name = center;
pos = (1017,1118);
},
{
name = top;
pos = (1017,1408);
},
{
name = topleft;
pos = (9,1408);
}
);
layerId = m002;
shapes = (
{
closed = 1;
nodes = (
(168,73,ls),
(168,25,o),
(194,0,o),
(242,0,cs),
(489,0,ls),
(538,0,o),
(564,25,o),
(564,73,cs),
(564,539,l),
(1468,539,l),
(1468,73,ls),
(1468,25,o),
(1494,0,o),
(1542,0,cs),
(1789,0,ls),
(1838,0,o),
(1864,25,o),
(1864,73,cs),
(1864,1334,ls),
(1864,1382,o),
(1838,1408,o),
(1789,1408,cs),
(1542,1408,ls),
(1494,1408,o),
(1468,1382,o),
(1468,1334,cs),
(1468,869,l),
(564,869,l),
(564,1334,ls),
(564,1382,o),
(538,1408,o),
(489,1408,cs),
(242,1408,ls),
(194,1408,o),
(168,1382,o),
(168,1334,cs)
);
}
);
width = 2032;
}
);
unicode = 72;
},
{
glyphname = J;
kernLeft = O;
kernRight = O;
lastChange = "2025-03-15 21:34:46 +0000";
layers = (
{
anchors = (
{
name = bottom;
pos = (847,0);
},
{
name = top;
pos = (847,1408);
}
);
layerId = m01;
shapes = (
{
closed = 1;
nodes = (
(859,-30,ls),
(1336,-30,o),
(1545,186,o),
(1545,681,cs),
(1545,1328,ls),
(1545,1380,o),
(1517,1408,o),
(1465,1408,cs),
(1449,1408,ls),
(1397,1408,o),
(1369,1380,o),
(1369,1328,cs),
(1369,686,ls),
(1369,257,o),
(1237,114,o),
(840,114,cs),
(803,114,ls),
(467,114,o),
(339,201,o),
(292,460,cs),
(282,510,o),
(255,536,o),
(206,536,cs),
(188,536,ls),
(134,536,o),
(105,505,o),
(113,450,cs),
(163,116,o),
(367,-30,o),
(784,-30,cs)
);
}
);
width = 1699;
},
{
anchors = (
{
name = bottom;
pos = (825,0);
},
{
name = top;
pos = (1350,1408);
}
);
layerId = m002;
shapes = (
{
closed = 1;
nodes = (
(873,-30,ls),
(1343,-30,o),
(1548,193,o),
(1548,704,cs),
(1548,1333,ls),
(1548,1381,o),
(1521,1408,o),
(1473,1408,cs),
(1227,1408,ls),
(1180,1408,o),
(1152,1380,o),
(1152,1333,cs),
(1152,704,ls),
(1152,397,o),
(1078,294,o),
(854,294,cs),
(803,294,ls),
(604,294,o),
(530,336,o),
(508,461,cs),
(500,509,o),
(480,536,o),
(433,536,cs),
(185,536,ls),
(136,536,o),
(108,509,o),
(112,459,cs),
(135,119,o),
(339,-30,o),
(784,-30,cs)
);
}
);
width = 1702;
}
);
unicode = 74;
},
{
glyphname = K;
kernLeft = H;
kernRight = Z;
lastChange = "2025-03-15 21:35:04 +0000";
layers = (
{
anchors = (
{
name = bottom;
pos = (908,0);
},
{
name = top;
pos = (908,1408);
}
);
layerId = m01;
shapes = (
{
closed = 1;
nodes = (
(1732,0,ls),
(1805,0,o),
(1821,49,o),
(1760,90,cs),
(831,704,l),
(1722,1317,ls),
(1778,1355,o),
(1762,1408,o),
(1691,1408,cs),
(1619,1408,ls),
(1582,1408,o),
(1556,1397,o),
(1527,1377,cs),
(654,776,l),
(344,776,l),
(344,1334,ls),
(344,1382,o),
(318,1408,o),
(270,1408,cs),
(242,1408,ls),
(194,1408,o),
(168,1382,o),
(168,1334,cs),
(168,74,ls),
(168,26,o),
(194,0,o),
(242,0,cs),
(270,0,ls),
(318,0,o),
(344,26,o),
(344,74,cs),
(344,632,l),
(650,632,l),
(1564,28,ls),
(1594,8,o),
(1620,0,o),
(1656,0,cs)
);
}
);
width = 1854;
},
{
anchors = (
{
name = bottom;
pos = (923,0);
},
{
name = top;
pos = (923,1408);
}
);
layerId = m002;
shapes = (
{
closed = 1;
nodes = (
(1736,0,ls),
(1808,0,o),
(1817,37,o),
(1764,88,cs),
(1117,704,l),
(1713,1318,ls),
(1762,1368,o),
(1753,1408,o),
(1683,1408,cs),
(1361,1408,ls),
(1325,1408,o),
(1295,1404,o),
(1269,1377,cs),
(773,866,l),
(564,866,l),
(564,1334,ls),
(564,1382,o),
(538,1408,o),
(489,1408,cs),
(242,1408,ls),
(194,1408,o),
(168,1382,o),
(168,1334,cs),
(168,73,ls),
(168,25,o),
(194,0,o),
(242,0,cs),
(489,0,ls),
(538,0,o),
(564,25,o),
(564,73,cs),
(564,542,l),
(764,542,l),
(1306,27,ls),
(1332,2,o),
(1362,0,o),
(1398,0,cs)
);
}
);
width = 1854;
}
);
unicode = 75;
},
{
glyphname = L;
kernLeft = H;
kernRight = A;
lastChange = "2025-03-15 22:08:51 +0000";
layers = (
{
anchors = (
{
name = bottom;
pos = (828,0);
},
{
name = center;
pos = (344,704);
},
{
name = top;
pos = (344,1408);
},
{
name = topright;
pos = (1191,1408);
}
);
layerId = m01;
shapes = (
{
closed = 1;
nodes = (
(1421,0,ls),
(1462,0,o),
(1488,23,o),
(1488,64,cs),
(1488,80,ls),
(1488,121,o),
(1462,144,o),
(1421,144,cs),
(344,144,l),
(344,1334,ls),
(344,1382,o),
(318,1408,o),
(270,1408,cs),
(242,1408,ls),
(194,1408,o),
(168,1382,o),
(168,1334,cs),
(168,74,ls),
(168,26,o),
(194,0,o),
(242,0,cs)
);
}
);
width = 1544;
},
{
anchors = (
{
name = bottom;
pos = (828,0);
},
{
name = center;
pos = (366,704);
},
{
name = top;
pos = (564,1408);
},
{
name = topright;
pos = (1060,1408);
}
);
layerId = m002;
shapes = (
{
closed = 1;
nodes = (
(1421,0,ls),
(1462,0,o),
(1488,26,o),
(1488,67,cs),
(1488,257,ls),
(1488,298,o),
(1462,324,o),
(1421,324,cs),
(564,324,l),
(564,1334,ls),
(564,1382,o),
(538,1408,o),
(489,1408,cs),
(242,1408,ls),
(194,1408,o),
(168,1382,o),
(168,1334,cs),
(168,74,ls),
(168,26,o),
(194,0,o),
(242,0,cs)
);
}
);
width = 1544;
}
);
unicode = 76;
},
{
glyphname = M;
kernLeft = H;
kernRight = H;
lastChange = "2025-03-15 21:35:29 +0000";
layers = (
{
anchors = (
{
name = bottom;
pos = (1254,0);
},
{
name = top;
pos = (1254,1408);
}
);
layerId = m01;
shapes = (
{
closed = 1;
nodes = (
(168,74,ls),
(168,26,o),
(194,0,o),
(242,0,cs),
(270,0,ls),
(318,0,o),
(344,26,o),
(344,74,cs),
(344,1264,l),
(384,1264,l),
(1127,50,ls),
(1149,15,o),
(1177,0,o),
(1217,0,cs),
(1291,0,ls),
(1331,0,o),
(1359,15,o),
(1381,50,cs),
(2124,1264,l),
(2164,1264,l),
(2164,74,ls),
(2164,26,o),
(2190,0,o),
(2238,0,cs),
(2266,0,ls),
(2314,0,o),
(2340,26,o),
(2340,74,cs),
(2340,1334,ls),
(2340,1382,o),
(2314,1408,o),
(2266,1408,cs),
(2083,1408,ls),
(2043,1408,o),
(2015,1392,o),
(1994,1358,cs),
(1254,149,l),
(514,1358,ls),
(493,1392,o),
(465,1408,o),
(425,1408,cs),
(242,1408,ls),
(194,1408,o),
(168,1382,o),
(168,1334,cs)
);
}
);
width = 2508;
},
{
anchors = (
{
name = bottom;
pos = (1266,0);
},
{
name = top;
pos = (1266,1429);
}
);
layerId = m002;
shapes = (
{
closed = 1;
nodes = (
(180,73,ls),
(180,25,o),
(206,0,o),
(254,0,cs),
(501,0,ls),
(550,0,o),
(576,25,o),
(576,73,cs),
(576,1084,l),
(580,1084,l),
(965,50,ls),
(978,14,o),
(1014,0,o),
(1054,0,cs),
(1478,0,ls),
(1518,0,o),
(1554,14,o),
(1567,50,cs),
(1952,1084,l),
(1956,1084,l),
(1956,73,ls),
(1956,25,o),
(1982,0,o),
(2031,0,cs),
(2278,0,ls),
(2326,0,o),
(2352,25,o),
(2352,73,cs),
(2352,1334,ls),
(2352,1382,o),
(2326,1408,o),
(2278,1408,cs),
(1740,1408,ls),
(1700,1408,o),
(1665,1396,o),
(1651,1358,cs),
(1266,324,l),
(881,1358,ls),
(867,1396,o),
(832,1408,o),
(792,1408,cs),
(254,1408,ls),
(206,1408,o),
(180,1382,o),
(180,1334,cs)
);
}
);
width = 2532;
}
);
unicode = 77;
},
{
glyphname = N;
kernLeft = H;
kernRight = H;
lastChange = "2025-03-15 21:35:43 +0000";
layers = (
{
anchors = (
{
name = bottom;
pos = (1006,0);
},
{
name = top;
pos = (1006,1408);
}
);
layerId = m01;
shapes = (
{
closed = 1;
nodes = (
(242,0,ls),
(290,0,o),
(316,26,o),
(316,74,cs),
(316,1264,l),
(356,1264,l),
(1536,38,ls),
(1562,11,o),
(1590,0,o),
(1628,0,cs),
(1798,0,ls),
(1846,0,o),
(1872,26,o),
(1872,74,cs),
(1872,1334,ls),
(1872,1382,o),
(1846,1408,o),
(1798,1408,cs),
(1770,1408,ls),
(1721,1408,o),
(1696,1382,o),
(1696,1334,cs),
(1696,144,l),
(1656,144,l),
(476,1370,ls),
(450,1397,o),
(422,1408,o),
(384,1408,cs),
(214,1408,ls),
(166,1408,o),
(140,1382,o),
(140,1334,cs),
(140,74,ls),
(140,26,o),
(166,0,o),
(214,0,cs)
);
}
);
width = 2012;
},
{
anchors = (
{
name = bottom;
pos = (1006,0);
},
{
name = top;
pos = (1006,1408);
}
);
layerId = m002;
shapes = (
{
closed = 1;
nodes = (
(461,0,ls),
(510,0,o),
(536,25,o),
(536,72,cs),
(536,1084,l),
(564,1084,l),
(1155,38,ls),
(1173,6,o),
(1209,0,o),
(1247,0,cs),
(1798,0,ls),
(1846,0,o),
(1872,25,o),
(1872,72,cs),
(1872,1335,ls),
(1872,1382,o),
(1846,1408,o),
(1798,1408,cs),
(1550,1408,ls),
(1502,1408,o),
(1476,1382,o),
(1476,1335,cs),
(1476,324,l),
(1448,324,l),
(857,1370,ls),
(838,1403,o),
(803,1408,o),
(765,1408,cs),
(214,1408,ls),
(166,1408,o),
(140,1382,o),
(140,1335,cs),
(140,72,ls),
(140,25,o),
(166,0,o),
(214,0,cs)
);
}
);
width = 2012;
}
);
unicode = 78;
},
{
glyphname = O;
kernLeft = O;
kernRight = O;
lastChange = "2025-03-15 21:35:55 +0000";
layers = (
{
anchors = (
{
name = bottom;
pos = (990,0);
},
{
name = center;
pos = (990,704);
},
{
name = ogonek;
pos = (1472,10);
},
{
name = top;
pos = (990,1408);
},
{
name = topleft;
pos = (112,1408);
},
{
name = topright;
pos = (1692,1408);
}
);
layerId = m01;
shapes = (
{
closed = 1;
nodes = (
(112,682,ls),
(112,187,o),
(333,-30,o),
(837,-30,cs),
(1143,-30,ls),
(1647,-30,o),
(1868,187,o),
(1868,682,cs),
(1868,726,ls),
(1868,1221,o),
(1647,1438,o),
(1143,1438,cs),
(837,1438,ls),
(333,1438,o),
(112,1221,o),
(112,726,cs)
);
},
{
closed = 1;
nodes = (
(288,1151,o),
(430,1294,o),
(857,1294,cs),
(1123,1294,ls),
(1550,1294,o),
(1692,1151,o),
(1692,722,cs),
(1692,686,ls),
(1692,257,o),
(1550,114,o),
(1123,114,cs),
(857,114,ls),
(430,114,o),
(288,257,o),
(288,686,cs),
(288,722,ls)
);
}
);
width = 1980;
},
{
anchors = (
{
name = bottom;
pos = (990,0);
},
{
name = center;
pos = (990,704);
},
{
name = ogonek;
pos = (1472,10);
},
{
name = top;
pos = (990,1438);
},
{
name = topleft;
pos = (112,1408);
},
{
name = topright;
pos = (1692,1408);
}
);
layerId = m002;
shapes = (
{
closed = 1;
nodes = (
(112,682,ls),
(112,187,o),
(333,-30,o),
(837,-30,cs),
(1143,-30,ls),
(1647,-30,o),
(1868,187,o),
(1868,682,cs),
(1868,726,ls),
(1868,1221,o),
(1647,1438,o),
(1143,1438,cs),
(837,1438,ls),
(333,1438,o),
(112,1221,o),
(112,726,cs)
);
},
{
closed = 1;
nodes = (
(508,1016,o),
(595,1114,o),
(857,1114,cs),
(1123,1114,ls),
(1385,1114,o),
(1472,1016,o),
(1472,722,cs),
(1472,686,ls),
(1472,392,o),
(1385,294,o),
(1123,294,cs),
(857,294,ls),
(595,294,o),
(508,392,o),
(508,686,cs),
(508,722,ls)
);
}
);
width = 1980;
}
);
unicode = 79;
},
{
glyphname = OE;
kernLeft = O;
kernRight = Z;
lastChange = "2025-03-15 23:17:42 +0000";
layers = (
{
anchors = (
{
name = bottom;
pos = (1213,0);
},
{
name = top;
pos = (1213,1408);
}
);
layerId = m01;
shapes = (
{
closed = 1;
nodes = (
(112,682,ls),
(112,187,o),
(276,-30,o),
(652,-30,cs),
(882,-30,ls),
(1257,-30,o),
(1421,187,o),
(1421,682,cs),
(1421,726,ls),
(1421,1221,o),
(1257,1438,o),
(882,1438,cs),
(652,1438,ls),
(276,1438,o),
(112,1221,o),
(112,726,cs)
);
},
{
closed = 1;
nodes = (
(288,1151,o),
(383,1294,o),
(668,1294,cs),
(864,1294,ls),
(1150,1294,o),
(1245,1151,o),
(1245,722,cs),
(1245,686,ls),
(1245,257,o),
(1150,114,o),
(864,114,cs),
(668,114,ls),
(383,114,o),
(288,257,o),
(288,686,cs),
(288,722,ls)
);
},
{
closed = 1;
nodes = (
(2307,0,ls),
(2348,0,o),
(2374,23,o),
(2374,64,cs),
(2374,80,ls),
(2374,121,o),
(2348,144,o),
(2307,144,cs),
(1421,144,l),
(1421,632,l),
(2132,632,ls),
(2173,632,o),
(2199,655,o),
(2199,696,cs),
(2199,712,ls),
(2199,753,o),
(2173,776,o),
(2132,776,cs),
(1421,776,l),
(1421,1264,l),
(2307,1264,ls),
(2348,1264,o),
(2374,1287,o),
(2374,1328,cs),
(2374,1344,ls),
(2374,1385,o),
(2348,1408,o),
(2307,1408,cs),
(1319,1408,ls),
(1271,1408,o),
(1245,1382,o),
(1245,1334,cs),
(1245,74,ls),
(1245,26,o),
(1271,0,o),
(1319,0,cs)
);
}
);
width = 2430;
},
{
anchors = (
{
name = bottom;
pos = (1224,0);
},
{
name = top;
pos = (1224,1438);
}
);
layerId = m002;
shapes = (
{
closed = 1;
nodes = (
(112,692,ls),
(112,190,o),
(259,-30,o),
(596,-30,cs),
(938,-30,ls),
(1275,-30,o),
(1422,190,o),
(1422,692,cs),
(1422,737,ls),
(1422,1225,o),
(1275,1438,o),
(938,1438,cs),
(596,1438,ls),
(259,1438,o),
(112,1225,o),
(112,737,cs)
);
},
{
closed = 1;
nodes = (
(508,1019,o),
(544,1114,o),
(652,1114,cs),
(881,1114,ls),
(990,1114,o),
(1026,1019,o),
(1026,733,cs),
(1026,697,ls),
(1026,395,o),
(990,294,o),
(881,294,cs),
(652,294,ls),
(544,294,o),
(508,395,o),
(508,697,cs),
(508,733,ls)
);
},
{
closed = 1;
nodes = (
(2312,0,ls),
(2353,0,o),
(2379,26,o),
(2379,67,cs),
(2379,257,ls),
(2379,298,o),
(2353,324,o),
(2312,324,cs),
(1620,324,l),
(1620,542,l),
(2137,542,ls),
(2178,542,o),
(2204,573,o),
(2204,614,cs),
(2204,815,ls),
(2204,856,o),
(2178,866,o),
(2137,866,cs),
(1620,866,l),
(1620,1084,l),
(2312,1084,ls),
(2353,1084,o),
(2379,1110,o),
(2379,1151,cs),
(2379,1362,ls),
(2379,1403,o),
(2353,1408,o),
(2312,1408,cs),
(1291,1408,ls),
(1250,1408,o),
(1224,1382,o),
(1224,1341,cs),
(1224,67,ls),
(1224,27,o),
(1250,0,o),
(1291,0,cs)
);
}
);
width = 2435;
}
);
unicode = 338;
},
{
glyphname = P;
kernLeft = H;
kernRight = O;
lastChange = "2025-03-15 21:36:20 +0000";
layers = (
{
anchors = (
{
name = bottom;
pos = (916,0);
},
{
name = top;
pos = (916,1408);
}
);
layerId = m01;
shapes = (
{
closed = 1;
nodes = (
(270,0,ls),
(318,0,o),
(344,26,o),
(344,74,cs),
(344,536,l),
(1292,536,ls),
(1629,536,o),
(1776,664,o),
(1776,957,cs),
(1776,987,ls),
(1776,1280,o),
(1629,1408,o),
(1292,1408,cs),
(242,1408,ls),
(194,1408,o),
(168,1382,o),
(168,1334,cs),
(168,74,ls),
(168,26,o),
(194,0,o),
(242,0,cs)
);
},
{
closed = 1;
nodes = (
(344,1264,l),
(1269,1264,ls),
(1517,1264,o),
(1600,1194,o),
(1600,985,cs),
(1600,959,ls),
(1600,750,o),
(1517,680,o),
(1269,680,cs),
(344,680,l)
);
}
);
width = 1840;
},
{
anchors = (
{
name = bottom;
pos = (916,0);
},
{
name = top;
pos = (916,1408);
}
);
layerId = m002;
shapes = (
{
closed = 1;
nodes = (
(489,0,ls),
(538,0,o),
(564,25,o),
(564,73,cs),
(564,436,l),
(1180,436,ls),
(1595,436,o),
(1776,582,o),
(1776,916,cs),
(1776,946,ls),
(1776,1267,o),
(1595,1408,o),
(1180,1408,cs),
(242,1408,ls),
(194,1408,o),
(168,1382,o),
(168,1334,cs),
(168,73,ls),
(168,25,o),
(194,0,o),
(242,0,cs)
);
},
{
closed = 1;
nodes = (
(564,1084,l),
(1055,1084,ls),
(1299,1084,o),
(1380,1047,o),
(1380,934,cs),
(1380,910,ls),
(1380,798,o),
(1299,760,o),
(1055,760,cs),
(564,760,l)
);
}
);
width = 1840;
}
);
unicode = 80;
},
{
glyphname = Thorn;
kernLeft = H;
kernRight = O;
lastChange = "2025-03-15 23:18:05 +0000";
layers = (
{
layerId = m01;
shapes = (
{
closed = 1;
nodes = (
(258,0,ls),
(306,0,o),
(332,26,o),
(332,74,cs),
(332,273,l),
(1292,273,ls),
(1629,273,o),
(1776,404,o),
(1776,705,cs),
(1776,725,ls),
(1776,1025,o),
(1629,1156,o),
(1292,1156,cs),
(332,1156,l),
(332,1355,ls),
(332,1403,o),
(306,1429,o),
(258,1429,cs),
(230,1429,ls),
(182,1429,o),
(156,1403,o),
(156,1355,cs),
(156,74,ls),
(156,26,o),
(182,0,o),
(230,0,cs)
);
},
{
closed = 1;
nodes = (
(332,1012,l),
(1282,1012,ls),
(1521,1012,o),
(1600,941,o),
(1600,727,cs),
(1600,703,ls),
(1600,489,o),
(1521,417,o),
(1282,417,cs),
(332,417,l)
);
}
);
width = 1852;
},
{
layerId = m002;
shapes = (
{
closed = 1;
nodes = (
(477,0,ls),
(526,0,o),
(552,25,o),
(552,72,cs),
(552,218,l),
(1292,218,ls),
(1629,218,o),
(1776,358,o),
(1776,678,cs),
(1776,708,ls),
(1776,1043,o),
(1629,1190,o),
(1292,1190,cs),
(552,1190,l),
(552,1335,ls),
(552,1382,o),
(526,1408,o),
(477,1408,cs),
(230,1408,ls),
(182,1408,o),
(156,1382,o),
(156,1335,cs),
(156,72,ls),
(156,25,o),
(182,0,o),
(230,0,cs)
);
},
{
closed = 1;
nodes = (
(552,866,l),
(1055,866,ls),
(1299,866,o),
(1380,826,o),
(1380,705,cs),
(1380,681,ls),
(1380,577,o),
(1299,542,o),
(1055,542,cs),
(552,542,l)
);
}
);
width = 1852;
}
);
unicode = 222;
},
{
glyphname = Q;
kernLeft = O;
kernRight = O;
lastChange = "2025-03-07 03:56:45 +0000";
layers = (
{
anchors = (
{
name = bottom;
pos = (975,0);
},
{
name = top;
pos = (975,1429);
}
);
layerId = m01;
shapes = (
{
ref = O;
},
{
closed = 1;
nodes = (
(1086,575,ls),
(1064,543,o),
(1069,514,o),
(1101,491,cs),
(1826,-16,ls),
(1858,-39,o),
(1887,-34,o),
(1910,-2,cs),
(1933,31,ls),
(1955,63,o),
(1950,92,o),
(1918,115,cs),
(1193,622,ls),
(1161,645,o),
(1132,640,o),
(1109,608,cs)
);
}
);
width = 1946;
},
{
anchors = (
{
name = bottom;
pos = (975,0);
},
{
name = top;
pos = (975,1429);
}
);
layerId = m002;
shapes = (
{
ref = O;
},
{
closed = 1;
nodes = (
(1041,539,ls),
(1011,497,o),
(1018,458,o),
(1060,428,cs),
(1752,-57,ls),
(1795,-87,o),
(1834,-80,o),
(1864,-37,cs),
(1978,127,ls),
(2008,169,o),
(2001,208,o),
(1959,238,cs),
(1267,723,ls),
(1224,753,o),
(1185,746,o),
(1155,703,cs)
);
}
);
width = 1996;
}
);
unicode = 81;
},
{
glyphname = R;
kernLeft = H;
kernRight = Z;
lastChange = "2025-03-15 21:36:57 +0000";
layers = (
{
anchors = (
{
name = bottom;
pos = (962,0);
},
{
name = top;
pos = (962,1408);
}
);
layerId = m01;
shapes = (
{
closed = 1;
nodes = (
(270,0,ls),
(318,0,o),
(344,26,o),
(344,74,cs),
(344,536,l),
(1188,536,l),
(1554,48,ls),
(1580,14,o),
(1608,0,o),
(1647,0,cs),
(1705,0,ls),
(1760,0,o),
(1775,41,o),
(1737,91,cs),
(1401,539,l),
(1662,572,o),
(1776,700,o),
(1776,957,cs),
(1776,987,ls),
(1776,1280,o),
(1629,1408,o),
(1292,1408,cs),
(242,1408,ls),
(194,1408,o),
(168,1382,o),
(168,1334,cs),
(168,74,ls),
(168,26,o),
(194,0,o),
(242,0,cs)
);
},
{
closed = 1;
nodes = (
(344,1264,l),
(1269,1264,ls),
(1517,1264,o),
(1600,1194,o),
(1600,985,cs),
(1600,959,ls),
(1600,750,o),
(1517,680,o),
(1269,680,cs),
(344,680,l)
);
}
);
width = 1920;
},
{
anchors = (
{
name = bottom;
pos = (962,0);
},
{
name = top;
pos = (962,1408);
}
);
layerId = m002;
shapes = (
{
closed = 1;
nodes = (
(489,0,ls),
(538,0,o),
(564,25,o),
(564,73,cs),
(564,436,l),
(962,436,l),
(1263,44,ls),
(1286,14,o),
(1314,0,o),
(1353,0,cs),
(1675,0,ls),
(1730,0,o),
(1739,39,o),
(1701,89,cs),
(1418,457,l),
(1657,512,o),
(1776,642,o),
(1776,907,cs),
(1776,936,ls),
(1776,1264,o),
(1595,1408,o),
(1182,1408,cs),
(242,1408,ls),
(194,1408,o),
(168,1382,o),
(168,1334,cs),
(168,73,ls),
(168,25,o),
(194,0,o),
(242,0,cs)
);
},
{
closed = 1;
nodes = (
(564,1084,l),
(1055,1084,ls),
(1299,1084,o),
(1380,1047,o),
(1380,934,cs),
(1380,910,ls),
(1380,798,o),
(1299,760,o),
(1055,760,cs),
(564,760,l)
);
}
);
width = 1920;
}
);
unicode = 82;
},
{
glyphname = S;
kernLeft = O;
kernRight = O;
lastChange = "2025-03-15 21:37:14 +0000";
layers = (
{
anchors = (
{
name = bottom;
pos = (988,-22);
},
{
name = top;
pos = (988,1452);
}
);
layerId = m01;
shapes = (
{
closed = 1;
nodes = (
(1132,-30,ls),
(1633,-30,o),
(1852,95,o),
(1852,382,cs),
(1852,423,ls),
(1852,562,o),
(1796,648,o),
(1667,705,cs),
(1568,750,o),
(1415,770,o),
(1132,774,cs),
(854,778,ls),
(431,784,o),
(290,841,o),
(290,1008,cs),
(290,1040,ls),
(290,1231,o),
(431,1294,o),
(854,1294,cs),
(1132,1294,ls),
(1474,1294,o),
(1609,1224,o),
(1671,1012,cs),
(1683,970,o),
(1701,939,o),
(1748,939,cs),
(1780,939,ls),
(1828,939,o),
(1863,965,o),
(1852,1016,cs),
(1789,1310,o),
(1576,1438,o),
(1152,1438,cs),
(834,1438,ls),
(333,1438,o),
(114,1313,o),
(114,1026,cs),
(114,985,ls),
(114,846,o),
(170,760,o),
(299,703,cs),
(398,658,o),
(563,638,o),
(834,634,cs),
(1112,630,ls),
(1535,624,o),
(1677,567,o),
(1677,400,cs),
(1677,368,ls),
(1677,178,o),
(1535,114,o),
(1112,114,cs),
(834,114,ls),
(492,114,o),
(357,185,o),
(295,396,cs),
(283,437,o),
(266,469,o),
(218,469,cs),
(186,469,ls),
(137,469,o),
(103,442,o),
(114,392,cs),
(177,98,o),
(389,-30,o),
(814,-30,cs)
);
}
);
width = 1966;
},
{
anchors = (
{
name = bottom;
pos = (987,-30);
},
{
name = top;
pos = (987,1459);
}
);
layerId = m002;
shapes = (
{
closed = 1;
nodes = (
(1130,-30,ls),
(1631,-30,o),
(1850,103,o),
(1850,408,cs),
(1850,430,ls),
(1850,612,o),
(1794,717,o),
(1665,772,cs),
(1523,833,o),
(1361,861,o),
(1132,864,cs),
(850,868,ls),
(592,872,o),
(506,898,o),
(506,972,cs),
(506,1005,ls),
(506,1087,o),
(593,1114,o),
(852,1114,cs),
(1130,1114,ls),
(1357,1114,o),
(1438,1090,o),
(1454,1018,cs),
(1464,975,o),
(1483,946,o),
(1531,946,cs),
(1777,946,ls),
(1825,946,o),
(1854,972,o),
(1850,1021,cs),
(1822,1311,o),
(1609,1438,o),
(1150,1438,cs),
(832,1438,ls),
(331,1438,o),
(112,1305,o),
(112,1000,cs),
(112,978,ls),
(112,797,o),
(168,693,o),
(297,636,cs),
(435,575,o),
(597,547,o),
(832,544,cs),
(1110,540,ls),
(1368,537,o),
(1454,511,o),
(1454,437,cs),
(1454,404,ls),
(1454,322,o),
(1368,294,o),
(1110,294,cs),
(832,294,ls),
(606,294,o),
(525,318,o),
(508,391,cs),
(499,433,o),
(480,462,o),
(432,462,cs),
(188,462,ls),
(139,462,o),
(108,437,o),
(112,387,cs),
(140,97,o),
(353,-30,o),
(812,-30,cs)
);
}
);
width = 1962;
}
);
unicode = 83;
},
{
glyphname = Germandbls;
kernLeft = H;
kernRight = Z;
lastChange = "2025-03-15 23:17:23 +0000";
layers = (
{
anchors = (
{
name = bottom;
pos = (824,0);
},
{
name = top;
pos = (824,1408);
}
);
layerId = m01;
shapes = (
{
closed = 1;
nodes = (
(1210,0,ls),
(1520,0,o),
(1656,116,o),
(1656,380,cs),
(1656,424,ls),
(1656,688,o),
(1520,804,o),
(1210,804,cs),
(1195,804,l),
(1618,1211,ls),
(1646,1237,o),
(1656,1265,o),
(1656,1303,cs),
(1656,1334,ls),
(1656,1382,o),
(1630,1408,o),
(1582,1408,cs),
(186,1408,ls),
(138,1408,o),
(112,1382,o),
(112,1334,cs),
(112,74,ls),
(112,26,o),
(137,0,o),
(185,0,cs),
(215,0,ls),
(263,0,o),
(288,26,o),
(288,74,cs),
(288,1264,l),
(1444,1264,l),
(926,746,ls),
(880,700,o),
(898,655,o),
(964,655,cs),
(1190,655,ls),
(1406,655,o),
(1478,595,o),
(1478,416,cs),
(1478,389,ls),
(1478,209,o),
(1406,149,o),
(1190,149,cs),
(972,149,ls),
(756,149,o),
(684,209,o),
(684,389,cs),
(684,463,o),
(654,473,o),
(616,435,cs),
(539,358,ls),
(519,338,o),
(510,315,o),
(517,287,cs),
(565,87,o),
(697,0,o),
(952,0,cs)
);
}
);
width = 1740;
},
{
anchors = (
{
name = bottom;
pos = (833,0);
},
{
name = top;
pos = (833,1408);
}
);
layerId = m002;
shapes = (
{
closed = 1;
nodes = (
(1283,-30,ls),
(1543,-30,o),
(1656,95,o),
(1656,380,cs),
(1656,424,ls),
(1656,656,o),
(1587,764,o),
(1428,779,cs),
(1417,780,l),
(1640,1206,ls),
(1656,1236,o),
(1656,1260,o),
(1656,1298,cs),
(1656,1334,ls),
(1656,1382,o),
(1630,1408,o),
(1582,1408,cs),
(186,1408,ls),
(138,1408,o),
(112,1382,o),
(112,1334,cs),
(112,74,ls),
(112,26,o),
(138,0,o),
(186,0,cs),
(433,0,ls),
(482,0,o),
(508,26,o),
(508,74,cs),
(508,1084,l),
(1170,1084,l),
(954,653,ls),
(924,593,o),
(925,562,o),
(991,562,cs),
(1138,562,ls),
(1230,562,o),
(1260,532,o),
(1260,442,cs),
(1260,414,ls),
(1260,324,o),
(1230,294,o),
(1138,294,cs),
(1138,294,ls),
(1030,294,o),
(952,311,o),
(897,351,cs),
(851,386,o),
(821,388,o),
(796,337,cs),
(698,139,ls),
(675,92,o),
(685,53,o),
(733,33,cs),
(836,-10,o),
(964,-30,o),
(1118,-30,cs)
);
}
);
width = 1740;
}
);
unicode = 7838;
},
{
glyphname = T;
kernLeft = T;
kernRight = T;
lastChange = "2025-03-15 21:37:31 +0000";
layers = (
{
anchors = (
{
name = bottom;
pos = (894,0);
},
{
name = center;
pos = (894,704);
},
{
name = top;
pos = (894,1408);
}
);
layerId = m01;
shapes = (
{
closed = 1;
nodes = (
(84,1329,ls),
(84,1288,o),
(110,1264,o),
(151,1264,cs),
(806,1264,l),
(806,74,ls),
(806,26,o),
(832,0,o),
(880,0,cs),
(908,0,ls),
(957,0,o),
(982,26,o),
(982,74,cs),
(982,1264,l),
(1637,1264,ls),
(1678,1264,o),
(1704,1288,o),
(1704,1329,cs),
(1704,1345,ls),
(1704,1386,o),
(1678,1408,o),
(1637,1408,cs),
(151,1408,ls),
(110,1408,o),
(84,1386,o),
(84,1345,cs)
);
}
);
width = 1788;
},
{
anchors = (
{
name = bottom;
pos = (895,0);
},
{
name = center;
pos = (895,704);
},
{
name = top;
pos = (895,1408);
}
);
layerId = m002;
shapes = (
{
closed = 1;
nodes = (
(84,1150,ls),
(84,1109,o),
(110,1084,o),
(151,1084,cs),
(696,1084,l),
(696,73,ls),
(696,25,o),
(722,0,o),
(771,0,cs),
(1018,0,ls),
(1066,0,o),
(1092,25,o),
(1092,73,cs),
(1092,1084,l),
(1637,1084,ls),
(1678,1084,o),
(1704,1109,o),
(1704,1150,cs),
(1704,1342,ls),
(1704,1382,o),
(1678,1408,o),
(1637,1408,cs),
(151,1408,ls),
(110,1408,o),
(84,1382,o),
(84,1342,cs)
);
}
);
width = 1788;
}
);
unicode = 84;
},
{
glyphname = U;
kernLeft = O;
kernRight = O;
lastChange = "2025-03-15 21:37:46 +0000";
layers = (
{
anchors = (
{
name = bottom;
pos = (997,0);
},
{
name = ogonek;
pos = (1486,10);
},
{
name = top;
pos = (997,1408);
},
{
name = topright;
pos = (1882,1408);
}
);
layerId = m01;
shapes = (
{
closed = 1;
nodes = (
(1156,-30,ls),
(1661,-30,o),
(1882,193,o),
(1882,704,cs),
(1882,1334,ls),
(1882,1382,o),
(1856,1408,o),
(1807,1408,cs),
(1778,1408,ls),
(1729,1408,o),
(1703,1382,o),
(1703,1334,cs),
(1703,704,ls),
(1703,265,o),
(1562,119,o),
(1137,119,cs),
(857,119,ls),
(433,119,o),
(291,265,o),
(291,704,cs),
(291,1334,ls),
(291,1382,o),
(265,1408,o),
(216,1408,cs),
(187,1408,ls),
(138,1408,o),
(112,1382,o),
(112,1334,cs),
(112,704,ls),
(112,193,o),
(333,-30,o),
(838,-30,cs)
);
}
);
width = 1994;
},
{
anchors = (
{
name = bottom;
pos = (997,0);
},
{
name = ogonek;
pos = (1486,10);
},
{
name = top;
pos = (997,1408);
},
{
name = topright;
pos = (1882,1408);
}
);
layerId = m002;
shapes = (
{
closed = 1;
nodes = (
(1156,-30,ls),
(1661,-30,o),
(1882,193,o),
(1882,704,cs),
(1882,1334,ls),
(1882,1382,o),
(1856,1408,o),
(1807,1408,cs),
(1554,1408,ls),
(1506,1408,o),
(1486,1382,o),
(1486,1334,cs),
(1486,704,ls),
(1486,397,o),
(1399,294,o),
(1137,294,cs),
(857,294,ls),
(595,294,o),
(508,397,o),
(508,704,cs),
(508,1334,ls),
(508,1382,o),
(488,1408,o),
(440,1408,cs),
(187,1408,ls),
(138,1408,o),
(112,1382,o),
(112,1334,cs),
(112,704,ls),
(112,193,o),
(333,-30,o),
(838,-30,cs)
);
}
);
width = 1994;
}
);
unicode = 85;
},
{
glyphname = V;
kernLeft = V;
kernRight = V;
lastChange = "2025-03-15 21:38:04 +0000";
layers = (
{
anchors = (
{
name = bottom;
pos = (987,0);
},
{
name = top;
pos = (987,1408);
}
);
layerId = m01;
shapes = (
{
closed = 1;
nodes = (
(1045,0,ls),
(1086,0,o),
(1114,15,o),
(1135,51,cs),
(1897,1319,ls),
(1928,1371,o),
(1903,1408,o),
(1845,1408,cs),
(1821,1408,ls),
(1780,1408,o),
(1753,1393,o),
(1732,1357,cs),
(1003,144,l),
(971,144,l),
(242,1357,ls),
(221,1393,o),
(194,1408,o),
(153,1408,cs),
(129,1408,ls),
(71,1408,o),
(46,1371,o),
(77,1319,cs),
(839,51,ls),
(860,15,o),
(888,0,o),
(929,0,cs)
);
}
);
width = 1974;
},
{
anchors = (
{
name = bottom;
pos = (989,0);
},
{
name = top;
pos = (989,1408);
}
);
layerId = m002;
shapes = (
{
closed = 1;
nodes = (
(1180,0,ls),
(1222,0,o),
(1252,12,o),
(1271,50,cs),
(1902,1320,ls),
(1929,1375,o),
(1910,1408,o),
(1850,1408,cs),
(1608,1408,ls),
(1567,1408,o),
(1536,1394,o),
(1517,1357,cs),
(1004,324,l),
(974,324,l),
(461,1357,ls),
(443,1394,o),
(412,1408,o),
(370,1408,cs),
(129,1408,ls),
(69,1408,o),
(49,1375,o),
(76,1320,cs),
(707,50,ls),
(726,12,o),
(757,0,o),
(798,0,cs)
);
}
);
width = 1978;
}
);
unicode = 86;
},
{
glyphname = W;
kernLeft = W;
kernRight = W;
lastChange = "2025-03-15 21:38:18 +0000";
layers = (
{
anchors = (
{
name = bottom;
pos = (1542,0);
},
{
name = top;
pos = (1542,1408);
}
);
layerId = m01;
shapes = (
{
closed = 1;
nodes = (
(891,0,ls),
(932,0,o),
(957,15,o),
(974,51,cs),
(1542,1264,l),
(2110,51,ls),
(2127,15,o),
(2152,0,o),
(2193,0,cs),
(2309,0,ls),
(2350,0,o),
(2389,15,o),
(2406,51,cs),
(3000,1319,ls),
(3026,1375,o),
(3007,1408,o),
(2948,1408,cs),
(2930,1408,ls),
(2889,1408,o),
(2858,1393,o),
(2841,1357,cs),
(2273,144,l),
(2243,144,l),
(1675,1357,ls),
(1658,1393,o),
(1627,1408,o),
(1586,1408,cs),
(1498,1408,ls),
(1457,1408,o),
(1426,1393,o),
(1409,1357,cs),
(841,144,l),
(811,144,l),
(243,1357,ls),
(226,1393,o),
(194,1408,o),
(153,1408,cs),
(135,1408,ls),
(76,1408,o),
(58,1375,o),
(84,1319,cs),
(678,51,ls),
(695,15,o),
(734,0,o),
(775,0,cs)
);
}
);
width = 3083;
},
{
anchors = (
{
name = bottom;
pos = (1543,0);
},
{
name = top;
pos = (1543,1408);
}
);
layerId = m002;
shapes = (
{
closed = 1;
nodes = (
(1077,0,ls),
(1123,0,o),
(1152,20,o),
(1169,62,cs),
(1543,997,l),
(1917,62,ls),
(1934,20,o),
(1963,0,o),
(2009,0,cs),
(2413,0,ls),
(2459,0,o),
(2488,20,o),
(2505,62,cs),
(3006,1315,ls),
(3028,1370,o),
(3003,1408,o),
(2943,1408,cs),
(2723,1408,ls),
(2677,1408,o),
(2648,1388,o),
(2631,1346,cs),
(2222,324,l),
(2200,324,l),
(1791,1346,ls),
(1774,1388,o),
(1745,1408,o),
(1699,1408,cs),
(1387,1408,ls),
(1341,1408,o),
(1312,1388,o),
(1295,1346,cs),
(886,324,l),
(864,324,l),
(455,1346,ls),
(438,1388,o),
(409,1408,o),
(363,1408,cs),
(143,1408,ls),
(83,1408,o),
(58,1370,o),
(80,1315,cs),
(581,62,ls),
(598,20,o),
(627,0,o),
(673,0,cs)
);
}
);
width = 3086;
}
);
unicode = 87;
},
{
glyphname = X;
kernLeft = Z;
kernRight = Z;
lastChange = "2025-03-15 21:38:37 +0000";
layers = (
{
anchors = (
{
name = bottom;
pos = (993,0);
},
{
name = top;
pos = (993,1408);
}
);
layerId = m01;
shapes = (
{
closed = 1;
nodes = (
(180,0,ls),
(218,0,o),
(242,14,o),
(272,38,cs),
(1856,1317,ls),
(1907,1359,o),
(1884,1408,o),
(1818,1408,cs),
(1760,1408,ls),
(1722,1408,o),
(1698,1394,o),
(1668,1370,cs),
(84,91,ls),
(33,49,o),
(56,0,o),
(122,0,cs)
);
},
{
closed = 1;
nodes = (
(1714,38,ls),
(1744,14,o),
(1768,0,o),
(1806,0,cs),
(1864,0,ls),
(1930,0,o),
(1953,49,o),
(1902,91,cs),
(318,1370,ls),
(289,1394,o),
(264,1408,o),
(226,1408,cs),
(168,1408,ls),
(102,1408,o),
(79,1359,o),
(130,1317,cs)
);
}
);
width = 1986;
},
{
anchors = (
{
name = bottom;
pos = (992,0);
},
{
name = top;
pos = (992,1408);
}
);
layerId = m002;
shapes = (
{
closed = 1;
nodes = (
(452,0,ls),
(490,0,o),
(517,12,o),
(544,38,cs),
(1856,1325,ls),
(1903,1371,o),
(1884,1416,o),
(1818,1416,cs),
(1488,1416,ls),
(1450,1416,o),
(1423,1404,o),
(1396,1378,cs),
(84,91,ls),
(38,45,o),
(50,0,o),
(110,0,cs)
);
},
{
closed = 1;
nodes = (
(1451,38,ls),
(1478,12,o),
(1505,0,o),
(1544,0,cs),
(1886,0,ls),
(1945,0,o),
(1959,45,o),
(1911,91,cs),
(556,1378,ls),
(528,1404,o),
(502,1416,o),
(464,1416,cs),
(121,1416,ls),
(61,1416,o),
(48,1371,o),
(96,1325,cs)
);
}
);
width = 1996;
}
);
unicode = 88;
},
{
glyphname = Y;
kernLeft = V;
kernRight = V;
lastChange = "2025-03-15 21:38:52 +0000";
layers = (
{
anchors = (
{
name = bottom;
pos = (930,0);
},
{
name = top;
pos = (930,1408);
},
{
name = topleft;
pos = (12,1408);
}
);
layerId = m01;
shapes = (
{
closed = 1;
nodes = (
(943,0,ls),
(992,0,o),
(1018,26,o),
(1018,74,cs),
(1018,704,l),
(1721,1308,ls),
(1770,1350,o),
(1749,1408,o),
(1683,1408,cs),
(1641,1408,ls),
(1603,1408,o),
(1577,1394,o),
(1549,1370,cs),
(930,838,l),
(311,1370,ls),
(283,1394,o),
(257,1408,o),
(219,1408,cs),
(177,1408,ls),
(111,1408,o),
(90,1350,o),
(139,1308,cs),
(842,704,l),
(842,74,ls),
(842,26,o),
(868,0,o),
(917,0,cs)
);
}
);
width = 1860;
},
{
anchors = (
{
name = bottom;
pos = (933,0);
},
{
name = top;
pos = (933,1408);
},
{
name = topleft;
pos = (-8,1408);
}
);
layerId = m002;
shapes = (
{
closed = 1;
nodes = (
(1057,0,ls),
(1105,0,o),
(1131,26,o),
(1131,74,cs),
(1131,536,l),
(1731,1308,ls),
(1770,1358,o),
(1759,1408,o),
(1693,1408,cs),
(1439,1408,ls),
(1401,1408,o),
(1370,1399,o),
(1347,1370,cs),
(933,837,l),
(519,1370,ls),
(496,1399,o),
(465,1408,o),
(427,1408,cs),
(173,1408,ls),
(107,1408,o),
(96,1358,o),
(135,1308,cs),
(735,536,l),
(735,74,ls),
(735,26,o),
(761,0,o),
(809,0,cs)
);
}
);
width = 1866;
}
);
unicode = 89;
},
{
glyphname = Z;
kernLeft = Z;
kernRight = Z;
lastChange = "2025-03-15 21:39:03 +0000";
layers = (
{
anchors = (
{
name = bottom;
pos = (952,0);
},
{
name = center;
pos = (952,704);
},
{
name = top;
pos = (952,1408);
}
);
layerId = m01;
shapes = (
{
closed = 1;
nodes = (
(1725,0,ls),
(1765,0,o),
(1792,23,o),
(1792,64,cs),
(1792,80,ls),
(1792,121,o),
(1765,144,o),
(1725,144,cs),
(370,144,l),
(1748,1229,ls),
(1779,1254,o),
(1792,1281,o),
(1792,1313,cs),
(1792,1341,ls),
(1792,1382,o),
(1765,1408,o),
(1725,1408,cs),
(179,1408,ls),
(138,1408,o),
(112,1385,o),
(112,1344,cs),
(112,1328,ls),
(112,1287,o),
(138,1264,o),
(179,1264,cs),
(1534,1264,l),
(156,184,ls),
(125,159,o),
(112,127,o),
(112,95,cs),
(112,67,ls),
(112,26,o),
(138,0,o),
(179,0,cs)
);
}
);
width = 1904;
},
{
anchors = (
{
name = bottom;
pos = (952,0);
},
{
name = center;
pos = (952,704);
},
{
name = top;
pos = (952,1408);
}
);
layerId = m002;
shapes = (
{
closed = 1;
nodes = (
(1725,0,ls),
(1765,0,o),
(1792,26,o),
(1792,67,cs),
(1792,257,ls),
(1792,298,o),
(1765,324,o),
(1725,324,cs),
(728,324,l),
(1748,1049,ls),
(1779,1071,o),
(1792,1101,o),
(1792,1133,cs),
(1792,1341,ls),
(1792,1382,o),
(1765,1408,o),
(1725,1408,cs),
(179,1408,ls),
(138,1408,o),
(112,1382,o),
(112,1341,cs),
(112,1151,ls),
(112,1110,o),
(138,1084,o),
(179,1084,cs),
(1176,1084,l),
(156,359,ls),
(125,337,o),
(112,307,o),
(112,276,cs),
(112,67,ls),
(112,26,o),
(138,0,o),
(179,0,cs)
);
}
);
width = 1904;
}
);
unicode = 90;
},
{
glyphname = Saltillo;
kernLeft = H;
kernRight = H;
lastChange = "2025-03-15 22:10:05 +0000";
layers = (
{
layerId = m01;
shapes = (
{
closed = 1;
nodes = (
(191,441,ls),
(193,392,o),
(217,366,o),
(265,366,cs),
(282,366,ls),
(331,366,o),
(355,392,o),
(357,441,cs),
(394,1334,ls),
(396,1382,o),
(354,1408,o),
(306,1408,cs),
(242,1408,ls),
(194,1408,o),
(152,1382,o),
(154,1334,cs)
);
}
);
width = 548;
},
{
layerId = m002;
shapes = (
{
closed = 1;
nodes = (
(191,551,ls),
(193,502,o),
(217,476,o),
(265,476,cs),
(411,476,ls),
(459,476,o),
(483,502,o),
(485,551,cs),
(522,1385,ls),
(524,1433,o),
(482,1459,o),
(434,1459,cs),
(242,1459,ls),
(194,1459,o),
(152,1433,o),
(154,1385,cs)
);
}
);
width = 676;
}
);
unicode = 42891;
},
{
glyphname = a;
kernLeft = a;
kernRight = a;
lastChange = "2025-03-25 15:41:17 +0000";
layers = (
{
anchors = (
{
name = bottom;
pos = (720,0);
},
{
name = ogonek;
pos = (1302,10);
},
{
name = top;
pos = (720,1092);
}
);
layerId = m01;
shapes = (
{
closed = 1;
nodes = (
(1254,0,ls),
(1302,0,o),
(1328,25,o),
(1328,74,cs),
(1328,613,ls),
(1328,948,o),
(1172,1092,o),
(815,1092,cs),
(625,1092,ls),
(311,1092,o),
(162,1014,o),
(134,835,cs),
(127,785,o),
(154,757,o),
(203,757,cs),
(219,757,ls),
(251,757,o),
(285,781,o),
(294,827,cs),
(315,930,o),
(401,964,o),
(638,964,cs),
(802,964,ls),
(1068,964,o),
(1159,858,o),
(1168,532,c),
(1110,579,o),
(990,600,o),
(774,600,cs),
(626,600,ls),
(268,600,o),
(112,511,o),
(112,308,cs),
(112,278,ls),
(112,71,o),
(268,-20,o),
(626,-20,cs),
(774,-20,ls),
(940,-20,o),
(1059,10,o),
(1164,79,c),
(1164,27,o),
(1190,0,o),
(1239,0,cs)
);
},
{
closed = 1;
nodes = (
(364,108,o),
(272,151,o),
(272,279,cs),
(272,303,ls),
(272,430,o),
(364,472,o),
(639,472,cs),
(761,472,ls),
(1066,472,o),
(1168,430,o),
(1168,303,cs),
(1168,279,ls),
(1168,151,o),
(1066,108,o),
(761,108,cs),
(639,108,ls)
);
}
);
width = 1440;
},
{
anchors = (
{
name = bottom;
pos = (720,0);
},
{
name = ogonek;
pos = (1302,10);
},
{
name = top;
pos = (720,1092);
}
);
layerId = m002;
shapes = (
{
closed = 1;
nodes = (
(1254,0,ls),
(1302,0,o),
(1328,25,o),
(1328,74,cs),
(1328,610,ls),
(1328,947,o),
(1172,1094,o),
(815,1094,cs),
(625,1094,ls),
(309,1094,o),
(159,1009,o),
(134,815,cs),
(128,766,o),
(157,738,o),
(206,738,cs),
(427,738,ls),
(459,738,o),
(481,762,o),
(484,770,cs),
(496,796,o),
(535,805,o),
(638,805,cs),
(802,805,ls),
(916,805,o),
(957,767,o),
(968,652,c),
(908,671,o),
(859,677,o),
(774,677,cs),
(626,677,ls),
(268,677,o),
(112,575,o),
(112,342,cs),
(112,313,ls),
(112,81,o),
(268,-20,o),
(626,-20,cs),
(774,-20,ls),
(880,-20,o),
(951,-12,o),
(1006,7,c),
(1010,4,o),
(1025,0,o),
(1042,0,cs)
);
},
{
closed = 1;
nodes = (
(514,266,o),
(472,279,o),
(472,319,cs),
(472,336,ls),
(472,376,o),
(514,389,o),
(639,389,cs),
(761,389,ls),
(916,389,o),
(968,376,o),
(968,336,cs),
(968,319,ls),
(968,279,o),
(916,266,o),
(761,266,cs),
(639,266,ls)
);
}
);
width = 1440;
}
);
unicode = 97;
},
{
glyphname = c;
kernLeft = c;
kernRight = c;
lastChange = "2025-03-15 22:51:10 +0000";
layers = (
{
anchors = (
{
name = bottom;
pos = (722,-22);
},
{
name = top;
pos = (722,1094);
}
);
layerId = m01;
shapes = (
{
closed = 1;
nodes = (
(833,-20,ls),
(1176,-20,o),
(1338,58,o),
(1366,237,cs),
(1374,287,o),
(1349,315,o),
(1300,315,cs),
(1284,315,ls),
(1237,315,o),
(1216,290,o),
(1206,244,cs),
(1182,142,o),
(1086,108,o),
(820,108,cs),
(636,108,ls),
(342,108,o),
(244,212,o),
(244,524,cs),
(244,548,ls),
(244,860,o),
(342,964,o),
(636,964,cs),
(820,964,ls),
(1086,964,o),
(1182,930,o),
(1206,828,cs),
(1216,781,o),
(1234,757,o),
(1281,757,cs),
(1297,757,ls),
(1346,757,o),
(1374,785,o),
(1366,835,cs),
(1338,1014,o),
(1176,1092,o),
(833,1092,cs),
(623,1092,ls),
(248,1092,o),
(84,927,o),
(84,551,cs),
(84,521,ls),
(84,145,o),
(248,-20,o),
(623,-20,cs)
);
}
);
width = 1451;
},
{
anchors = (
{
name = bottom;
pos = (731,0);
},
{
name = top;
pos = (731,1092);
}
);
layerId = m002;
shapes = (
{
closed = 1;
nodes = (
(837,-20,ls),
(1152,-20,o),
(1312,90,o),
(1363,342,cs),
(1374,396,o),
(1343,428,o),
(1289,428,cs),
(1084,428,ls),
(1037,428,o),
(1014,404,o),
(994,359,cs),
(964,291,o),
(922,268,o),
(824,268,cs),
(640,268,ls),
(493,268,o),
(444,332,o),
(444,524,cs),
(444,548,ls),
(444,740,o),
(493,804,o),
(640,804,cs),
(824,804,ls),
(922,804,o),
(964,781,o),
(994,712,cs),
(1014,668,o),
(1037,644,o),
(1084,644,cs),
(1289,644,ls),
(1343,644,o),
(1374,676,o),
(1363,730,cs),
(1311,982,o),
(1151,1092,o),
(837,1092,cs),
(627,1092,ls),
(249,1092,o),
(84,927,o),
(84,551,cs),
(84,521,ls),
(84,145,o),
(249,-20,o),
(627,-20,cs)
);
}
);
width = 1449;
}
);
unicode = 99;
},
{
glyphname = e;
kernLeft = c;
kernRight = a;
lastChange = "2025-03-15 23:03:01 +0000";
layers = (
{
anchors = (
{
name = bottom;
pos = (725,0);
},
{
name = ogonek;
pos = (1070,10);
},
{
name = top;
pos = (725,1092);
}
);
layerId = m01;
shapes = (
{
closed = 1;
nodes = (
(819,-20,ls),
(1125,-20,o),
(1278,70,o),
(1322,276,cs),
(1331,314,o),
(1309,337,o),
(1271,337,cs),
(1220,337,ls),
(1183,337,o),
(1168,324,o),
(1160,286,cs),
(1131,153,o),
(1042,108,o),
(806,108,cs),
(622,108,ls),
(345,108,o),
(250,199,o),
(244,472,c),
(1288,472,ls),
(1323,472,o),
(1343,491,o),
(1344,524,cs),
(1344,524,l),
(1344,554,ls),
(1344,928,o),
(1184,1092,o),
(819,1092,cs),
(609,1092,ls),
(244,1092,o),
(84,927,o),
(84,551,cs),
(84,521,ls),
(84,145,o),
(244,-20,o),
(609,-20,cs)
);
},
{
closed = 1;
nodes = (
(250,873,o),
(345,964,o),
(622,964,cs),
(806,964,ls),
(1084,964,o),
(1178,873,o),
(1184,600,c),
(244,600,l)
);
}
);
width = 1449;
},
{
anchors = (
{
name = bottom;
pos = (725,0);
},
{
name = ogonek;
pos = (973,10);
},
{
name = top;
pos = (725,1092);
}
);
layerId = m002;
shapes = (
{
closed = 1;
nodes = (
(820,-20,ls),
(1096,-20,o),
(1250,58,o),
(1321,229,cs),
(1343,284,o),
(1312,320,o),
(1254,320,cs),
(1025,320,ls),
(985,320,o),
(961,302,o),
(924,284,cs),
(900,273,o),
(869,268,o),
(807,268,cs),
(623,268,ls),
(526,268,o),
(476,301,o),
(455,392,c),
(1260,392,ls),
(1310,392,o),
(1341,418,o),
(1343,468,cs),
(1344,521,l),
(1344,551,ls),
(1344,927,o),
(1185,1092,o),
(820,1092,cs),
(610,1092,ls),
(244,1092,o),
(84,927,o),
(84,551,cs),
(84,521,ls),
(84,145,o),
(244,-20,o),
(610,-20,cs)
);
},
{
closed = 1;
nodes = (
(476,771,o),
(526,804,o),
(623,804,cs),
(807,804,ls),
(903,804,o),
(953,770,o),
(973,680,c),
(455,680,l)
);
}
);
width = 1449;
}
);
unicode = 101;
},
{
glyphname = esh;
kernLeft = j;
kernRight = f;
lastChange = "2025-03-05 23:29:59 +0000";
layers = (
{
layerId = m01;
shapes = (
{
closed = 1;
nodes = (
(420,-464,o),
(584,-335,o),
(584,49,cs),
(584,895,ls),
(584,1191,o),
(656,1241,o),
(851,1245,cs),
(902,1246,o),
(929,1271,o),
(929,1312,cs),
(929,1344,ls),
(929,1386,o),
(902,1409,o),
(851,1409,cs),
(570,1409,o),
(406,1280,o),
(406,896,cs),
(406,50,ls),
(406,-246,o),
(334,-296,o),
(139,-301,cs),
(88,-302,o),
(61,-326,o),
(61,-368,cs),
(61,-399,ls),
(61,-441,o),
(88,-464,o),
(139,-464,cs)
);
}
);
width = 990;
},
{
layerId = m002;
shapes = (
{
closed = 1;
nodes = (
(531,-476,o),
(696,-347,o),
(696,37,cs),
(696,710,ls),
(696,1006,o),
(768,1056,o),
(851,1061,cs),
(902,1064,o),
(929,1086,o),
(929,1128,cs),
(929,1364,ls),
(929,1406,o),
(902,1429,o),
(851,1429,cs),
(459,1429,o),
(294,1300,o),
(294,916,cs),
(294,243,ls),
(294,-53,o),
(222,-103,o),
(139,-108,cs),
(88,-111,o),
(61,-133,o),
(61,-175,cs),
(61,-411,ls),
(61,-453,o),
(88,-476,o),
(139,-476,cs)
);
}
);
width = 990;
}
);
unicode = 643;
},
{
glyphname = f;
kernLeft = f;
kernRight = f;
lastChange = "2025-03-15 21:39:51 +0000";
layers = (
{
anchors = (
{
name = bottom;
pos = (364,0);
},
{
name = top;
pos = (364,1536);
}
);
layerId = m01;
shapes = (
{
closed = 1;
nodes = (
(372,1,ls),
(420,1,o),
(444,29,o),
(444,76,cs),
(444,944,ls),
(444,1292,o),
(557,1408,o),
(896,1408,cs),
(932,1408,o),
(952,1424,o),
(952,1460,cs),
(952,1483,ls),
(952,1519,o),
(932,1536,o),
(896,1536,cs),
(470,1536,o),
(284,1356,o),
(284,945,cs),
(284,74,ls),
(284,26,o),
(308,1,o),
(356,1,cs)
);
},
{
closed = 1;
nodes = (
(112,1000,ls),
(112,970,o),
(132,944,o),
(168,944,cs),
(896,944,ls),
(932,944,o),
(952,964,o),
(952,1000,cs),
(952,1016,ls),
(952,1052,o),
(932,1072,o),
(896,1072,cs),
(168,1072,ls),
(132,1072,o),
(112,1052,o),
(112,1016,cs)
);
}
);
width = 952;
},
{
anchors = (
{
name = bottom;
pos = (464,0);
},
{
name = top;
pos = (464,1536);
}
);
layerId = m002;
shapes = (
{
closed = 1;
nodes = (
(570,1,ls),
(617,1,o),
(644,29,o),
(644,76,cs),
(644,944,ls),
(644,1172,o),
(707,1248,o),
(896,1248,cs),
(932,1248,o),
(952,1268,o),
(952,1304,cs),
(952,1480,ls),
(952,1516,o),
(932,1536,o),
(896,1536,cs),
(470,1536,o),
(284,1356,o),
(284,945,cs),
(284,74,ls),
(284,26,o),
(310,1,o),
(358,1,cs)
);
},
{
closed = 1;
nodes = (
(112,844,ls),
(112,810,o),
(138,784,o),
(187,784,cs),
(887,784,ls),
(926,784,o),
(952,805,o),
(952,844,cs),
(952,1012,ls),
(952,1051,o),
(926,1072,o),
(887,1072,cs),
(187,1072,ls),
(138,1072,o),
(112,1046,o),
(112,1012,cs)
);
}
);
width = 952;
}
);
unicode = 102;
},
{
glyphname = g;
kernLeft = c;
kernRight = a;
lastChange = "2025-03-15 21:40:05 +0000";
layers = (
{
anchors = (
{
name = bottom;
pos = (756,-464);
},
{
name = top;
pos = (756,1092);
}
);
layerId = m01;
shapes = (
{
closed = 1;
nodes = (
(121,-149,o),
(93,-177,o),
(101,-226,cs),
(128,-405,o),
(293,-484,o),
(644,-484,cs),
(854,-484,ls),
(1232,-484,o),
(1397,-336,o),
(1397,1,cs),
(1397,997,ls),
(1397,1046,o),
(1373,1071,o),
(1325,1071,cs),
(1309,1071,ls),
(1262,1071,o),
(1237,1043,o),
(1237,996,cs),
(1237,2,ls),
(1237,-266,o),
(1138,-356,o),
(841,-356,cs),
(657,-356,ls),
(383,-356,o),
(284,-322,o),
(261,-219,cs),
(251,-173,o),
(233,-149,o),
(186,-149,cs),
(170,-149,ls)
);
},
{
pos = (1236,0);
ref = "_bowl-b";
scale = (-1,1);
}
);
width = 1509;
},
{
anchors = (
{
name = bottom;
pos = (756,-499);
},
{
name = top;
pos = (756,1094);
}
);
layerId = m002;
shapes = (
{
closed = 1;
nodes = (
(124,-87,o),
(96,-115,o),
(102,-165,cs),
(126,-398,o),
(292,-500,o),
(646,-500,cs),
(862,-500,ls),
(1234,-500,o),
(1396,-352,o),
(1396,-15,cs),
(1396,998,ls),
(1396,1047,o),
(1370,1072,o),
(1322,1072,cs),
(1110,1072,ls),
(1063,1072,o),
(1036,1044,o),
(1036,997,cs),
(1036,-14,ls),
(1036,-157,o),
(987,-205,o),
(841,-205,cs),
(657,-205,ls),
(516,-205,o),
(467,-193,o),
(462,-157,cs),
(454,-104,o),
(434,-87,o),
(385,-87,cs),
(173,-87,ls)
);
},
{
pos = (1036,0);
ref = "_bowl-b";
scale = (-1,1);
}
);
width = 1508;
}
);
unicode = 103;
},
{
glyphname = glottalstop;
kernLeft = V;
kernRight = V;
lastChange = "2025-03-15 23:09:10 +0000";
layers = (
{
layerId = m01;
shapes = (
{
closed = 1;
nodes = (
(1302,677,o),
(1459,755,o),
(1459,1028,cs),
(1459,1057,ls),
(1459,1330,o),
(1302,1408,o),
(980,1408,cs),
(660,1408,ls),
(372,1408,o),
(216,1346,o),
(186,1150,cs),
(178,1101,o),
(208,1073,o),
(258,1073,cs),
(273,1073,ls),
(320,1073,o),
(340,1097,o),
(351,1144,cs),
(375,1251,o),
(466,1274,o),
(673,1274,cs),
(967,1274,ls),
(1213,1274,o),
(1295,1238,o),
(1295,1055,cs),
(1295,1030,ls),
(1295,847,o),
(1213,811,o),
(1089,811,cs),
(981,811,ls),
(887,811,o),
(730,733,o),
(730,460,cs),
(730,412,o),
(756,386,o),
(805,386,cs),
(820,386,ls),
(868,386,o),
(894,412,o),
(894,457,cs),
(894,641,o),
(976,677,o),
(1024,677,cs),
(1145,677,ls)
);
}
);
width = 1564;
},
{
layerId = m002;
shapes = (
{
closed = 1;
nodes = (
(1235,647,o),
(1459,771,o),
(1459,1021,cs),
(1459,1051,ls),
(1459,1300,o),
(1232,1429,o),
(944,1429,cs),
(660,1429,ls),
(372,1429,o),
(216,1300,o),
(186,1104,cs),
(178,1055,o),
(208,1027,o),
(258,1027,cs),
(492,1027,ls),
(528,1027,o),
(542,1051,o),
(552,1087,cs),
(564,1133,o),
(667,1161,o),
(784,1161,cs),
(874,1161,ls),
(1008,1161,o),
(1090,1125,o),
(1090,1048,cs),
(1090,1024,ls),
(1090,956,o),
(1008,910,o),
(959,910,cs),
(885,910,ls),
(790,910,o),
(633,802,o),
(633,551,cs),
(633,505,o),
(660,484,o),
(708,484,cs),
(935,484,ls),
(981,484,o),
(1000,505,o),
(1004,551,cs),
(1008,592,o),
(1050,639,o),
(1093,641,cs),
(1118,642,ls)
);
}
);
width = 1564;
}
);
unicode = 660;
},
{
glyphname = idotless;
kernLeft = a;
kernRight = a;
lastChange = "2025-03-15 22:11:52 +0000";
layers = (
{
anchors = (
{
name = bottom;
pos = (192,0);
},
{
name = ogonek;
pos = (240,0);
},
{
name = top;
pos = (192,1072);
}
);
layerId = m01;
shapes = (
{
closed = 1;
nodes = (
(112,74,ls),
(112,26,o),
(136,0,o),
(185,0,cs),
(199,0,ls),
(248,0,o),
(272,26,o),
(272,74,cs),
(272,997,ls),
(272,1046,o),
(248,1072,o),
(199,1072,cs),
(185,1072,ls),
(136,1072,o),
(112,1046,o),
(112,997,cs)
);
}
);
width = 384;
},
{
anchors = (
{
name = bottom;
pos = (292,0);
},
{
name = ogonek;
pos = (408,0);
},
{
name = top;
pos = (292,1072);
}
);
layerId = m002;
shapes = (
{
closed = 1;
nodes = (
(112,74,ls),
(112,26,o),
(138,0,o),
(187,0,cs),
(397,0,ls),
(446,0,o),
(472,26,o),
(472,74,cs),
(472,997,ls),
(472,1046,o),
(446,1072,o),
(397,1072,cs),
(187,1072,ls),
(138,1072,o),
(112,1046,o),
(112,997,cs)
);
}
);
width = 584;
}
);
unicode = 305;
},
{
glyphname = jdotless;
kernLeft = j;
kernRight = a;
lastChange = "2025-03-21 22:26:05 +0000";
layers = (
{
anchors = (
{
name = bottom;
pos = (342,-464);
},
{
name = top;
pos = (342,1072);
}
);
layerId = m01;
shapes = (
{
closed = 1;
nodes = (
(302,-464,o),
(422,-316,o),
(422,23,cs),
(422,997,ls),
(422,1046,o),
(398,1072,o),
(349,1071,cs),
(335,1071,ls),
(287,1070,o),
(262,1043,o),
(262,996,cs),
(262,24,ls),
(262,-238,o),
(204,-328,o),
(28,-336,cs),
(-8,-338,o),
(-28,-356,o),
(-28,-392,cs),
(-28,-408,ls),
(-28,-445,o),
(-8,-464,o),
(28,-464,cs)
);
}
);
width = 590;
},
{
anchors = (
{
name = bottom;
pos = (435,-480);
},
{
name = top;
pos = (435,1072);
}
);
layerId = m002;
shapes = (
{
closed = 1;
nodes = (
(436,-491,o),
(615,-339,o),
(615,7,cs),
(615,997,ls),
(615,1046,o),
(589,1071,o),
(540,1071,cs),
(330,1071,ls),
(282,1071,o),
(255,1043,o),
(255,996,cs),
(255,176,ls),
(255,-99,o),
(198,-194,o),
(28,-203,cs),
(-8,-205,o),
(-28,-222,o),
(-28,-259,cs),
(-28,-435,ls),
(-28,-472,o),
(-8,-491,o),
(28,-491,cs)
);
}
);
width = 783;
}
);
unicode = 567;
},
{
glyphname = k;
kernLeft = l;
kernRight = z;
lastChange = "2025-03-15 21:40:25 +0000";
layers = (
{
anchors = (
{
name = bottom;
pos = (586,0);
},
{
name = top;
pos = (586,1408);
}
);
layerId = m01;
shapes = (
{
closed = 1;
nodes = (
(1125,0,ls),
(1179,0,o),
(1190,31,o),
(1146,68,cs),
(586,532,l),
(1124,1004,ls),
(1165,1040,o),
(1157,1072,o),
(1103,1072,cs),
(1029,1072,ls),
(1002,1072,o),
(979,1069,o),
(959,1051,cs),
(454,608,l),
(231,608,l),
(231,464,l),
(442,464,l),
(977,21,ls),
(998,4,o),
(1020,0,o),
(1046,0,cs)
);
},
{
pos = (20,0);
ref = "_stem-v-lowercase-CH";
}
);
width = 1173;
},
{
anchors = (
{
name = bottom;
pos = (758,0);
},
{
name = top;
pos = (758,1408);
}
);
layerId = m002;
shapes = (
{
closed = 1;
nodes = (
(1419,0,ls),
(1473,0,o),
(1482,34,o),
(1441,68,cs),
(884,536,l),
(1419,1004,ls),
(1460,1039,o),
(1451,1072,o),
(1397,1072,cs),
(1044,1072,ls),
(1017,1072,o),
(996,1070,o),
(974,1051,cs),
(550,680,l),
(295,680,l),
(295,392,l),
(551,392,l),
(993,21,ls),
(1013,4,o),
(1036,0,o),
(1063,0,cs)
);
},
{
pos = (20,0);
ref = "_stem-v-lowercase-CH";
}
);
width = 1467;
}
);
unicode = 107;
},
{
glyphname = o;
kernLeft = c;
kernRight = c;
lastChange = "2025-03-15 21:49:42 +0000";
layers = (
{
anchors = (
{
name = bottom;
pos = (748,0);
},
{
name = center;
pos = (748,536);
},
{
name = ogonek;
pos = (1052,10);
},
{
name = top;
pos = (748,1092);
},
{
name = topright;
pos = (1252,1072);
}
);
layerId = m01;
shapes = (
{
closed = 1;
nodes = (
(84,521,ls),
(84,145,o),
(254,-20,o),
(643,-20,cs),
(853,-20,ls),
(1242,-20,o),
(1412,145,o),
(1412,521,cs),
(1412,551,ls),
(1412,927,o),
(1242,1092,o),
(853,1092,cs),
(643,1092,ls),
(254,1092,o),
(84,927,o),
(84,551,cs)
);
},
{
closed = 1;
nodes = (
(244,860,o),
(347,964,o),
(656,964,cs),
(840,964,ls),
(1149,964,o),
(1252,860,o),
(1252,548,cs),
(1252,524,ls),
(1252,212,o),
(1149,108,o),
(840,108,cs),
(656,108,ls),
(347,108,o),
(244,212,o),
(244,524,cs),
(244,548,ls)
);
}
);
width = 1496;
},
{
anchors = (
{
name = bottom;
pos = (748,0);
},
{
name = center;
pos = (748,536);
},
{
name = ogonek;
pos = (1052,10);
},
{
name = top;
pos = (748,1092);
},
{
name = topright;
pos = (1252,1072);
}
);
layerId = m002;
shapes = (
{
closed = 1;
nodes = (
(84,521,ls),
(84,145,o),
(254,-20,o),
(644,-20,cs),
(854,-20,ls),
(1242,-20,o),
(1412,145,o),
(1412,521,cs),
(1412,551,ls),
(1412,927,o),
(1242,1092,o),
(854,1092,cs),
(644,1092,ls),
(254,1092,o),
(84,927,o),
(84,551,cs)
);
},
{
closed = 1;
nodes = (
(444,740,o),
(497,804,o),
(657,804,cs),
(841,804,ls),
(999,804,o),
(1052,740,o),
(1052,548,cs),
(1052,524,ls),
(1052,332,o),
(999,268,o),
(841,268,cs),
(657,268,ls),
(497,268,o),
(444,332,o),
(444,524,cs),
(444,548,ls)
);
}
);
width = 1496;
}
);
unicode = 111;
},
{
glyphname = thorn;
kernLeft = a;
kernRight = c;
lastChange = "2025-03-10 17:52:26 +0000";
layers = (
{
layerId = m01;
shapes = (
{
closed = 1;
nodes = (
(120,-262,ls),
(120,-310,o),
(143,-336,o),
(192,-336,cs),
(208,-336,ls),
(257,-336,o),
(280,-310,o),
(280,-262,cs),
(280,1334,ls),
(280,1382,o),
(257,1408,o),
(208,1408,cs),
(192,1408,ls),
(143,1408,o),
(120,1382,o),
(120,1334,cs)
);
},
{
pos = (280,0);
ref = "_bowl-b";
}
);
width = 1522;
},
{
layerId = m002;
shapes = (
{
closed = 1;
nodes = (
(120,-262,ls),
(120,-310,o),
(146,-336,o),
(195,-336,cs),
(405,-336,ls),
(454,-336,o),
(480,-310,o),
(480,-262,cs),
(480,1334,ls),
(480,1382,o),
(454,1408,o),
(405,1408,cs),
(195,1408,ls),
(146,1408,o),
(120,1382,o),
(120,1334,cs)
);
},
{
pos = (480,0);
ref = "_bowl-b";
}
);
width = 1522;
}
);
unicode = 254;
},
{
glyphname = r;
kernRight = r;
lastChange = "2025-03-25 15:40:06 +0000";
layers = (
{
anchors = (
{
name = bottom;
pos = (208,0);
},
{
name = top;
pos = (512,1072);
}
);
layerId = m01;
shapes = (
{
closed = 1;
nodes = (
(216,0,ls),
(265,0,o),
(288,26,o),
(288,74,cs),
(288,663,ls),
(288,869,o),
(414,938,o),
(792,938,cs),
(840,938,ls),
(879,938,o),
(896,955,o),
(896,994,cs),
(896,1016,ls),
(896,1055,o),
(879,1072,o),
(840,1072,cs),
(792,1072,ls),
(524,1072,o),
(371,1025,o),
(288,917,c),
(288,997,ls),
(288,1046,o),
(265,1072,o),
(216,1072,cs),
(200,1072,ls),
(152,1072,o),
(128,1046,o),
(128,997,cs),
(128,74,ls),
(128,26,o),
(152,0,o),
(200,0,cs)
);
}
);
width = 992;
},
{
anchors = (
{
name = bottom;
pos = (308,0);
},
{
name = top;
pos = (488,1072);
}
);
layerId = m002;
shapes = (
{
closed = 1;
nodes = (
(414,4,ls),
(462,4,o),
(488,30,o),
(488,78,cs),
(488,548,ls),
(488,725,o),
(565,784,o),
(795,784,cs),
(822,784,ls),
(870,784,o),
(896,796,o),
(896,845,cs),
(896,997,ls),
(896,1046,o),
(870,1072,o),
(822,1072,cs),
(795,1072,ls),
(653,1072,o),
(560,1050,o),
(488,1000,c),
(488,1000,ls),
(488,1049,o),
(462,1072,o),
(414,1072,cs),
(202,1072,ls),
(154,1072,o),
(128,1046,o),
(128,997,cs),
(128,78,ls),
(128,30,o),
(154,4,o),
(202,4,cs)
);
}
);
width = 992;
}
);
unicode = 114;
},
{
glyphname = s;
kernLeft = a;
kernRight = a;
lastChange = "2025-03-15 21:44:04 +0000";
layers = (
{
anchors = (
{
name = bottom;
pos = (799,0);
},
{
name = top;
pos = (799,1092);
}
);
layerId = m01;
shapes = (
{
closed = 1;
nodes = (
(896,-20,ls),
(1306,-20,o),
(1485,70,o),
(1485,277,cs),
(1485,311,ls),
(1485,507,o),
(1309,595,o),
(906,599,cs),
(706,601,ls),
(381,604,o),
(273,646,o),
(273,768,cs),
(273,792,ls),
(273,921,o),
(384,964,o),
(715,964,cs),
(899,964,ls),
(1197,964,o),
(1303,923,o),
(1325,798,cs),
(1333,752,o),
(1354,728,o),
(1400,728,cs),
(1416,728,ls),
(1463,728,o),
(1491,755,o),
(1485,805,cs),
(1458,1005,o),
(1284,1092,o),
(912,1092,cs),
(702,1092,ls),
(292,1092,o),
(113,1001,o),
(113,794,cs),
(113,768,ls),
(113,567,o),
(289,477,o),
(692,473,cs),
(892,471,ls),
(1217,468,o),
(1325,426,o),
(1325,304,cs),
(1325,280,ls),
(1325,151,o),
(1215,108,o),
(883,108,cs),
(699,108,ls),
(402,108,o),
(295,150,o),
(273,274,cs),
(264,320,o),
(244,344,o),
(197,344,cs),
(182,344,ls),
(135,344,o),
(107,317,o),
(113,267,cs),
(140,67,o),
(314,-20,o),
(686,-20,cs)
);
}
);
width = 1598;
},
{
anchors = (
{
name = bottom;
pos = (799,-22);
},
{
name = top;
pos = (799,1094);
}
);
layerId = m002;
shapes = (
{
closed = 1;
nodes = (
(897,-20,ls),
(1301,-20,o),
(1478,80,o),
(1478,308,cs),
(1478,335,ls),
(1478,570,o),
(1304,675,o),
(907,679,cs),
(707,681,ls),
(537,683,o),
(480,696,o),
(480,734,cs),
(480,752,ls),
(480,791,o),
(539,804,o),
(716,804,cs),
(900,804,ls),
(1015,804,o),
(1056,800,o),
(1081,788,cs),
(1118,770,o),
(1142,752,o),
(1182,752,cs),
(1411,752,ls),
(1469,752,o),
(1501,788,o),
(1478,843,cs),
(1407,1014,o),
(1253,1092,o),
(913,1092,cs),
(703,1092,ls),
(297,1092,o),
(120,992,o),
(120,764,cs),
(120,737,ls),
(120,502,o),
(294,397,o),
(693,393,cs),
(893,391,ls),
(1062,389,o),
(1118,376,o),
(1118,338,cs),
(1118,320,ls),
(1118,281,o),
(1060,268,o),
(884,268,cs),
(700,268,ls),
(583,268,o),
(542,272,o),
(517,284,cs),
(480,302,o),
(456,320,o),
(416,320,cs),
(187,320,ls),
(129,320,o),
(97,284,o),
(120,229,cs),
(191,58,o),
(345,-20,o),
(687,-20,cs)
);
}
);
width = 1598;
}
);
unicode = 115;
},
{
glyphname = germandbls;
kernLeft = f;
kernRight = O;
lastChange = "2025-03-15 23:17:00 +0000";
layers = (
{
anchors = (
{
name = bottom;
pos = (782,0);
},
{
name = top;
pos = (782,1536);
}
);
layerId = m01;
shapes = (
{
closed = 1;
nodes = (
(1013,0,ls),
(1339,0,o),
(1482,117,o),
(1482,383,cs),
(1482,413,ls),
(1482,574,o),
(1409,662,o),
(1243,704,c),
(1368,747,o),
(1422,842,o),
(1422,1016,cs),
(1422,1046,ls),
(1422,1312,o),
(1264,1428,o),
(902,1428,cs),
(692,1428,ls),
(288,1428,o),
(112,1281,o),
(112,945,cs),
(112,74,ls),
(112,26,o),
(136,0,o),
(185,1,cs),
(199,1,ls),
(247,2,o),
(272,29,o),
(272,76,cs),
(272,944,ls),
(272,1211,o),
(382,1300,o),
(710,1300,cs),
(884,1300,ls),
(1168,1300,o),
(1262,1236,o),
(1262,1043,cs),
(1262,1019,ls),
(1262,831,o),
(1200,768,o),
(1012,768,cs),
(815,768,ls),
(774,768,o),
(760,756,o),
(760,718,cs),
(760,695,ls),
(760,654,o),
(774,640,o),
(815,640,cs),
(1000,640,ls),
(1242,640,o),
(1322,583,o),
(1322,410,cs),
(1322,386,ls),
(1322,193,o),
(1242,128,o),
(1000,128,cs),
(528,128,ls),
(486,128,o),
(472,114,o),
(472,72,cs),
(472,56,ls),
(472,19,o),
(491,0,o),
(528,0,cs)
);
}
);
width = 1566;
},
{
anchors = (
{
name = bottom;
pos = (782,0);
},
{
name = top;
pos = (782,1536);
}
);
layerId = m002;
shapes = (
{
closed = 1;
nodes = (
(1013,0,ls),
(1339,0,o),
(1482,103,o),
(1482,337,cs),
(1482,367,ls),
(1482,527,o),
(1421,630,o),
(1280,704,c),
(1379,778,o),
(1422,883,o),
(1422,1051,cs),
(1422,1081,ls),
(1422,1322,o),
(1264,1428,o),
(902,1428,cs),
(692,1428,ls),
(288,1428,o),
(112,1281,o),
(112,945,cs),
(112,74,ls),
(112,26,o),
(138,1,o),
(187,1,cs),
(397,1,ls),
(445,1,o),
(472,29,o),
(472,76,cs),
(472,944,ls),
(472,1092,o),
(553,1140,o),
(705,1140,cs),
(889,1140,ls),
(1009,1140,o),
(1062,1100,o),
(1062,1007,cs),
(1062,981,ls),
(1062,881,o),
(1007,848,o),
(842,848,cs),
(815,848,ls),
(779,848,o),
(760,831,o),
(760,793,cs),
(760,615,ls),
(760,578,o),
(779,560,o),
(815,560,cs),
(981,560,ls),
(1031,560,o),
(1122,512,o),
(1122,437,cs),
(1122,411,ls),
(1122,336,o),
(1031,288,o),
(981,288,cs),
(655,288,ls),
(618,288,o),
(600,269,o),
(600,233,cs),
(600,56,ls),
(600,20,o),
(618,0,o),
(655,0,cs)
);
}
);
width = 1566;
}
);
unicode = 223;
},
{
glyphname = t;
kernLeft = O;
kernRight = e;
lastChange = "2025-03-15 21:44:20 +0000";
layers = (
{
anchors = (
{
name = bottom;
pos = (683,0);
},
{
name = center;
pos = (407,704);
},
{
name = top;
pos = (683,1408);
},
{
name = topright;
pos = (1151,1536);
}
);
layerId = m01;
shapes = (
{
closed = 1;
nodes = (
(788,0,ls),
(1064,0,o),
(1192,121,o),
(1209,397,cs),
(1212,448,o),
(1186,476,o),
(1138,476,cs),
(1123,476,ls),
(1075,476,o),
(1052,449,o),
(1049,399,cs),
(1037,200,o),
(969,134,o),
(775,134,cs),
(591,134,ls),
(383,134,o),
(314,205,o),
(314,417,cs),
(314,944,l),
(1095,944,ls),
(1131,944,o),
(1151,964,o),
(1151,1000,cs),
(1151,1016,ls),
(1151,1052,o),
(1131,1072,o),
(1095,1072,cs),
(314,1072,l),
(314,1334,ls),
(314,1382,o),
(289,1408,o),
(241,1408,cs),
(226,1408,ls),
(178,1408,o),
(154,1382,o),
(154,1334,cs),
(154,418,ls),
(154,127,o),
(283,0,o),
(578,0,cs)
);
}
);
width = 1337;
},
{
anchors = (
{
name = bottom;
pos = (681,0);
},
{
name = center;
pos = (407,630);
},
{
name = top;
pos = (683,1408);
},
{
name = topright;
pos = (1152,1566);
}
);
layerId = m002;
shapes = (
{
closed = 1;
nodes = (
(786,0,ls),
(1055,0,o),
(1183,121,o),
(1207,399,cs),
(1212,450,o),
(1184,476,o),
(1136,476,cs),
(924,476,ls),
(872,476,o),
(852,459,o),
(847,406,cs),
(838,318,o),
(819,288,o),
(773,288,cs),
(589,288,ls),
(533,288,o),
(514,329,o),
(514,450,cs),
(514,784,l),
(1078,784,ls),
(1126,784,o),
(1152,810,o),
(1152,858,cs),
(1152,998,ls),
(1152,1046,o),
(1126,1072,o),
(1078,1072,cs),
(514,1072,l),
(514,1334,ls),
(514,1382,o),
(488,1408,o),
(440,1408,cs),
(228,1408,ls),
(180,1408,o),
(154,1382,o),
(154,1334,cs),
(154,418,ls),
(154,127,o),
(282,0,o),
(576,0,cs)
);
}
);
width = 1336;
}
);
unicode = 116;
},
{
glyphname = tbar;
kernLeft = O;
kernRight = e;
lastChange = "2025-03-08 23:37:31 +0000";
layers = (
{
layerId = m01;
shapes = (
{
closed = 1;
nodes = (
(634,576,ls),
(670,576,o),
(690,596,o),
(690,632,cs),
(690,648,ls),
(690,684,o),
(670,704,o),
(634,704,cs),
(56,704,ls),
(20,704,o),
(0,684,o),
(0,648,cs),
(0,632,ls),
(0,596,o),
(20,576,o),
(56,576,cs)
);
},
{
ref = t;
}
);
width = 1355;
},
{
layerId = m002;
shapes = (
{
closed = 1;
nodes = (
(616,416,ls),
(664,416,o),
(690,442,o),
(690,490,cs),
(690,630,ls),
(690,678,o),
(664,704,o),
(616,704,cs),
(74,704,ls),
(26,704,o),
(0,678,o),
(0,630,cs),
(0,490,ls),
(0,442,o),
(26,416,o),
(74,416,cs)
);
},
{
ref = t;
}
);
width = 1354;
}
);
unicode = 359;
},
{
glyphname = ubar;
kernLeft = a;
kernRight = a;
lastChange = "2025-03-02 15:42:17 +0000";
layers = (
{
layerId = m01;
shapes = (
{
alignment = -1;
ref = u;
},
{
closed = 1;
nodes = (
(0,510,ls),
(0,474,o),
(20,454,o),
(56,454,cs),
(1446,454,ls),
(1482,454,o),
(1502,474,o),
(1502,510,cs),
(1502,562,ls),
(1502,598,o),
(1482,618,o),
(1446,618,cs),
(56,618,ls),
(20,618,o),
(0,598,o),
(0,562,cs)
);
}
);
width = 1502;
},
{
layerId = m002;
shapes = (
{
alignment = -1;
ref = u;
},
{
closed = 1;
nodes = (
(0,501,ls),
(0,464,o),
(20,445,o),
(56,445,cs),
(1433,445,ls),
(1469,445,o),
(1489,464,o),
(1489,501,cs),
(1489,724,ls),
(1489,760,o),
(1469,780,o),
(1433,780,cs),
(56,780,ls),
(20,780,o),
(0,760,o),
(0,724,cs)
);
}
);
width = 1489;
}
);
unicode = 649;
},
{
glyphname = v;
kernLeft = v;
kernRight = v;
lastChange = "2025-03-25 15:43:08 +0000";
layers = (
{
anchors = (
{
name = bottom;
pos = (741,0);
},
{
name = top;
pos = (741,1072);
}
);
layerId = m01;
shapes = (
{
closed = 1;
nodes = (
(801,0,ls),
(828,0,o),
(845,10,o),
(859,34,cs),
(1417,1013,ls),
(1437,1048,o),
(1423,1072,o),
(1390,1072,cs),
(1324,1072,ls),
(1297,1072,o),
(1279,1062,o),
(1265,1037,cs),
(741,128,l),
(217,1037,ls),
(203,1062,o),
(185,1072,o),
(158,1072,cs),
(92,1072,ls),
(58,1072,o),
(45,1048,o),
(65,1013,cs),
(623,34,ls),
(637,10,o),
(654,0,o),
(681,0,cs)
);
}
);
width = 1482;
},
{
anchors = (
{
name = bottom;
pos = (743,0);
},
{
name = top;
pos = (743,1072);
}
);
layerId = m002;
shapes = (
{
closed = 1;
nodes = (
(925,0,ls),
(952,0,o),
(972,10,o),
(983,34,cs),
(1421,1013,ls),
(1437,1048,o),
(1427,1072,o),
(1394,1072,cs),
(1135,1072,ls),
(1108,1072,o),
(1089,1063,o),
(1077,1037,cs),
(742,288,l),
(407,1037,ls),
(395,1063,o),
(376,1072,o),
(349,1072,cs),
(90,1072,ls),
(57,1072,o),
(47,1048,o),
(63,1013,cs),
(501,34,ls),
(512,10,o),
(532,0,o),
(559,0,cs)
);
}
);
width = 1484;
}
);
unicode = 118;
},
{
glyphname = w;
kernLeft = w;
kernRight = w;
lastChange = "2025-03-15 21:44:50 +0000";
layers = (
{
anchors = (
{
name = bottom;
pos = (612,0);
},
{
name = top;
pos = (612,1072);
}
);
layerId = m01;
shapes = (
{
closed = 1;
nodes = (
(647,0,ls),
(674,0,o),
(692,11,o),
(703,39,cs),
(1070,944,l),
(1437,39,ls),
(1448,11,o),
(1464,0,o),
(1492,0,cs),
(1622,0,ls),
(1650,0,o),
(1666,11,o),
(1677,39,cs),
(2068,1004,ls),
(2086,1047,o),
(2074,1072,o),
(2034,1072,cs),
(1984,1072,ls),
(1957,1072,o),
(1935,1061,o),
(1924,1033,cs),
(1557,128,l),
(1557,128,l),
(1190,1033,ls),
(1179,1061,o),
(1158,1072,o),
(1131,1072,cs),
(1009,1072,ls),
(982,1072,o),
(961,1061,o),
(950,1033,cs),
(583,128,l),
(583,128,l),
(216,1033,ls),
(205,1061,o),
(183,1072,o),
(156,1072,cs),
(106,1072,ls),
(66,1072,o),
(54,1047,o),
(72,1004,cs),
(463,39,ls),
(474,11,o),
(491,0,o),
(518,0,cs)
);
}
);
width = 2140;
},
{
anchors = (
{
name = bottom;
pos = (1066,0);
},
{
name = top;
pos = (1066,1072);
}
);
layerId = m002;
shapes = (
{
closed = 1;
nodes = (
(781,0,ls),
(828,0,o),
(859,22,o),
(871,68,cs),
(1066,784,l),
(1261,68,ls),
(1273,22,o),
(1304,0,o),
(1351,0,cs),
(1727,0,ls),
(1774,0,o),
(1804,22,o),
(1816,68,cs),
(2064,983,ls),
(2079,1039,o),
(2052,1072,o),
(1995,1072,cs),
(1824,1072,ls),
(1777,1072,o),
(1746,1050,o),
(1734,1004,cs),
(1539,288,l),
(1539,288,l),
(1344,1004,ls),
(1332,1050,o),
(1301,1072,o),
(1254,1072,cs),
(878,1072,ls),
(831,1072,o),
(800,1050,o),
(788,1004,cs),
(593,288,l),
(593,288,l),
(398,1004,ls),
(386,1050,o),
(355,1072,o),
(308,1072,cs),
(137,1072,ls),
(80,1072,o),
(53,1039,o),
(68,983,cs),
(316,68,ls),
(328,22,o),
(358,0,o),
(405,0,cs)
);
}
);
width = 2132;
}
);
unicode = 119;
},
{
glyphname = x;
kernLeft = z;
kernRight = z;
lastChange = "2025-03-15 21:45:04 +0000";
layers = (
{
anchors = (
{
name = bottom;
pos = (743,0);
},
{
name = top;
pos = (743,1072);
}
);
layerId = m01;
shapes = (
{
closed = 1;
nodes = (
(1211,29,ls),
(1233,9,o),
(1252,0,o),
(1280,0,cs),
(1355,0,ls),
(1404,0,o),
(1418,35,o),
(1381,69,cs),
(303,1043,ls),
(281,1063,o),
(262,1072,o),
(234,1072,cs),
(160,1072,ls),
(111,1072,o),
(96,1037,o),
(133,1003,cs)
);
},
{
closed = 1;
nodes = (
(206,0,ls),
(234,0,o),
(253,9,o),
(275,29,cs),
(1353,1003,ls),
(1390,1037,o),
(1374,1072,o),
(1324,1072,cs),
(1252,1072,ls),
(1224,1072,o),
(1205,1063,o),
(1183,1043,cs),
(105,69,ls),
(68,35,o),
(82,0,o),
(131,0,cs)
);
}
);
width = 1486;
},
{
anchors = (
{
name = bottom;
pos = (745,0);
},
{
name = top;
pos = (745,1072);
}
);
layerId = m002;
shapes = (
{
closed = 1;
nodes = (
(991,29,ls),
(1010,7,o),
(1032,0,o),
(1060,0,cs),
(1361,0,ls),
(1410,0,o),
(1420,32,o),
(1387,69,cs),
(528,1043,ls),
(509,1064,o),
(487,1072,o),
(459,1072,cs),
(158,1072,ls),
(109,1072,o),
(98,1040,o),
(130,1003,cs)
);
},
{
closed = 1;
nodes = (
(430,0,ls),
(459,0,o),
(481,7,o),
(500,29,cs),
(1360,1003,ls),
(1393,1040,o),
(1381,1072,o),
(1331,1072,cs),
(1032,1072,ls),
(1004,1072,o),
(981,1064,o),
(963,1043,cs),
(103,69,ls),
(70,32,o),
(81,0,o),
(129,0,cs)
);
}
);
width = 1490;
}
);
unicode = 120;
},
{
glyphname = y;
kernLeft = v;
kernRight = w;
lastChange = "2025-03-15 21:45:24 +0000";
layers = (
{
anchors = (
{
name = bottom;
pos = (727,-240);
},
{
name = top;
pos = (727,1072);
}
);
layerId = m01;
shapes = (
{
closed = 1;
nodes = (
(456,-464,o),
(634,-324,o),
(839,34,cs),
(1403,1013,ls),
(1423,1047,o),
(1410,1072,o),
(1376,1072,cs),
(1309,1072,ls),
(1282,1072,o),
(1266,1062,o),
(1251,1037,cs),
(727,128,l),
(203,1037,ls),
(189,1062,o),
(172,1072,o),
(145,1072,cs),
(78,1072,ls),
(44,1072,o),
(31,1048,o),
(51,1013,cs),
(615,34,ls),
(629,9,o),
(642,1,o),
(654,1,cs),
(654,1,o),
(654,1,o),
(654,1,c),
(505,-259,o),
(406,-331,o),
(234,-336,cs),
(198,-337,o),
(178,-356,o),
(178,-392,cs),
(178,-408,ls),
(178,-444,o),
(198,-464,o),
(234,-464,cs)
);
}
);
width = 1468;
},
{
anchors = (
{
name = bottom;
pos = (737,-344);
},
{
name = top;
pos = (737,1072);
}
);
layerId = m002;
shapes = (
{
closed = 1;
nodes = (
(595,-480,o),
(825,-324,o),
(985,34,cs),
(1423,1013,ls),
(1439,1049,o),
(1429,1072,o),
(1396,1072,cs),
(1137,1072,ls),
(1110,1072,o),
(1091,1064,o),
(1079,1037,cs),
(736,292,l),
(393,1037,ls),
(380,1064,o),
(361,1072,o),
(334,1072,cs),
(76,1072,ls),
(43,1072,o),
(33,1049,o),
(49,1013,cs),
(487,34,ls),
(498,9,o),
(519,0,o),
(546,0,cs),
(546,0,o),
(615,0,o),
(615,0,c),
(553,-138,o),
(457,-186,o),
(230,-192,cs),
(194,-193,o),
(175,-211,o),
(175,-248,cs),
(175,-425,ls),
(175,-461,o),
(194,-480,o),
(230,-480,cs)
);
}
);
width = 1486;
}
);
unicode = 121;
},
{
glyphname = z;
kernLeft = z;
kernRight = z;
lastChange = "2025-03-15 21:45:35 +0000";
layers = (
{
anchors = (
{
name = bottom;
pos = (684,0);
},
{
name = center;
pos = (684,536);
},
{
name = top;
pos = (684,1072);
}
);
layerId = m01;
shapes = (
{
closed = 1;
nodes = (
(1199,0,ls),
(1235,0,o),
(1255,20,o),
(1255,56,cs),
(1255,72,ls),
(1255,108,o),
(1235,128,o),
(1199,128,cs),
(339,128,l),
(1211,915,ls),
(1240,942,o),
(1256,963,o),
(1256,1000,cs),
(1256,1016,ls),
(1256,1052,o),
(1236,1072,o),
(1200,1072,cs),
(169,1072,ls),
(133,1072,o),
(113,1052,o),
(113,1016,cs),
(113,1000,ls),
(113,963,o),
(133,944,o),
(169,944,cs),
(1028,944,l),
(157,157,ls),
(128,130,o),
(112,108,o),
(112,72,cs),
(112,56,ls),
(112,20,o),
(132,0,o),
(168,0,cs)
);
}
);
width = 1368;
},
{
anchors = (
{
name = bottom;
pos = (684,0);
},
{
name = center;
pos = (684,536);
},
{
name = top;
pos = (684,1072);
}
);
layerId = m002;
shapes = (
{
closed = 1;
nodes = (
(1198,0,ls),
(1235,0,o),
(1255,20,o),
(1255,56,cs),
(1255,233,ls),
(1255,269,o),
(1235,288,o),
(1198,288,cs),
(638,288,l),
(1211,761,ls),
(1243,787,o),
(1256,804,o),
(1256,840,cs),
(1256,1016,ls),
(1256,1052,o),
(1236,1072,o),
(1199,1072,cs),
(169,1072,ls),
(133,1072,o),
(113,1052,o),
(113,1016,cs),
(113,840,ls),
(113,804,o),
(133,784,o),
(170,784,cs),
(730,784,l),
(157,311,ls),
(125,285,o),
(112,268,o),
(112,232,cs),
(112,56,ls),
(112,20,o),
(132,0,o),
(169,0,cs)
);
}
);
width = 1368;
}
);
unicode = 122;
},
{
glyphname = ordfeminine;
lastChange = "2025-03-21 22:20:16 +0000";
layers = (
{
layerId = m01;
shapes = (
{
closed = 1;
nodes = (
(1038,556,ls),
(1078,556,o),
(1100,578,o),
(1100,619,cs),
(1100,1012,ls),
(1100,1308,o),
(963,1438,o),
(651,1438,cs),
(497,1438,ls),
(227,1438,o),
(99,1371,o),
(76,1218,cs),
(70,1176,o),
(95,1152,o),
(137,1152,cs),
(160,1152,ls),
(200,1152,o),
(227,1173,o),
(236,1211,cs),
(250,1285,o),
(320,1310,o),
(514,1310,cs),
(634,1310,ls),
(862,1310,o),
(940,1235,o),
(940,1011,cs),
(940,621,ls),
(940,581,o),
(963,556,o),
(1003,556,cs)
);
},
{
closed = 1;
nodes = (
(622,536,ls),
(899,536,o),
(1020,613,o),
(1020,789,cs),
(1020,817,ls),
(1020,992,o),
(899,1069,o),
(622,1069,cs),
(502,1069,ls),
(192,1069,o),
(56,992,o),
(56,817,cs),
(56,789,ls),
(56,613,o),
(192,536,o),
(502,536,cs)
);
},
{
closed = 1;
nodes = (
(290,664,o),
(216,696,o),
(216,791,cs),
(216,815,ls),
(216,910,o),
(290,941,o),
(512,941,cs),
(612,941,ls),
(858,941,o),
(940,910,o),
(940,815,cs),
(940,791,ls),
(940,696,o),
(858,664,o),
(612,664,cs),
(512,664,ls)
);
}
);
width = 1156;
},
{
layerId = m002;
shapes = (
{
closed = 1;
nodes = (
(1037,556,ls),
(1078,556,o),
(1100,577,o),
(1100,618,cs),
(1100,977,ls),
(1100,1298,o),
(963,1438,o),
(651,1438,cs),
(497,1438,ls),
(227,1438,o),
(99,1372,o),
(76,1220,cs),
(69,1179,o),
(95,1154,o),
(136,1154,cs),
(316,1154,ls),
(347,1154,o),
(362,1159,o),
(365,1172,cs),
(367,1182,o),
(416,1186,o),
(528,1186,cs),
(620,1186,ls),
(754,1186,o),
(812,1122,o),
(812,976,cs),
(812,620,ls),
(812,580,o),
(834,556,o),
(874,556,cs)
);
},
{
closed = 1;
nodes = (
(622,536,ls),
(854,536,o),
(956,620,o),
(956,811,cs),
(956,820,ls),
(956,1011,o),
(854,1095,o),
(622,1095,cs),
(502,1095,ls),
(192,1095,o),
(56,1011,o),
(56,820,cs),
(56,811,ls),
(56,620,o),
(192,536,o),
(502,536,cs)
);
},
{
closed = 1;
nodes = (
(359,788,o),
(308,797,o),
(308,823,cs),
(308,843,ls),
(308,870,o),
(359,879,o),
(512,879,cs),
(612,879,ls),
(762,879,o),
(812,870,o),
(812,843,cs),
(812,823,ls),
(812,797,o),
(762,788,o),
(612,788,cs),
(512,788,ls)
);
}
);
width = 1156;
}
);
unicode = 170;
},
{
glyphname = ordmasculine;
lastChange = "2025-03-21 22:19:08 +0000";
layers = (
{
layerId = m01;
shapes = (
{
closed = 1;
nodes = (
(56,973,ls),
(56,669,o),
(189,536,o),
(493,536,cs),
(663,536,ls),
(967,536,o),
(1100,669,o),
(1100,973,cs),
(1100,1001,ls),
(1100,1305,o),
(967,1438,o),
(663,1438,cs),
(493,1438,ls),
(189,1438,o),
(56,1305,o),
(56,1001,cs)
);
},
{
closed = 1;
nodes = (
(216,1232,o),
(288,1310,o),
(503,1310,cs),
(653,1310,ls),
(868,1310,o),
(940,1232,o),
(940,996,cs),
(940,976,ls),
(940,742,o),
(868,664,o),
(653,664,cs),
(503,664,ls),
(288,664,o),
(216,742,o),
(216,976,cs),
(216,996,ls)
);
}
);
width = 1156;
},
{
layerId = m002;
shapes = (
{
closed = 1;
nodes = (
(56,959,ls),
(56,654,o),
(189,521,o),
(493,521,cs),
(663,521,ls),
(967,521,o),
(1100,654,o),
(1100,959,cs),
(1100,983,ls),
(1100,1289,o),
(967,1423,o),
(663,1423,cs),
(493,1423,ls),
(189,1423,o),
(56,1289,o),
(56,983,cs)
);
},
{
closed = 1;
nodes = (
(343,1114,o),
(393,1158,o),
(543,1158,cs),
(613,1158,ls),
(762,1158,o),
(812,1114,o),
(812,982,cs),
(812,961,ls),
(812,829,o),
(762,785,o),
(613,785,cs),
(543,785,ls),
(393,785,o),
(343,829,o),
(343,961,cs),
(343,982,ls)
);
}
);
width = 1156;
}
);
unicode = 186;
},
{
glyphname = Delta;
kernLeft = A;
kernRight = A;
lastChange = "2025-03-15 21:55:09 +0000";
layers = (
{
layerId = m01;
shapes = (
{
closed = 1;
nodes = (
(853,1408,o),
(826,1393,o),
(805,1357,cs),
(61,89,ls),
(31,37,o),
(53,0,o),
(112,0,cs),
(1856,0,ls),
(1914,0,o),
(1937,37,o),
(1907,89,cs),
(1163,1357,ls),
(1142,1393,o),
(1115,1408,o),
(1074,1408,cs),
(894,1408,ls)
);
},
{
closed = 1;
nodes = (
(954,1264,l),
(1014,1264,l),
(1671,144,l),
(297,144,l)
);
}
);
width = 1968;
},
{
layerId = m002;
shapes = (
{
closed = 1;
nodes = (
(736,1408,o),
(705,1394,o),
(687,1357,cs),
(59,89,ls),
(33,37,o),
(52,0,o),
(111,0,cs),
(1858,0,ls),
(1917,0,o),
(1937,37,o),
(1911,89,cs),
(1282,1357,ls),
(1264,1394,o),
(1234,1408,o),
(1192,1408,cs),
(778,1408,ls)
);
},
{
closed = 1;
nodes = (
(955,1084,l),
(1015,1084,l),
(1392,324,l),
(578,324,l)
);
}
);
width = 1970;
}
);
unicode = 916;
},
{
glyphname = Theta;
kernLeft = O;
kernRight = O;
lastChange = "2025-03-15 21:56:38 +0000";
layers = (
{
layerId = m01;
shapes = (
{
ref = O;
},
{
closed = 1;
nodes = (
(448,696,ls),
(448,656,o),
(474,632,o),
(515,632,cs),
(1465,632,ls),
(1506,632,o),
(1532,656,o),
(1532,696,cs),
(1532,712,ls),
(1532,753,o),
(1506,776,o),
(1465,776,cs),
(515,776,ls),
(474,776,o),
(448,753,o),
(448,712,cs)
);
}
);
width = 1980;
},
{
layerId = m002;
shapes = (
{
ref = O;
},
{
closed = 1;
nodes = (
(454,603,ls),
(454,566,o),
(473,547,o),
(509,547,cs),
(1471,547,ls),
(1507,547,o),
(1526,566,o),
(1526,603,cs),
(1526,806,ls),
(1526,842,o),
(1507,861,o),
(1471,861,cs),
(509,861,ls),
(473,861,o),
(454,842,o),
(454,806,cs)
);
}
);
width = 1980;
}
);
unicode = 920;
},
{
glyphname = Xi;
kernLeft = Z;
kernRight = Z;
lastChange = "2025-03-15 21:57:42 +0000";
layers = (
{
layerId = m01;
shapes = (
{
closed = 1;
nodes = (
(1580,1264,ls),
(1617,1264,o),
(1636,1287,o),
(1636,1328,cs),
(1636,1344,ls),
(1636,1385,o),
(1617,1408,o),
(1580,1408,cs),
(132,1408,ls),
(95,1408,o),
(76,1385,o),
(76,1344,cs),
(76,1328,ls),
(76,1287,o),
(95,1264,o),
(132,1264,cs)
);
},
{
closed = 1;
nodes = (
(1580,0,ls),
(1617,0,o),
(1636,23,o),
(1636,64,cs),
(1636,80,ls),
(1636,121,o),
(1617,144,o),
(1580,144,cs),
(132,144,ls),
(95,144,o),
(76,121,o),
(76,80,cs),
(76,64,ls),
(76,23,o),
(95,0,o),
(132,0,cs)
);
},
{
closed = 1;
nodes = (
(1430,634,ls),
(1467,634,o),
(1486,657,o),
(1486,698,cs),
(1486,714,ls),
(1486,755,o),
(1467,778,o),
(1430,778,cs),
(282,778,ls),
(245,778,o),
(226,755,o),
(226,714,cs),
(226,698,ls),
(226,657,o),
(245,634,o),
(282,634,cs)
);
}
);
width = 1712;
},
{
layerId = m002;
shapes = (
{
closed = 1;
nodes = (
(1568,1061,ls),
(1605,1061,o),
(1624,1080,o),
(1624,1117,cs),
(1624,1373,ls),
(1624,1410,o),
(1605,1429,o),
(1568,1429,cs),
(132,1429,ls),
(95,1429,o),
(76,1410,o),
(76,1373,cs),
(76,1117,ls),
(76,1080,o),
(95,1061,o),
(132,1061,cs)
);
},
{
closed = 1;
nodes = (
(1568,0,ls),
(1605,0,o),
(1624,20,o),
(1624,56,cs),
(1624,313,ls),
(1624,349,o),
(1605,368,o),
(1568,368,cs),
(132,368,ls),
(95,368,o),
(76,349,o),
(76,313,cs),
(76,56,ls),
(76,20,o),
(95,0,o),
(132,0,cs)
);
},
{
closed = 1;
nodes = (
(1420,530,ls),
(1456,530,o),
(1475,550,o),
(1475,586,cs),
(1475,843,ls),
(1475,879,o),
(1456,899,o),
(1420,899,cs),
(281,899,ls),
(244,899,o),
(225,879,o),
(225,843,cs),
(225,586,ls),
(225,550,o),
(244,530,o),
(281,530,cs)
);
}
);
width = 1700;
}
);
unicode = 926;
},
{
glyphname = Pi;
kernLeft = H;
kernRight = H;
lastChange = "2025-03-15 21:57:32 +0000";
layers = (
{
layerId = m01;
shapes = (
{
closed = 1;
nodes = (
(360,0,ls),
(408,0,o),
(433,26,o),
(433,74,cs),
(433,1264,l),
(1399,1264,l),
(1399,74,ls),
(1399,26,o),
(1424,0,o),
(1472,0,cs),
(1502,0,ls),
(1551,0,o),
(1575,26,o),
(1575,74,cs),
(1575,1264,l),
(1689,1264,ls),
(1730,1264,o),
(1756,1287,o),
(1756,1328,cs),
(1756,1344,ls),
(1756,1385,o),
(1730,1408,o),
(1689,1408,cs),
(143,1408,ls),
(102,1408,o),
(76,1385,o),
(76,1344,cs),
(76,1328,ls),
(76,1287,o),
(102,1264,o),
(143,1264,cs),
(257,1264,l),
(257,74,ls),
(257,26,o),
(282,0,o),
(330,0,cs)
);
}
);
width = 1832;
},
{
layerId = m002;
shapes = (
{
closed = 1;
nodes = (
(578,0,ls),
(626,0,o),
(653,26,o),
(653,74,cs),
(653,1084,l),
(1179,1084,l),
(1179,74,ls),
(1179,26,o),
(1205,0,o),
(1253,0,cs),
(1500,0,ls),
(1549,0,o),
(1575,26,o),
(1575,74,cs),
(1575,1084,l),
(1689,1084,ls),
(1730,1084,o),
(1756,1110,o),
(1756,1151,cs),
(1756,1341,ls),
(1756,1382,o),
(1730,1408,o),
(1689,1408,cs),
(143,1408,ls),
(102,1408,o),
(76,1382,o),
(76,1341,cs),
(76,1151,ls),
(76,1110,o),
(102,1084,o),
(143,1084,cs),
(257,1084,l),
(257,74,ls),
(257,26,o),
(283,0,o),
(331,0,cs)
);
}
);
width = 1832;
}
);
unicode = 928;
},
{
glyphname = Sigma;
kernLeft = H;
kernRight = Z;
lastChange = "2025-03-15 21:57:59 +0000";
layers = (
{
layerId = m01;
shapes = (
{
closed = 1;
nodes = (
(1741,0,ls),
(1782,0,o),
(1808,23,o),
(1808,64,cs),
(1808,80,ls),
(1808,121,o),
(1782,144,o),
(1741,144,cs),
(403,144,l),
(1172,651,ls),
(1214,678,o),
(1214,730,o),
(1172,757,cs),
(403,1264,l),
(1741,1264,ls),
(1782,1264,o),
(1808,1287,o),
(1808,1328,cs),
(1808,1344,ls),
(1808,1385,o),
(1782,1408,o),
(1741,1408,cs),
(195,1408,ls),
(154,1408,o),
(128,1382,o),
(128,1341,cs),
(128,1312,ls),
(128,1281,o),
(137,1247,o),
(168,1227,cs),
(961,704,l),
(168,181,ls),
(137,161,o),
(128,127,o),
(128,96,cs),
(128,67,ls),
(128,26,o),
(154,0,o),
(195,0,cs)
);
}
);
width = 1884;
},
{
layerId = m002;
shapes = (
{
closed = 1;
nodes = (
(1741,0,ls),
(1782,0,o),
(1808,25,o),
(1808,66,cs),
(1808,258,ls),
(1808,298,o),
(1782,324,o),
(1741,324,cs),
(769,324,l),
(1266,652,ls),
(1308,680,o),
(1309,727,o),
(1266,756,cs),
(769,1084,l),
(1741,1084,ls),
(1782,1084,o),
(1808,1110,o),
(1808,1150,cs),
(1808,1341,ls),
(1808,1382,o),
(1782,1408,o),
(1741,1408,cs),
(195,1408,ls),
(154,1408,o),
(128,1383,o),
(128,1342,cs),
(128,1132,ls),
(128,1101,o),
(135,1071,o),
(168,1049,cs),
(691,704,l),
(168,359,ls),
(135,337,o),
(128,306,o),
(128,276,cs),
(128,66,ls),
(128,25,o),
(154,0,o),
(195,0,cs)
);
}
);
width = 1884;
}
);
unicode = 931;
},
{
glyphname = Psi;
kernLeft = V;
kernRight = V;
lastChange = "2025-03-15 22:00:07 +0000";
layers = (
{
layerId = m01;
shapes = (
{
closed = 1;
nodes = (
(1689,1408,ls),
(1641,1408,o),
(1616,1382,o),
(1616,1334,cs),
(1616,965,ls),
(1616,721,o),
(1485,640,o),
(1093,640,cs),
(811,640,ls),
(419,640,o),
(288,721,o),
(288,965,cs),
(288,1334,ls),
(288,1382,o),
(263,1408,o),
(215,1408,cs),
(185,1408,ls),
(137,1408,o),
(112,1382,o),
(112,1334,cs),
(112,960,ls),
(112,637,o),
(319,496,o),
(792,496,cs),
(1112,496,ls),
(1585,496,o),
(1792,637,o),
(1792,960,cs),
(1792,1334,ls),
(1792,1382,o),
(1767,1408,o),
(1719,1408,cs)
);
},
{
alignment = -1;
pos = (744,0);
ref = "_stem-v-caps-CH";
}
);
width = 1904;
},
{
layerId = m002;
shapes = (
{
closed = 1;
nodes = (
(1471,1429,ls),
(1422,1429,o),
(1396,1403,o),
(1396,1355,cs),
(1396,965,ls),
(1396,792,o),
(1317,734,o),
(1079,734,cs),
(812,734,ls),
(584,734,o),
(508,792,o),
(508,965,cs),
(508,1355,ls),
(508,1403,o),
(482,1429,o),
(433,1429,cs),
(186,1429,ls),
(138,1429,o),
(112,1403,o),
(112,1355,cs),
(112,858,ls),
(112,521,o),
(319,374,o),
(793,374,cs),
(1098,374,ls),
(1581,374,o),
(1792,521,o),
(1792,858,cs),
(1792,1355,ls),
(1792,1403,o),
(1766,1429,o),
(1718,1429,cs)
);
},
{
alignment = -1;
pos = (642,0);
ref = "_stem-v-caps-CH";
}
);
width = 1904;
}
);
unicode = 936;
},
{
glyphname = Omega;
kernLeft = O;
kernRight = O;
lastChange = "2025-03-15 22:00:40 +0000";
layers = (
{
anchors = (
{
name = bottom;
pos = (954,0);
},
{
name = topleft;
pos = (13,1429);
}
);
layerId = m01;
shapes = (
{
closed = 1;
nodes = (
(716,0,ls),
(764,0,o),
(790,26,o),
(790,74,cs),
(790,402,ls),
(790,449,o),
(764,476,o),
(713,477,cs),
(367,485,o),
(252,570,o),
(252,816,cs),
(252,852,ls),
(252,1184,o),
(394,1294,o),
(821,1294,cs),
(1086,1294,ls),
(1514,1294,o),
(1656,1184,o),
(1656,852,cs),
(1656,816,ls),
(1656,570,o),
(1541,485,o),
(1194,477,cs),
(1144,476,o),
(1117,449,o),
(1117,402,cs),
(1117,74,ls),
(1117,26,o),
(1143,0,o),
(1191,0,cs),
(1735,0,ls),
(1776,0,o),
(1802,23,o),
(1802,64,cs),
(1802,80,ls),
(1802,121,o),
(1777,144,o),
(1735,144,cs),
(1293,144,l),
(1293,317,l),
(1668,345,o),
(1832,495,o),
(1832,811,cs),
(1832,856,ls),
(1832,1261,o),
(1611,1438,o),
(1106,1438,cs),
(802,1438,ls),
(297,1438,o),
(76,1261,o),
(76,856,cs),
(76,811,ls),
(76,494,o),
(240,344,o),
(615,317,c),
(615,144,l),
(173,144,ls),
(132,144,o),
(106,121,o),
(106,80,cs),
(106,64,ls),
(106,23,o),
(132,0,o),
(173,0,cs)
);
}
);
width = 1908;
},
{
anchors = (
{
name = bottom;
pos = (954,0);
},
{
name = topleft;
pos = (13,1429);
}
);
layerId = m002;
shapes = (
{
closed = 1;
nodes = (
(746,0,ls),
(794,0,o),
(820,26,o),
(820,74,cs),
(820,458,ls),
(820,505,o),
(792,528,o),
(743,533,cs),
(544,559,o),
(478,627,o),
(478,806,cs),
(478,842,ls),
(478,1046,o),
(564,1114,o),
(821,1114,cs),
(1086,1114,ls),
(1344,1114,o),
(1430,1046,o),
(1430,842,cs),
(1430,806,ls),
(1430,627,o),
(1364,559,o),
(1164,533,cs),
(1115,528,o),
(1087,505,o),
(1087,458,cs),
(1087,74,ls),
(1087,26,o),
(1113,0,o),
(1162,0,cs),
(1727,0,ls),
(1776,0,o),
(1802,26,o),
(1802,74,cs),
(1802,250,ls),
(1802,298,o),
(1776,324,o),
(1727,324,cs),
(1448,324,l),
(1448,325,l),
(1715,389,o),
(1832,539,o),
(1832,819,cs),
(1832,864,ls),
(1832,1263,o),
(1611,1438,o),
(1106,1438,cs),
(802,1438,ls),
(297,1438,o),
(76,1263,o),
(76,864,cs),
(76,819,ls),
(76,539,o),
(193,389,o),
(459,325,c),
(459,326,l),
(180,324,ls),
(132,324,o),
(106,298,o),
(106,250,cs),
(106,74,ls),
(106,26,o),
(132,0,o),
(180,0,cs)
);
}
);
width = 1908;
}
);
unicode = 937;
},
{
glyphname = pi;
kernLeft = a;
kernRight = a;
lastChange = "2025-03-15 22:04:29 +0000";
layers = (
{
layerId = m01;
shapes = (
{
closed = 1;
nodes = (
(330,0,ls),
(378,0,o),
(396,26,o),
(396,74,cs),
(396,944,l),
(1136,944,l),
(1136,74,ls),
(1136,26,o),
(1154,0,o),
(1203,0,cs),
(1230,0,ls),
(1278,0,o),
(1296,26,o),
(1296,74,cs),
(1296,944,l),
(1400,944,ls),
(1436,944,o),
(1456,963,o),
(1456,1000,cs),
(1456,1016,ls),
(1456,1052,o),
(1436,1072,o),
(1400,1072,cs),
(132,1072,ls),
(95,1072,o),
(76,1052,o),
(76,1016,cs),
(76,1000,ls),
(76,963,o),
(95,944,o),
(132,944,cs),
(236,944,l),
(236,74,ls),
(236,26,o),
(255,0,o),
(303,0,cs)
);
}
);
width = 1532;
},
{
layerId = m002;
shapes = (
{
closed = 1;
nodes = (
(522,0,ls),
(570,0,o),
(596,26,o),
(596,74,cs),
(596,784,l),
(936,784,l),
(936,74,ls),
(936,26,o),
(963,0,o),
(1011,0,cs),
(1222,0,ls),
(1270,0,o),
(1296,26,o),
(1296,74,cs),
(1296,784,l),
(1400,784,ls),
(1436,784,o),
(1456,804,o),
(1456,840,cs),
(1456,1016,ls),
(1456,1052,o),
(1436,1072,o),
(1400,1072,cs),
(132,1072,ls),
(95,1072,o),
(76,1052,o),
(76,1016,cs),
(76,840,ls),
(76,804,o),
(95,784,o),
(132,784,cs),
(236,784,l),
(236,74,ls),
(236,26,o),
(263,0,o),
(311,0,cs)
);
}
);
width = 1532;
}
);
unicode = 960;
},
{
glyphname = zero;
kernLeft = O;
kernRight = O;
lastChange = "2025-03-15 22:12:54 +0000";
layers = (
{
layerId = m01;
shapes = (
{
closed = 1;
nodes = (
(120,681,ls),
(120,186,o),
(341,-30,o),
(845,-30,cs),
(1075,-30,ls),
(1579,-30,o),
(1800,186,o),
(1800,681,cs),
(1800,727,ls),
(1800,1222,o),
(1579,1438,o),
(1075,1438,cs),
(845,1438,ls),
(341,1438,o),
(120,1222,o),
(120,727,cs)
);
},
{
closed = 1;
nodes = (
(299,1151,o),
(441,1294,o),
(865,1294,cs),
(1055,1294,ls),
(1480,1294,o),
(1621,1151,o),
(1621,722,cs),
(1621,686,ls),
(1621,261,o),
(1480,119,o),
(1055,119,cs),
(865,119,ls),
(441,119,o),
(299,261,o),
(299,686,cs),
(299,722,ls)
);
}
);
width = 1920;
},
{
layerId = m002;
shapes = (
{
closed = 1;
nodes = (
(112,681,ls),
(112,186,o),
(335,-30,o),
(844,-30,cs),
(1060,-30,ls),
(1569,-30,o),
(1792,186,o),
(1792,681,cs),
(1792,725,ls),
(1792,1221,o),
(1569,1438,o),
(1060,1438,cs),
(844,1438,ls),
(335,1438,o),
(112,1221,o),
(112,725,cs)
);
},
{
closed = 1;
nodes = (
(508,1015,o),
(605,1114,o),
(896,1114,cs),
(1008,1114,ls),
(1299,1114,o),
(1396,1015,o),
(1396,716,cs),
(1396,692,ls),
(1396,394,o),
(1299,294,o),
(1008,294,cs),
(896,294,ls),
(605,294,o),
(508,394,o),
(508,692,cs),
(508,716,ls)
);
}
);
width = 1904;
}
);
unicode = 48;
},
{
glyphname = one;
kernRight = O;
lastChange = "2025-03-15 22:14:15 +0000";
layers = (
{
layerId = m01;
shapes = (
{
closed = 1;
nodes = (
(1725,0,ls),
(1765,0,o),
(1792,23,o),
(1792,64,cs),
(1792,80,ls),
(1792,121,o),
(1765,144,o),
(1725,144,cs),
(1160,144,l),
(1160,1352,ls),
(1160,1389,o),
(1141,1408,o),
(1104,1408,cs),
(884,1408,ls),
(856,1408,o),
(836,1400,o),
(815,1379,cs),
(380,944,ls),
(355,919,o),
(355,891,o),
(380,866,cs),
(415,831,ls),
(440,806,o),
(468,806,o),
(493,831,cs),
(926,1264,l),
(984,1264,l),
(984,144,l),
(359,144,ls),
(318,144,o),
(292,121,o),
(292,80,cs),
(292,64,ls),
(292,23,o),
(318,0,o),
(359,0,cs)
);
}
);
width = 1904;
},
{
layerId = m002;
shapes = (
{
closed = 1;
nodes = (
(1717,0,ls),
(1759,0,o),
(1792,33,o),
(1792,75,cs),
(1792,249,ls),
(1792,291,o),
(1759,324,o),
(1717,324,cs),
(1277,324,l),
(1277,1329,ls),
(1277,1373,o),
(1242,1408,o),
(1198,1408,cs),
(887,1408,ls),
(840,1408,o),
(832,1404,o),
(810,1389,cs),
(354,1083,ls),
(306,1051,o),
(292,1026,o),
(331,969,cs),
(441,809,ls),
(474,760,o),
(509,753,o),
(556,785,cs),
(887,1007,l),
(887,1007,l),
(887,324,l),
(367,324,ls),
(325,324,o),
(292,291,o),
(292,249,cs),
(292,75,ls),
(292,33,o),
(325,0,o),
(367,0,cs)
);
}
);
width = 1904;
}
);
unicode = 49;
},
{
glyphname = two;
kernLeft = O;
kernRight = O;
lastChange = "2025-03-15 22:13:44 +0000";
layers = (
{
layerId = m01;
shapes = (
{
closed = 1;
nodes = (
(1725,0,ls),
(1766,0,o),
(1792,23,o),
(1792,64,cs),
(1792,80,ls),
(1792,121,o),
(1766,144,o),
(1725,144,cs),
(289,144,l),
(289,365,ls),
(289,532,o),
(428,589,o),
(851,595,cs),
(1063,598,ls),
(1568,605,o),
(1792,723,o),
(1792,988,cs),
(1792,1032,ls),
(1792,1314,o),
(1568,1438,o),
(1063,1438,cs),
(837,1438,ls),
(359,1438,o),
(140,1310,o),
(113,1016,cs),
(108,965,o),
(136,939,o),
(185,939,cs),
(217,939,ls),
(265,939,o),
(290,970,o),
(294,1012,cs),
(312,1224,o),
(448,1294,o),
(853,1294,cs),
(1047,1294,ls),
(1470,1294,o),
(1616,1230,o),
(1616,1036,cs),
(1616,1001,ls),
(1616,813,o),
(1472,748,o),
(1049,742,cs),
(837,739,ls),
(332,732,o),
(113,624,o),
(113,388,cs),
(113,74,ls),
(113,26,o),
(139,0,o),
(187,0,cs)
);
}
);
width = 1904;
},
{
layerId = m002;
shapes = (
{
closed = 1;
nodes = (
(1725,0,ls),
(1765,0,o),
(1792,26,o),
(1792,67,cs),
(1792,257,ls),
(1792,298,o),
(1765,324,o),
(1725,324,cs),
(508,324,l),
(508,395,ls),
(508,473,o),
(594,500,o),
(853,505,cs),
(1065,509,ls),
(1567,518,o),
(1792,663,o),
(1792,988,cs),
(1792,1032,ls),
(1792,1314,o),
(1566,1438,o),
(1065,1438,cs),
(839,1438,ls),
(357,1438,o),
(145,1310,o),
(118,1016,cs),
(113,965,o),
(142,939,o),
(190,939,cs),
(437,939,ls),
(485,939,o),
(497,973,o),
(514,1012,cs),
(547,1089,o),
(632,1114,o),
(855,1114,cs),
(1049,1114,ls),
(1309,1114,o),
(1396,1083,o),
(1396,991,cs),
(1396,956,ls),
(1396,869,o),
(1310,838,o),
(1051,833,cs),
(839,829,ls),
(324,819,o),
(112,682,o),
(112,388,cs),
(112,74,ls),
(112,26,o),
(138,0,o),
(187,0,cs)
);
}
);
width = 1904;
}
);
unicode = 50;
},
{
glyphname = three;
kernLeft = O;
kernRight = O;
lastChange = "2025-03-15 22:14:23 +0000";
layers = (
{
anchors = (
{
name = bottom;
pos = (-225,0);
},
{
name = top;
pos = (-225,1429);
}
);
layerId = m01;
shapes = (
{
closed = 1;
nodes = (
(1065,-30,ls),
(1571,-30,o),
(1792,93,o),
(1792,352,cs),
(1792,394,ls),
(1792,551,o),
(1725,631,o),
(1573,704,c),
(1704,784,o),
(1762,879,o),
(1762,1014,cs),
(1762,1056,ls),
(1762,1315,o),
(1550,1438,o),
(1065,1438,cs),
(835,1438,ls),
(363,1438,o),
(143,1310,o),
(113,1016,cs),
(108,966,o),
(137,939,o),
(186,939,cs),
(215,939,ls),
(263,939,o),
(287,964,o),
(292,1012,cs),
(315,1224,o),
(456,1294,o),
(855,1294,cs),
(1045,1294,ls),
(1449,1294,o),
(1583,1226,o),
(1583,1052,cs),
(1583,1018,ls),
(1583,829,o),
(1449,776,o),
(1046,776,cs),
(876,776,ls),
(835,776,o),
(809,753,o),
(809,712,cs),
(809,696,ls),
(809,655,o),
(835,632,o),
(876,632,cs),
(1046,632,ls),
(1471,632,o),
(1613,579,o),
(1613,390,cs),
(1613,356,ls),
(1613,182,o),
(1471,114,o),
(1045,114,cs),
(855,114,ls),
(453,114,o),
(313,185,o),
(292,396,cs),
(287,444,o),
(263,469,o),
(215,469,cs),
(186,469,ls),
(137,469,o),
(108,441,o),
(113,392,cs),
(142,98,o),
(361,-30,o),
(835,-30,cs)
);
}
);
width = 1904;
},
{
anchors = (
{
name = bottom;
pos = (-225,0);
},
{
name = top;
pos = (-225,1429);
}
);
layerId = m002;
shapes = (
{
closed = 1;
nodes = (
(1065,-30,ls),
(1571,-30,o),
(1792,86,o),
(1792,351,cs),
(1792,395,ls),
(1792,538,o),
(1725,632,o),
(1573,704,c),
(1704,783,o),
(1762,877,o),
(1762,1013,cs),
(1762,1057,ls),
(1762,1322,o),
(1550,1438,o),
(1065,1438,cs),
(835,1438,ls),
(361,1438,o),
(141,1311,o),
(113,1021,cs),
(108,972,o),
(137,946,o),
(186,946,cs),
(433,946,ls),
(480,946,o),
(500,975,o),
(509,1018,cs),
(524,1090,o),
(611,1114,o),
(855,1114,cs),
(1045,1114,ls),
(1286,1114,o),
(1366,1088,o),
(1366,1008,cs),
(1366,972,ls),
(1366,893,o),
(1286,866,o),
(1046,866,cs),
(876,866,ls),
(835,866,o),
(809,839,o),
(809,799,cs),
(809,609,ls),
(809,569,o),
(835,542,o),
(876,542,cs),
(1046,542,ls),
(1309,542,o),
(1396,516,o),
(1396,436,cs),
(1396,400,ls),
(1396,321,o),
(1308,294,o),
(1045,294,cs),
(855,294,ls),
(605,294,o),
(518,318,o),
(509,390,cs),
(504,433,o),
(480,462,o),
(433,462,cs),
(186,462,ls),
(137,462,o),
(108,436,o),
(113,388,cs),
(141,97,o),
(361,-30,o),
(835,-30,cs)
);
}
);
width = 1904;
}
);
unicode = 51;
},
{
glyphname = four;
kernLeft = A;
kernRight = f;
lastChange = "2025-03-15 22:14:31 +0000";
layers = (
{
layerId = m01;
shapes = (
{
closed = 1;
nodes = (
(1439,0,ls),
(1487,0,o),
(1512,26,o),
(1512,74,cs),
(1512,392,l),
(1725,392,ls),
(1766,392,o),
(1792,415,o),
(1792,456,cs),
(1792,472,ls),
(1792,513,o),
(1766,536,o),
(1725,536,cs),
(1512,536,l),
(1512,1334,ls),
(1512,1382,o),
(1486,1408,o),
(1438,1408,cs),
(1384,1408,ls),
(1348,1408,o),
(1321,1400,o),
(1292,1379,cs),
(160,569,ls),
(127,545,o),
(112,519,o),
(112,487,cs),
(112,459,ls),
(112,418,o),
(138,392,o),
(179,392,cs),
(1336,392,l),
(1336,74,ls),
(1336,26,o),
(1361,0,o),
(1409,0,cs)
);
},
{
closed = 1;
nodes = (
(1336,1214,l),
(1336,536,l),
(388,536,l)
);
}
);
width = 1904;
},
{
layerId = m002;
shapes = (
{
closed = 1;
nodes = (
(1479,0,ls),
(1527,0,o),
(1553,26,o),
(1553,74,cs),
(1553,302,l),
(1725,302,ls),
(1765,302,o),
(1792,328,o),
(1792,369,cs),
(1792,559,ls),
(1792,600,o),
(1765,626,o),
(1725,626,cs),
(1553,626,l),
(1553,1334,ls),
(1553,1382,o),
(1527,1408,o),
(1479,1408,cs),
(1207,1408,ls),
(1171,1408,o),
(1144,1401,o),
(1115,1379,cs),
(151,647,ls),
(118,622,o),
(112,607,o),
(112,559,cs),
(112,369,ls),
(112,328,o),
(138,302,o),
(179,302,cs),
(1157,302,l),
(1157,74,ls),
(1157,26,o),
(1183,0,o),
(1232,0,cs)
);
},
{
closed = 1;
nodes = (
(1157,959,l),
(1157,626,l),
(718,626,l)
);
}
);
width = 1904;
}
);
unicode = 52;
},
{
glyphname = five;
kernRight = O;
lastChange = "2025-03-15 22:15:05 +0000";
layers = (
{
layerId = m01;
shapes = (
{
closed = 1;
nodes = (
(1077,-30,ls),
(1583,-30,o),
(1804,104,o),
(1804,412,cs),
(1804,458,ls),
(1804,766,o),
(1583,900,o),
(1077,900,cs),
(847,900,ls),
(578,900,o),
(417,863,o),
(319,778,c),
(319,1264,l),
(1707,1264,ls),
(1748,1264,o),
(1774,1290,o),
(1774,1331,cs),
(1774,1347,ls),
(1774,1388,o),
(1748,1408,o),
(1707,1408,cs),
(217,1408,ls),
(169,1408,o),
(143,1382,o),
(143,1334,cs),
(143,699,ls),
(143,650,o),
(169,624,o),
(217,624,cs),
(279,624,ls),
(308,624,o),
(327,635,o),
(348,654,cs),
(434,731,o),
(564,756,o),
(867,756,cs),
(1057,756,ls),
(1483,756,o),
(1625,680,o),
(1625,453,cs),
(1625,417,ls),
(1625,190,o),
(1483,114,o),
(1057,114,cs),
(867,114,ls),
(467,114,o),
(326,185,o),
(305,396,cs),
(300,444,o),
(276,469,o),
(228,469,cs),
(198,469,ls),
(150,469,o),
(120,441,o),
(125,392,cs),
(154,98,o),
(374,-30,o),
(847,-30,cs)
);
}
);
width = 1904;
},
{
layerId = m002;
shapes = (
{
closed = 1;
nodes = (
(1077,-30,ls),
(1584,-30,o),
(1804,87,o),
(1804,417,cs),
(1804,462,ls),
(1804,791,o),
(1584,900,o),
(1077,900,cs),
(847,900,ls),
(776,900,o),
(647,900,o),
(539,878,c),
(539,1084,l),
(1707,1084,ls),
(1748,1084,o),
(1774,1110,o),
(1774,1151,cs),
(1774,1341,ls),
(1774,1382,o),
(1748,1408,o),
(1707,1408,cs),
(217,1408,ls),
(169,1408,o),
(143,1382,o),
(143,1334,cs),
(143,610,ls),
(143,562,o),
(169,536,o),
(217,536,cs),
(470,536,ls),
(483,536,o),
(520,543,o),
(539,547,cs),
(612,561,o),
(716,576,o),
(867,576,cs),
(1057,576,ls),
(1338,576,o),
(1408,538,o),
(1408,453,cs),
(1408,418,ls),
(1408,333,o),
(1338,294,o),
(1057,294,cs),
(867,294,ls),
(650,294,o),
(536,328,o),
(521,396,cs),
(512,439,o),
(492,469,o),
(445,469,cs),
(197,469,ls),
(149,469,o),
(120,442,o),
(125,393,cs),
(156,72,o),
(390,-30,o),
(847,-30,cs)
);
}
);
width = 1904;
}
);
unicode = 53;
},
{
glyphname = six;
lastChange = "2025-03-15 22:16:39 +0000";
layers = (
{
layerId = m01;
shapes = (
{
closed = 1;
nodes = (
(1588,-30,o),
(1808,107,o),
(1808,421,cs),
(1808,451,ls),
(1808,764,o),
(1588,901,o),
(1084,901,cs),
(854,901,ls),
(560,901,o),
(392,849,o),
(302,730,c),
(302,900,ls),
(302,1196,o),
(445,1294,o),
(874,1294,cs),
(1064,1294,ls),
(1466,1294,o),
(1607,1224,o),
(1628,1012,cs),
(1633,965,o),
(1658,939,o),
(1705,939,cs),
(1736,939,ls),
(1785,939,o),
(1814,967,o),
(1809,1016,cs),
(1780,1310,o),
(1560,1438,o),
(1084,1438,cs),
(854,1438,l),
(347,1438,o),
(126,1276,o),
(126,906,cs),
(126,387,ls),
(126,97,o),
(347,-30,o),
(854,-30,cs),
(1084,-30,ls)
);
},
{
closed = 1;
nodes = (
(872,120,ls),
(444,120,o),
(302,197,o),
(302,427,cs),
(302,451,ls),
(302,677,o),
(447,752,o),
(872,752,cs),
(1062,752,ls),
(1488,752,o),
(1632,676,o),
(1632,448,cs),
(1632,424,ls),
(1632,196,o),
(1490,120,o),
(1062,120,cs)
);
}
);
width = 1904;
},
{
layerId = m002;
shapes = (
{
closed = 1;
nodes = (
(1576,-30,o),
(1810,85,o),
(1810,414,cs),
(1810,443,ls),
(1810,760,o),
(1655,890,o),
(1086,890,cs),
(863,890,ls),
(665,890,o),
(630,886,o),
(522,850,c),
(522,886,ls),
(522,1054,o),
(651,1114,o),
(873,1114,cs),
(1066,1114,ls),
(1247,1114,o),
(1402,1066,o),
(1413,1018,cs),
(1423,975,o),
(1443,946,o),
(1490,946,cs),
(1738,946,ls),
(1787,946,o),
(1814,973,o),
(1809,1021,cs),
(1779,1339,o),
(1545,1438,o),
(1090,1438,cs),
(853,1438,ls),
(360,1438,o),
(126,1322,o),
(126,892,cs),
(126,381,ls),
(126,85,o),
(360,-30,o),
(850,-30,cs),
(1086,-30,ls)
);
},
{
closed = 1;
nodes = (
(863,294,ls),
(612,294,o),
(522,329,o),
(522,416,cs),
(522,441,ls),
(522,528,o),
(612,566,o),
(863,566,cs),
(1073,566,ls),
(1324,566,o),
(1414,528,o),
(1414,441,cs),
(1414,417,ls),
(1414,329,o),
(1324,294,o),
(1073,294,cs)
);
}
);
width = 1904;
}
);
unicode = 54;
},
{
glyphname = seven;
kernLeft = Z;
kernRight = V;
lastChange = "2025-03-15 22:16:47 +0000";
layers = (
{
layerId = m01;
shapes = (
{
closed = 1;
nodes = (
(635,0,ls),
(663,0,o),
(683,8,o),
(704,29,cs),
(1758,1083,ls),
(1778,1103,o),
(1792,1124,o),
(1792,1152,cs),
(1792,1342,ls),
(1792,1383,o),
(1767,1408,o),
(1726,1408,cs),
(179,1408,ls),
(138,1408,o),
(112,1385,o),
(112,1344,cs),
(112,1328,ls),
(112,1287,o),
(138,1264,o),
(179,1264,cs),
(1616,1264,l),
(1616,1167,l),
(518,69,ls),
(482,33,o),
(497,0,o),
(546,0,cs)
);
}
);
width = 1904;
},
{
layerId = m002;
shapes = (
{
closed = 1;
nodes = (
(658,0,ls),
(686,0,o),
(706,7,o),
(727,28,cs),
(1763,1064,ls),
(1783,1084,o),
(1792,1104,o),
(1792,1132,cs),
(1792,1352,ls),
(1792,1389,o),
(1772,1408,o),
(1736,1408,cs),
(168,1408,ls),
(132,1408,o),
(112,1389,o),
(112,1352,cs),
(112,1140,ls),
(112,1104,o),
(132,1084,o),
(168,1084,cs),
(1274,1084,l),
(1274,1084,l),
(257,67,ls),
(221,31,o),
(235,0,o),
(285,0,cs)
);
}
);
width = 1904;
}
);
unicode = 55;
},
{
glyphname = eight;
kernLeft = O;
kernRight = O;
lastChange = "2025-03-15 22:16:55 +0000";
layers = (
{
anchors = (
{
name = bottom;
pos = (-251,0);
},
{
name = top;
pos = (-251,1429);
}
);
layerId = m01;
shapes = (
{
closed = 1;
nodes = (
(837,1438,ls),
(353,1438,o),
(142,1321,o),
(142,1054,cs),
(142,1010,ls),
(142,863,o),
(195,770,o),
(316,704,c),
(174,636,o),
(112,543,o),
(112,399,cs),
(112,353,ls),
(112,87,o),
(333,-30,o),
(837,-30,cs),
(1067,-30,ls),
(1571,-30,o),
(1792,85,o),
(1792,351,cs),
(1792,395,ls),
(1792,539,o),
(1730,636,o),
(1588,704,c),
(1709,770,o),
(1762,863,o),
(1762,1010,cs),
(1762,1054,ls),
(1762,1321,o),
(1551,1438,o),
(1067,1438,cs)
);
},
{
closed = 1;
nodes = (
(288,394,ls),
(288,573,o),
(430,632,o),
(857,632,cs),
(1047,632,ls),
(1474,632,o),
(1616,573,o),
(1616,394,cs),
(1616,358,ls),
(1616,175,o),
(1474,114,o),
(1047,114,cs),
(857,114,ls),
(430,114,o),
(288,175,o),
(288,358,cs)
);
},
{
closed = 1;
nodes = (
(318,1050,ls),
(318,1233,o),
(453,1294,o),
(857,1294,cs),
(1047,1294,ls),
(1451,1294,o),
(1586,1233,o),
(1586,1050,cs),
(1586,1014,ls),
(1586,836,o),
(1451,776,o),
(1047,776,cs),
(857,776,ls),
(453,776,o),
(318,836,o),
(318,1014,cs)
);
}
);
width = 1904;
},
{
anchors = (
{
name = bottom;
pos = (-251,0);
},
{
name = top;
pos = (-251,1429);
}
);
layerId = m002;
shapes = (
{
closed = 1;
nodes = (
(837,1438,ls),
(353,1438,o),
(142,1325,o),
(142,1068,cs),
(142,1024,ls),
(142,875,o),
(195,781,o),
(316,715,c),
(174,647,o),
(112,553,o),
(112,406,cs),
(112,361,ls),
(112,89,o),
(333,-30,o),
(837,-30,cs),
(1067,-30,ls),
(1571,-30,o),
(1792,86,o),
(1792,351,cs),
(1792,395,ls),
(1792,550,o),
(1730,647,o),
(1588,715,c),
(1709,781,o),
(1762,871,o),
(1762,1010,cs),
(1762,1054,ls),
(1762,1321,o),
(1551,1438,o),
(1067,1438,cs)
);
},
{
closed = 1;
nodes = (
(514,432,ls),
(514,515,o),
(600,542,o),
(857,542,cs),
(1047,542,ls),
(1304,542,o),
(1390,515,o),
(1390,432,cs),
(1390,404,ls),
(1390,322,o),
(1304,294,o),
(1047,294,cs),
(857,294,ls),
(600,294,o),
(514,322,o),
(514,404,cs)
);
},
{
closed = 1;
nodes = (
(544,1005,ls),
(544,1087,o),
(622,1114,o),
(857,1114,cs),
(1047,1114,ls),
(1282,1114,o),
(1360,1087,o),
(1360,1005,cs),
(1360,975,ls),
(1360,893,o),
(1282,866,o),
(1047,866,cs),
(857,866,ls),
(622,866,o),
(544,893,o),
(544,975,cs)
);
}
);
width = 1904;
}
);
unicode = 56;
},
{
glyphname = zerosuperior;
lastChange = "2025-03-21 17:01:40 +0000";
layers = (
{
layerId = m01;
shapes = (
{
closed = 1;
nodes = (
(62,958,ls),
(62,653,o),
(200,520,o),
(515,520,cs),
(653,520,ls),
(968,520,o),
(1106,653,o),
(1106,958,cs),
(1106,986,ls),
(1106,1291,o),
(968,1424,o),
(653,1424,cs),
(515,1424,ls),
(200,1424,o),
(62,1291,o),
(62,986,cs)
);
},
{
closed = 1;
nodes = (
(222,1217,o),
(300,1296,o),
(535,1296,cs),
(633,1296,ls),
(868,1296,o),
(946,1217,o),
(946,981,cs),
(946,961,ls),
(946,726,o),
(868,648,o),
(633,648,cs),
(535,648,ls),
(300,648,o),
(222,726,o),
(222,961,cs),
(222,981,ls)
);
}
);
width = 1168;
},
{
layerId = m002;
shapes = (
{
closed = 1;
nodes = (
(62,958,ls),
(62,654,o),
(200,521,o),
(516,521,cs),
(651,521,ls),
(968,521,o),
(1106,654,o),
(1106,958,cs),
(1106,986,ls),
(1106,1290,o),
(968,1423,o),
(651,1423,cs),
(516,1423,ls),
(200,1423,o),
(62,1290,o),
(62,986,cs)
);
},
{
closed = 1;
nodes = (
(350,1123,o),
(400,1171,o),
(551,1171,cs),
(616,1171,ls),
(768,1171,o),
(818,1123,o),
(818,979,cs),
(818,965,ls),
(818,821,o),
(768,773,o),
(616,773,cs),
(551,773,ls),
(400,773,o),
(350,821,o),
(350,965,cs),
(350,979,ls)
);
}
);
width = 1168;
}
);
unicode = 8304;
},
{
glyphname = onesuperior;
lastChange = "2025-03-21 17:07:16 +0000";
layers = (
{
layerId = m01;
shapes = (
{
closed = 1;
nodes = (
(472,1408,ls),
(423,1408,o),
(415,1405,o),
(380,1370,cs),
(158,1148,ls),
(132,1122,o),
(132,1100,o),
(158,1074,cs),
(186,1046,ls),
(212,1020,o),
(234,1020,o),
(260,1046,cs),
(494,1280,l),
(534,1280,l),
(534,610,ls),
(534,562,o),
(559,536,o),
(608,536,cs),
(620,536,ls),
(668,536,o),
(694,562,o),
(694,610,cs),
(694,1352,ls),
(694,1388,o),
(674,1408,o),
(638,1408,cs)
);
},
{
closed = 1;
nodes = (
(120,592,ls),
(120,556,o),
(140,536,o),
(176,536,cs),
(992,536,ls),
(1028,536,o),
(1048,556,o),
(1048,592,cs),
(1048,608,ls),
(1048,644,o),
(1028,664,o),
(992,664,cs),
(176,664,ls),
(140,664,o),
(120,644,o),
(120,608,cs)
);
}
);
width = 1168;
},
{
layerId = m002;
shapes = (
{
closed = 1;
nodes = (
(477,1408,ls),
(448,1408,o),
(437,1405,o),
(423,1396,cs),
(177,1232,ls),
(147,1212,o),
(138,1197,o),
(162,1161,cs),
(255,1022,ls),
(277,989,o),
(297,988,o),
(326,1007,cs),
(466,1100,l),
(466,1100,l),
(466,610,ls),
(466,563,o),
(491,537,o),
(538,537,cs),
(681,537,ls),
(728,537,o),
(754,563,o),
(754,610,cs),
(754,1335,ls),
(754,1382,o),
(728,1408,o),
(681,1408,cs)
);
},
{
closed = 1;
nodes = (
(120,590,ls),
(120,555,o),
(139,536,o),
(175,536,cs),
(994,536,ls),
(1030,536,o),
(1048,555,o),
(1048,590,cs),
(1048,733,ls),
(1048,769,o),
(1030,788,o),
(994,788,cs),
(175,788,ls),
(139,788,o),
(120,769,o),
(120,733,cs)
);
}
);
width = 1168;
}
);
unicode = 185;
},
{
glyphname = twosuperior;
lastChange = "2025-03-21 17:11:06 +0000";
layers = (
{
anchors = (
{
name = bottom;
pos = (610,536);
},
{
name = top;
pos = (610,1429);
}
);
layerId = m01;
shapes = (
{
closed = 1;
nodes = (
(1059,536,ls),
(1090,536,o),
(1106,561,o),
(1106,592,cs),
(1106,608,ls),
(1106,639,o),
(1090,664,o),
(1059,664,cs),
(222,664,l),
(222,720,ls),
(222,797,o),
(299,830,o),
(529,851,cs),
(649,862,ls),
(896,885,o),
(1106,883,o),
(1106,1131,cs),
(1106,1174,ls),
(1106,1348,o),
(968,1424,o),
(653,1424,cs),
(515,1424,ls),
(220,1424,o),
(83,1344,o),
(66,1160,cs),
(63,1129,o),
(81,1112,o),
(112,1112,cs),
(178,1112,ls),
(207,1112,o),
(222,1132,o),
(226,1158,cs),
(240,1262,o),
(317,1296,o),
(535,1296,cs),
(633,1296,ls),
(868,1296,o),
(946,1265,o),
(946,1170,cs),
(946,1116,ls),
(946,1044,o),
(869,1013,o),
(639,992,cs),
(519,981,ls),
(292,959,o),
(62,960,o),
(62,727,cs),
(62,592,ls),
(62,556,o),
(82,536,o),
(118,536,cs)
);
}
);
width = 1168;
},
{
anchors = (
{
name = bottom;
pos = (97,536);
},
{
name = top;
pos = (97,1415);
}
);
layerId = m002;
shapes = (
{
closed = 1;
nodes = (
(1063,550,ls),
(1089,550,o),
(1106,566,o),
(1106,589,cs),
(1106,759,ls),
(1106,783,o),
(1089,798,o),
(1063,798,cs),
(350,798,l),
(350,798,ls),
(350,827,o),
(395,839,o),
(529,844,cs),
(646,849,ls),
(967,863,o),
(1107,941,o),
(1106,1106,cs),
(1106,1156,ls),
(1106,1342,o),
(967,1424,o),
(648,1424,cs),
(517,1424,ls),
(221,1424,o),
(84,1344,o),
(66,1161,cs),
(63,1131,o),
(81,1115,o),
(112,1115,cs),
(306,1115,ls),
(335,1115,o),
(351,1122,o),
(354,1142,cs),
(358,1165,o),
(402,1172,o),
(531,1172,cs),
(637,1172,ls),
(773,1172,o),
(818,1164,o),
(818,1140,cs),
(818,1122,ls),
(818,1111,o),
(773,1106,o),
(637,1101,cs),
(519,1096,ls),
(201,1083,o),
(62,992,o),
(62,798,cs),
(62,593,ls),
(62,566,o),
(79,550,o),
(109,550,cs)
);
}
);
width = 1168;
}
);
unicode = 178;
},
{
glyphname = threesuperior;
lastChange = "2025-03-21 17:12:55 +0000";
layers = (
{
layerId = m01;
shapes = (
{
closed = 1;
nodes = (
(651,521,ls),
(967,521,o),
(1105,600,o),
(1105,765,cs),
(1105,792,ls),
(1105,879,o),
(1065,929,o),
(974,972,c),
(1052,1018,o),
(1086,1068,o),
(1086,1152,cs),
(1086,1179,ls),
(1086,1344,o),
(954,1423,o),
(651,1423,cs),
(513,1423,ls),
(227,1423,o),
(82,1361,o),
(64,1166,cs),
(61,1137,o),
(79,1120,o),
(108,1120,cs),
(176,1120,ls),
(206,1120,o),
(221,1136,o),
(224,1165,cs),
(238,1263,o),
(316,1295,o),
(530,1295,cs),
(634,1295,ls),
(851,1295,o),
(926,1260,o),
(926,1176,cs),
(926,1155,ls),
(926,1061,o),
(852,1036,o),
(639,1036,cs),
(544,1036,ls),
(514,1036,o),
(498,1018,o),
(498,988,cs),
(498,956,ls),
(498,927,o),
(514,908,o),
(544,908,cs),
(639,908,ls),
(866,908,o),
(945,884,o),
(945,789,cs),
(945,768,ls),
(945,684,o),
(865,649,o),
(634,649,cs),
(530,649,ls),
(317,649,o),
(238,682,o),
(224,780,cs),
(221,809,o),
(206,824,o),
(176,824,cs),
(108,824,ls),
(79,824,o),
(61,808,o),
(64,778,cs),
(81,599,o),
(217,521,o),
(513,521,cs)
);
}
);
width = 1168;
},
{
layerId = m002;
shapes = (
{
closed = 1;
nodes = (
(651,521,ls),
(967,521,o),
(1105,595,o),
(1105,765,cs),
(1105,792,ls),
(1105,883,o),
(1073,938,o),
(1001,972,c),
(1060,1007,o),
(1086,1061,o),
(1086,1152,cs),
(1086,1179,ls),
(1086,1349,o),
(954,1423,o),
(651,1423,cs),
(517,1423,ls),
(220,1423,o),
(82,1345,o),
(65,1167,cs),
(61,1137,o),
(80,1120,o),
(110,1120,cs),
(306,1120,ls),
(336,1120,o),
(352,1127,o),
(354,1146,cs),
(357,1165,o),
(401,1171,o),
(529,1171,cs),
(639,1171,ls),
(758,1171,o),
(798,1165,o),
(798,1145,cs),
(798,1124,ls),
(798,1105,o),
(758,1098,o),
(639,1098,cs),
(509,1098,ls),
(479,1098,o),
(463,1083,o),
(463,1054,cs),
(463,891,ls),
(463,862,o),
(479,846,o),
(509,846,cs),
(639,846,ls),
(773,846,o),
(817,840,o),
(817,820,cs),
(817,799,ls),
(817,780,o),
(773,773,o),
(639,773,cs),
(529,773,ls),
(401,773,o),
(357,779,o),
(354,797,cs),
(352,817,o),
(336,823,o),
(306,823,cs),
(110,823,ls),
(80,823,o),
(61,807,o),
(65,777,cs),
(89,599,o),
(227,521,o),
(517,521,cs)
);
}
);
width = 1168;
}
);
unicode = 179;
},
{
glyphname = foursuperior;
lastChange = "2025-03-21 17:14:03 +0000";
layers = (
{
layerId = m01;
shapes = (
{
closed = 1;
nodes = (
(62,760,ls),
(62,724,o),
(82,704,o),
(118,704,cs),
(823,704,l),
(823,590,ls),
(823,554,o),
(841,536,o),
(877,536,cs),
(928,536,ls),
(964,536,o),
(983,554,o),
(983,590,cs),
(983,704,l),
(1050,704,ls),
(1086,704,o),
(1106,724,o),
(1106,760,cs),
(1106,776,ls),
(1106,812,o),
(1086,832,o),
(1050,832,cs),
(983,832,l),
(983,1354,ls),
(983,1390,o),
(965,1408,o),
(929,1408,cs),
(851,1408,ls),
(827,1408,o),
(811,1404,o),
(793,1391,cs),
(92,858,ls),
(71,842,o),
(62,826,o),
(62,801,cs)
);
},
{
closed = 1;
nodes = (
(823,1233,l),
(823,832,l),
(296,832,l)
);
}
);
width = 1168;
},
{
layerId = m002;
shapes = (
{
closed = 1;
nodes = (
(62,698,ls),
(62,662,o),
(82,642,o),
(118,642,cs),
(694,642,l),
(694,590,ls),
(694,554,o),
(712,536,o),
(748,536,cs),
(928,536,ls),
(964,536,o),
(983,554,o),
(983,590,cs),
(983,642,l),
(1050,642,ls),
(1086,642,o),
(1106,662,o),
(1106,698,cs),
(1106,838,ls),
(1106,874,o),
(1086,894,o),
(1050,894,cs),
(983,894,l),
(983,1354,ls),
(983,1390,o),
(965,1408,o),
(929,1408,cs),
(722,1408,ls),
(698,1408,o),
(682,1406,o),
(664,1391,cs),
(92,911,ls),
(72,894,o),
(62,877,o),
(62,852,cs)
);
},
{
closed = 1;
nodes = (
(694,1064,l),
(694,894,l),
(491,894,l)
);
}
);
width = 1168;
}
);
unicode = 8308;
},
{
glyphname = fivesuperior;
lastChange = "2025-03-21 22:10:02 +0000";
layers = (
{
layerId = m01;
shapes = (
{
closed = 1;
nodes = (
(652,536,ls),
(968,536,o),
(1106,621,o),
(1106,815,cs),
(1106,843,ls),
(1106,1035,o),
(968,1112,o),
(652,1112,cs),
(514,1112,ls),
(385,1112,o),
(301,1095,o),
(236,1038,c),
(236,1276,l),
(1031,1276,ls),
(1067,1276,o),
(1087,1296,o),
(1087,1332,cs),
(1087,1348,ls),
(1087,1384,o),
(1067,1404,o),
(1031,1404,cs),
(122,1404,ls),
(91,1404,o),
(76,1388,o),
(76,1358,cs),
(76,956,ls),
(76,927,o),
(91,910,o),
(122,910,cs),
(209,910,ls),
(228,910,o),
(239,916,o),
(253,929,cs),
(299,970,o),
(369,984,o),
(534,984,cs),
(632,984,ls),
(868,984,o),
(946,949,o),
(946,842,cs),
(946,818,ls),
(946,703,o),
(868,664,o),
(632,664,cs),
(534,664,ls),
(316,664,o),
(238,697,o),
(225,795,cs),
(221,825,o),
(207,839,o),
(177,839,cs),
(106,839,ls),
(76,839,o),
(60,823,o),
(62,793,cs),
(79,614,o),
(216,536,o),
(514,536,cs)
);
}
);
width = 1168;
},
{
layerId = m002;
shapes = (
{
closed = 1;
nodes = (
(654,536,ls),
(968,536,o),
(1106,618,o),
(1106,807,cs),
(1106,833,ls),
(1106,1022,o),
(968,1104,o),
(654,1104,cs),
(511,1104,ls),
(441,1104,o),
(396,1098,o),
(361,1084,c),
(361,1152,l),
(1046,1152,ls),
(1071,1152,o),
(1087,1168,o),
(1087,1193,cs),
(1087,1364,ls),
(1087,1388,o),
(1071,1404,o),
(1046,1404,cs),
(119,1404,ls),
(89,1404,o),
(73,1388,o),
(73,1359,cs),
(73,917,ls),
(73,888,o),
(89,873,o),
(119,873,cs),
(318,873,ls),
(323,873,o),
(336,869,o),
(361,879,cs),
(378,886,o),
(418,888,o),
(523,888,cs),
(642,888,ls),
(774,888,o),
(818,878,o),
(818,848,cs),
(818,828,ls),
(818,798,o),
(774,788,o),
(642,788,cs),
(523,788,ls),
(396,788,o),
(353,792,o),
(350,803,cs),
(344,827,o),
(329,837,o),
(303,837,cs),
(107,837,ls),
(77,837,o),
(59,821,o),
(62,791,cs),
(79,614,o),
(216,536,o),
(511,536,cs)
);
}
);
width = 1167;
}
);
unicode = 8309;
},
{
glyphname = sixsuperior;
lastChange = "2025-03-21 22:16:54 +0000";
layers = (
{
layerId = m01;
shapes = (
{
closed = 1;
nodes = (
(967,521,o),
(1105,607,o),
(1105,803,cs),
(1105,821,ls),
(1105,1018,o),
(967,1104,o),
(653,1104,cs),
(515,1104,ls),
(365,1104,o),
(276,1076,o),
(223,1012,c),
(223,1083,ls),
(223,1229,o),
(318,1293,o),
(535,1293,cs),
(633,1293,ls),
(833,1293,o),
(926,1257,o),
(940,1176,cs),
(945,1148,o),
(959,1132,o),
(988,1132,cs),
(1059,1132,ls),
(1090,1132,o),
(1107,1148,o),
(1105,1178,cs),
(1087,1348,o),
(950,1423,o),
(653,1423,cs),
(515,1423,ls),
(201,1423,o),
(63,1321,o),
(63,1088,cs),
(63,773,ls),
(63,598,o),
(201,521,o),
(515,521,cs),
(653,521,ls)
);
},
{
closed = 1;
nodes = (
(535,650,ls),
(301,650,o),
(223,689,o),
(223,804,cs),
(223,820,ls),
(223,936,o),
(301,974,o),
(535,974,cs),
(633,974,ls),
(867,974,o),
(945,936,o),
(945,820,cs),
(945,804,ls),
(945,689,o),
(867,650,o),
(633,650,cs)
);
}
);
width = 1168;
},
{
layerId = m002;
shapes = (
{
closed = 1;
nodes = (
(956,521,o),
(1105,605,o),
(1105,798,cs),
(1105,817,ls),
(1105,1000,o),
(956,1080,o),
(615,1080,cs),
(555,1080,ls),
(450,1080,o),
(387,1075,o),
(351,1063,c),
(351,1093,ls),
(351,1152,o),
(406,1171,o),
(569,1171,cs),
(601,1171,ls),
(754,1171,o),
(808,1166,o),
(816,1152,cs),
(826,1134,o),
(849,1119,o),
(868,1119,cs),
(1055,1119,ls),
(1089,1119,o),
(1107,1137,o),
(1104,1170,cs),
(1085,1346,o),
(936,1423,o),
(615,1423,cs),
(555,1423,ls),
(213,1423,o),
(63,1324,o),
(63,1098,cs),
(63,794,ls),
(63,604,o),
(213,521,o),
(555,521,cs),
(615,521,ls)
);
},
{
closed = 1;
nodes = (
(569,773,ls),
(413,773,o),
(361,783,o),
(361,811,cs),
(361,826,ls),
(361,855,o),
(413,864,o),
(569,864,cs),
(601,864,ls),
(763,864,o),
(817,855,o),
(817,827,cs),
(817,811,ls),
(817,783,o),
(763,773,o),
(601,773,cs)
);
}
);
width = 1168;
}
);
unicode = 8310;
},
{
glyphname = sevensuperior;
lastChange = "2025-03-21 22:14:01 +0000";
layers = (
{
layerId = m01;
shapes = (
{
closed = 1;
nodes = (
(384,536,ls),
(402,536,o),
(414,541,o),
(427,554,cs),
(1081,1208,ls),
(1094,1221,o),
(1105,1233,o),
(1105,1250,cs),
(1105,1367,ls),
(1105,1397,o),
(1094,1408,o),
(1064,1408,cs),
(99,1408,ls),
(63,1408,o),
(63,1388,o),
(63,1352,cs),
(63,1336,ls),
(63,1300,o),
(63,1280,o),
(99,1280,cs),
(929,1280,l),
(929,1260,l),
(248,579,ls),
(226,557,o),
(234,536,o),
(265,536,cs)
);
}
);
width = 1168;
},
{
layerId = m002;
shapes = (
{
closed = 1;
nodes = (
(446,536,ls),
(464,536,o),
(476,540,o),
(489,553,cs),
(1092,1156,ls),
(1105,1169,o),
(1106,1173,o),
(1106,1191,cs),
(1106,1374,ls),
(1106,1396,o),
(1092,1408,o),
(1070,1408,cs),
(98,1408,ls),
(75,1408,o),
(62,1396,o),
(62,1374,cs),
(62,1191,ls),
(62,1168,o),
(75,1156,o),
(98,1156,cs),
(710,1156,l),
(710,1156,l),
(131,577,ls),
(110,556,o),
(117,536,o),
(148,536,cs)
);
}
);
width = 1168;
}
);
unicode = 8311;
},
{
glyphname = eightsuperior;
lastChange = "2025-03-21 22:14:57 +0000";
layers = (
{
anchors = (
{
name = bottom;
pos = (-165,536);
},
{
name = top;
pos = (-165,1429);
}
);
layerId = m01;
shapes = (
{
closed = 1;
nodes = (
(516,1423,ls),
(213,1423,o),
(81,1349,o),
(81,1179,cs),
(81,1152,ls),
(81,1069,o),
(115,1014,o),
(194,972,c),
(102,929,o),
(62,874,o),
(62,792,cs),
(62,765,ls),
(62,595,o),
(200,521,o),
(516,521,cs),
(653,521,ls),
(968,521,o),
(1106,595,o),
(1106,765,cs),
(1106,792,ls),
(1106,874,o),
(1066,929,o),
(974,972,c),
(1053,1014,o),
(1087,1069,o),
(1087,1152,cs),
(1087,1179,ls),
(1087,1349,o),
(955,1423,o),
(653,1423,cs)
);
},
{
closed = 1;
nodes = (
(222,789,ls),
(222,878,o),
(299,908,o),
(528,908,cs),
(640,908,ls),
(870,908,o),
(946,878,o),
(946,789,cs),
(946,768,ls),
(946,679,o),
(870,649,o),
(640,649,cs),
(528,649,ls),
(299,649,o),
(222,679,o),
(222,768,cs)
);
},
{
closed = 1;
nodes = (
(241,1176,ls),
(241,1265,o),
(313,1295,o),
(528,1295,cs),
(640,1295,ls),
(855,1295,o),
(927,1265,o),
(927,1176,cs),
(927,1155,ls),
(927,1066,o),
(855,1036,o),
(640,1036,cs),
(528,1036,ls),
(313,1036,o),
(241,1066,o),
(241,1155,cs)
);
}
);
width = 1168;
},
{
anchors = (
{
name = bottom;
pos = (-523,536);
},
{
name = top;
pos = (-523,1429);
}
);
layerId = m002;
shapes = (
{
closed = 1;
nodes = (
(554,1423,ls),
(226,1423,o),
(82,1349,o),
(82,1179,cs),
(82,1152,ls),
(82,1070,o),
(118,1015,o),
(200,972,c),
(104,927,o),
(62,873,o),
(62,792,cs),
(62,765,ls),
(62,595,o),
(212,521,o),
(554,521,cs),
(613,521,ls),
(956,521,o),
(1106,595,o),
(1106,765,cs),
(1106,792,ls),
(1106,872,o),
(1064,927,o),
(967,972,c),
(1049,1015,o),
(1085,1070,o),
(1085,1152,cs),
(1085,1179,ls),
(1085,1349,o),
(941,1423,o),
(613,1423,cs)
);
},
{
closed = 1;
nodes = (
(371,829,ls),
(371,855,o),
(420,864,o),
(568,864,cs),
(599,864,ls),
(747,864,o),
(796,855,o),
(796,829,cs),
(796,808,ls),
(796,782,o),
(747,773,o),
(599,773,cs),
(568,773,ls),
(420,773,o),
(371,782,o),
(371,808,cs)
);
},
{
closed = 1;
nodes = (
(391,1136,ls),
(391,1162,o),
(435,1171,o),
(568,1171,cs),
(599,1171,ls),
(732,1171,o),
(776,1162,o),
(776,1136,cs),
(776,1115,ls),
(776,1089,o),
(732,1080,o),
(599,1080,cs),
(568,1080,ls),
(435,1080,o),
(391,1089,o),
(391,1115,cs)
);
}
);
width = 1168;
}
);
unicode = 8312;
},
{
glyphname = .notdef;
lastChange = "2025-04-27 15:44:32 +0000";
layers = (
{
layerId = m01;
shapes = (
{
closed = 1;
nodes = (
(144,80,ls),
(144,28,o),
(172,0,o),
(224,0,cs),
(1684,0,ls),
(1736,0,o),
(1764,28,o),
(1764,80,cs),
(1764,1328,ls),
(1764,1380,o),
(1736,1408,o),
(1684,1408,cs),
(224,1408,ls),
(172,1408,o),
(144,1380,o),
(144,1328,cs)
);
},
{
closed = 1;
nodes = (
(320,1236,o),
(348,1264,o),
(400,1264,cs),
(1508,1264,ls),
(1560,1264,o),
(1588,1236,o),
(1588,1184,cs),
(1588,224,ls),
(1588,172,o),
(1560,144,o),
(1508,144,cs),
(400,144,ls),
(348,144,o),
(320,172,o),
(320,224,cs),
(320,1184,ls)
);
}
);
width = 1908;
},
{
layerId = m002;
shapes = (
{
closed = 1;
nodes = (
(144,80,ls),
(144,28,o),
(172,0,o),
(224,0,cs),
(1684,0,ls),
(1736,0,o),
(1764,28,o),
(1764,80,cs),
(1764,1328,ls),
(1764,1380,o),
(1736,1408,o),
(1684,1408,cs),
(224,1408,ls),
(172,1408,o),
(144,1380,o),
(144,1328,cs)
);
},
{
closed = 1;
nodes = (
(540,1056,o),
(568,1084,o),
(620,1084,cs),
(1288,1084,ls),
(1340,1084,o),
(1368,1056,o),
(1368,1004,cs),
(1368,404,ls),
(1368,352,o),
(1340,324,o),
(1288,324,cs),
(620,324,ls),
(568,324,o),
(540,352,o),
(540,404,cs),
(540,1004,ls)
);
}
);
width = 1908;
}
);
note = .notdef;
},
{
glyphname = period;
kernLeft = period;
kernRight = period;
lastChange = "2025-03-15 22:35:21 +0000";
layers = (
{
layerId = m01;
shapes = (
{
closed = 1;
nodes = (
(262,0,ls),
(310,0,o),
(336,26,o),
(336,74,cs),
(336,150,ls),
(336,198,o),
(310,224,o),
(262,224,cs),
(187,224,ls),
(138,224,o),
(112,198,o),
(112,150,cs),
(112,74,ls),
(112,26,o),
(138,0,o),
(187,0,cs)
);
}
);
width = 448;
},
{
layerId = m002;
shapes = (
{
closed = 1;
nodes = (
(397,0,ls),
(446,0,o),
(472,26,o),
(472,74,cs),
(472,250,ls),
(472,298,o),
(446,324,o),
(397,324,cs),
(187,324,ls),
(138,324,o),
(112,298,o),
(112,250,cs),
(112,74,ls),
(112,26,o),
(138,0,o),
(187,0,cs)
);
}
);
width = 584;
}
);
unicode = 46;
},
{
glyphname = comma;
kernLeft = period;
kernRight = period;
lastChange = "2025-03-15 22:37:57 +0000";
layers = (
{
layerId = m01;
shapes = (
{
closed = 1;
nodes = (
(299,-238,o),
(348,-166,o),
(348,0,cs),
(348,150,ls),
(348,198,o),
(322,224,o),
(274,224,cs),
(199,224,ls),
(150,224,o),
(124,198,o),
(124,150,cs),
(124,74,ls),
(124,26,o),
(150,0,o),
(199,0,cs),
(220,0,l),
(220,-82,o),
(206,-110,o),
(165,-110,cs),
(126,-110,o),
(96,-128,o),
(96,-167,cs),
(96,-185,ls),
(96,-224,o),
(126,-238,o),
(187,-238,cs)
);
}
);
width = 460;
},
{
layerId = m002;
shapes = (
{
closed = 1;
nodes = (
(391,-402,o),
(480,-280,o),
(480,0,cs),
(480,250,ls),
(480,298,o),
(454,324,o),
(405,324,cs),
(195,324,ls),
(146,324,o),
(120,298,o),
(120,250,cs),
(120,74,ls),
(120,26,o),
(146,0,o),
(195,0,cs),
(224,0,l),
(224,-112,o),
(211,-150,o),
(171,-150,cs),
(122,-150,o),
(96,-176,o),
(96,-224,cs),
(96,-328,ls),
(96,-376,o),
(122,-402,o),
(188,-402,cs)
);
}
);
width = 592;
}
);
unicode = 44;
},
{
glyphname = colon;
kernLeft = l;
kernRight = l;
lastChange = "2025-03-15 22:37:13 +0000";
layers = (
{
layerId = m01;
shapes = (
{
closed = 1;
nodes = (
(262,848,ls),
(310,848,o),
(336,874,o),
(336,922,cs),
(336,997,ls),
(336,1046,o),
(310,1072,o),
(262,1072,cs),
(187,1072,ls),
(138,1072,o),
(112,1046,o),
(112,997,cs),
(112,922,ls),
(112,874,o),
(138,848,o),
(187,848,cs)
);
},
{
closed = 1;
nodes = (
(262,0,ls),
(310,0,o),
(336,26,o),
(336,74,cs),
(336,150,ls),
(336,198,o),
(310,224,o),
(262,224,cs),
(187,224,ls),
(138,224,o),
(112,198,o),
(112,150,cs),
(112,74,ls),
(112,26,o),
(138,0,o),
(187,0,cs)
);
}
);
width = 448;
},
{
layerId = m002;
shapes = (
{
closed = 1;
nodes = (
(397,748,ls),
(446,748,o),
(472,774,o),
(472,822,cs),
(472,997,ls),
(472,1046,o),
(446,1072,o),
(397,1072,cs),
(187,1072,ls),
(138,1072,o),
(112,1046,o),
(112,997,cs),
(112,822,ls),
(112,774,o),
(138,748,o),
(187,748,cs)
);
},
{
closed = 1;
nodes = (
(397,0,ls),
(446,0,o),
(472,26,o),
(472,74,cs),
(472,250,ls),
(472,298,o),
(446,324,o),
(397,324,cs),
(187,324,ls),
(138,324,o),
(112,298,o),
(112,250,cs),
(112,74,ls),
(112,26,o),
(138,0,o),
(187,0,cs)
);
}
);
width = 584;
}
);
unicode = 58;
},
{
glyphname = bullet;
kernLeft = l;
kernRight = l;
lastChange = "2025-03-15 22:43:48 +0000";
layers = (
{
layerId = m01;
shapes = (
{
closed = 1;
nodes = (
(581,544,ls),
(630,544,o),
(656,570,o),
(656,618,cs),
(656,790,ls),
(656,838,o),
(630,864,o),
(581,864,cs),
(411,864,ls),
(362,864,o),
(336,838,o),
(336,790,cs),
(336,618,ls),
(336,570,o),
(362,544,o),
(411,544,cs)
);
}
);
width = 992;
},
{
layerId = m002;
shapes = (
{
closed = 1;
nodes = (
(734,468,ls),
(782,468,o),
(808,494,o),
(808,542,cs),
(808,865,ls),
(808,914,o),
(782,940,o),
(734,940,cs),
(411,940,ls),
(362,940,o),
(336,914,o),
(336,865,cs),
(336,542,ls),
(336,494,o),
(362,468,o),
(411,468,cs)
);
}
);
width = 1144;
}
);
unicode = 8226;
},
{
glyphname = asterisk;
lastChange = "2025-03-15 22:44:21 +0000";
layers = (
{
layerId = m01;
shapes = (
{
closed = 1;
nodes = (
(393,979,ls),
(429,979,o),
(449,998,o),
(449,1035,cs),
(449,1111,l),
(515,1073,ls),
(546,1054,o),
(572,1062,o),
(591,1093,cs),
(597,1103,ls),
(614,1134,o),
(608,1161,o),
(576,1179,cs),
(510,1217,l),
(576,1255,ls),
(608,1273,o),
(614,1300,o),
(597,1332,cs),
(591,1341,ls),
(572,1372,o),
(546,1380,o),
(515,1361,cs),
(449,1323,l),
(449,1399,ls),
(449,1436,o),
(429,1455,o),
(393,1455,cs),
(382,1455,ls),
(345,1455,o),
(326,1436,o),
(326,1399,cs),
(326,1323,l),
(260,1361,ls),
(228,1380,o),
(202,1372,o),
(184,1341,cs),
(178,1332,ls),
(160,1300,o),
(167,1273,o),
(198,1255,cs),
(264,1217,l),
(198,1179,ls),
(167,1161,o),
(160,1134,o),
(178,1103,cs),
(184,1093,ls),
(202,1062,o),
(228,1054,o),
(260,1073,cs),
(326,1111,l),
(326,1035,ls),
(326,998,o),
(345,979,o),
(382,979,cs)
);
}
);
width = 774;
},
{
layerId = m002;
shapes = (
{
closed = 1;
nodes = (
(574,875,ls),
(623,875,o),
(665,903,o),
(649,949,cs),
(620,1032,l),
(681,971,ls),
(716,937,o),
(767,943,o),
(791,985,cs),
(851,1090,ls),
(875,1131,o),
(858,1186,o),
(811,1198,cs),
(728,1217,l),
(811,1237,ls),
(850,1246,o),
(875,1302,o),
(851,1344,cs),
(791,1448,ls),
(767,1490,o),
(711,1494,o),
(681,1465,cs),
(620,1402,l),
(649,1484,ls),
(665,1531,o),
(623,1559,o),
(574,1559,cs),
(455,1559,ls),
(407,1559,o),
(365,1531,o),
(381,1484,cs),
(408,1402,l),
(348,1465,ls),
(314,1500,o),
(263,1490,o),
(238,1448,cs),
(179,1344,ls),
(155,1302,o),
(170,1248,o),
(219,1237,cs),
(302,1217,l),
(219,1198,ls),
(171,1186,o),
(155,1132,o),
(179,1090,cs),
(238,985,ls),
(263,944,o),
(314,937,o),
(348,971,cs),
(408,1032,l),
(381,949,ls),
(366,904,o),
(407,875,o),
(455,875,cs)
);
}
);
width = 1030;
}
);
unicode = 42;
},
{
glyphname = numbersign;
kernLeft = A;
kernRight = V;
lastChange = "2025-03-15 22:44:35 +0000";
layers = (
{
layerId = m01;
shapes = (
{
closed = 1;
nodes = (
(379,0,ls),
(423,0,o),
(451,20,o),
(462,63,cs),
(787,1272,ls),
(801,1324,o),
(776,1355,o),
(723,1355,cs),
(690,1355,ls),
(646,1355,o),
(618,1334,o),
(607,1292,cs),
(283,83,ls),
(269,31,o),
(294,0,o),
(347,0,cs)
);
},
{
closed = 1;
nodes = (
(923,0,ls),
(966,0,o),
(994,20,o),
(1006,63,cs),
(1330,1272,ls),
(1344,1324,o),
(1319,1355,o),
(1266,1355,cs),
(1233,1355,ls),
(1190,1355,o),
(1162,1334,o),
(1151,1292,cs),
(826,83,ls),
(812,31,o),
(837,0,o),
(890,0,cs)
);
},
{
closed = 1;
nodes = (
(209,932,ls),
(197,887,o),
(219,857,o),
(267,857,cs),
(1462,857,ls),
(1501,857,o),
(1527,875,o),
(1537,914,cs),
(1542,931,ls),
(1554,977,o),
(1531,1006,o),
(1484,1006,cs),
(288,1006,ls),
(249,1006,o),
(224,988,o),
(214,949,cs)
);
},
{
closed = 1;
nodes = (
(87,477,ls),
(75,432,o),
(97,402,o),
(145,402,cs),
(1340,402,ls),
(1380,402,o),
(1405,420,o),
(1415,459,cs),
(1420,476,ls),
(1432,522,o),
(1409,551,o),
(1362,551,cs),
(166,551,ls),
(127,551,o),
(102,533,o),
(92,494,cs)
);
}
);
width = 1557;
},
{
layerId = m002;
shapes = (
{
closed = 1;
nodes = (
(478,0,ls),
(522,0,o),
(550,20,o),
(561,63,cs),
(885,1272,ls),
(899,1324,o),
(874,1355,o),
(821,1355,cs),
(627,1355,ls),
(583,1355,o),
(555,1334,o),
(544,1292,cs),
(219,83,ls),
(205,31,o),
(230,0,o),
(283,0,cs)
);
},
{
closed = 1;
nodes = (
(1021,0,ls),
(1065,0,o),
(1093,20,o),
(1104,63,cs),
(1429,1272,ls),
(1443,1324,o),
(1418,1355,o),
(1365,1355,cs),
(1170,1355,ls),
(1126,1355,o),
(1099,1334,o),
(1087,1292,cs),
(763,83,ls),
(749,31,o),
(774,0,o),
(827,0,cs)
);
},
{
closed = 1;
nodes = (
(197,820,ls),
(184,770,o),
(207,744,o),
(255,744,cs),
(1450,744,ls),
(1489,744,o),
(1514,759,o),
(1525,801,cs),
(1561,938,ls),
(1574,987,o),
(1551,1012,o),
(1503,1012,cs),
(308,1012,ls),
(269,1012,o),
(244,997,o),
(233,956,cs)
);
},
{
closed = 1;
nodes = (
(88,418,ls),
(75,368,o),
(98,342,o),
(146,342,cs),
(1341,342,ls),
(1380,342,o),
(1405,357,o),
(1416,399,cs),
(1453,536,ls),
(1466,585,o),
(1443,610,o),
(1395,610,cs),
(200,610,ls),
(161,610,o),
(136,596,o),
(125,554,cs)
);
}
);
width = 1577;
}
);
unicode = 35;
},
{
glyphname = slash;
kernLeft = A;
kernRight = V;
lastChange = "2025-03-15 22:44:54 +0000";
layers = (
{
layerId = m01;
shapes = (
{
closed = 1;
nodes = (
(143,0,ls),
(185,0,o),
(211,16,o),
(222,57,cs),
(566,1321,ls),
(580,1374,o),
(573,1408,o),
(517,1408,cs),
(504,1408,ls),
(462,1408,o),
(436,1391,o),
(425,1351,cs),
(82,87,ls),
(67,33,o),
(78,0,o),
(131,0,cs)
);
}
);
width = 648;
},
{
layerId = m002;
shapes = (
{
closed = 1;
nodes = (
(323,0,ls),
(364,0,o),
(398,16,o),
(409,57,cs),
(757,1323,ls),
(771,1375,o),
(755,1408,o),
(699,1408,cs),
(515,1408,ls),
(473,1408,o),
(439,1391,o),
(428,1351,cs),
(81,85,ls),
(67,32,o),
(81,0,o),
(134,0,cs)
);
}
);
width = 838;
}
);
unicode = 47;
},
{
glyphname = hyphen;
lastChange = "2025-03-15 22:18:38 +0000";
layers = (
{
layerId = m01;
shapes = (
{
closed = 1;
nodes = (
(112,696,ls),
(112,660,o),
(131,632,o),
(168,632,cs),
(760,632,ls),
(797,632,o),
(816,660,o),
(815,696,cs),
(816,712,ls),
(816,749,o),
(796,776,o),
(760,776,cs),
(168,776,ls),
(132,776,o),
(112,749,o),
(112,712,cs)
);
}
);
width = 928;
},
{
layerId = m002;
shapes = (
{
closed = 1;
nodes = (
(112,612,ls),
(112,575,o),
(132,556,o),
(168,556,cs),
(760,556,ls),
(796,556,o),
(816,575,o),
(816,612,cs),
(816,797,ls),
(816,833,o),
(796,852,o),
(760,852,cs),
(168,852,ls),
(132,852,o),
(112,833,o),
(112,797,cs)
);
}
);
width = 928;
}
);
unicode = 45;
},
{
glyphname = endash;
lastChange = "2025-03-15 22:19:08 +0000";
layers = (
{
layerId = m01;
shapes = (
{
closed = 1;
nodes = (
(56,696,ls),
(56,660,o),
(75,632,o),
(111,632,cs),
(892,632,ls),
(928,632,o),
(948,660,o),
(948,696,cs),
(948,712,ls),
(948,749,o),
(928,776,o),
(892,776,cs),
(111,776,ls),
(75,776,o),
(56,749,o),
(56,712,cs)
);
}
);
width = 1004;
},
{
layerId = m002;
shapes = (
{
closed = 1;
nodes = (
(56,620,ls),
(56,583,o),
(75,564,o),
(111,564,cs),
(892,564,ls),
(928,564,o),
(948,583,o),
(948,620,cs),
(948,810,ls),
(948,846,o),
(928,865,o),
(892,865,cs),
(111,865,ls),
(75,865,o),
(56,846,o),
(56,810,cs)
);
}
);
width = 1004;
}
);
unicode = 8211;
},
{
glyphname = emdash;
lastChange = "2025-03-04 01:00:46 +0000";
layers = (
{
layerId = m01;
shapes = (
{
closed = 1;
nodes = (
(0,696,ls),
(0,660,o),
(20,632,o),
(56,632,cs),
(1016,632,ls),
(1052,632,o),
(1072,660,o),
(1072,696,cs),
(1072,712,ls),
(1072,749,o),
(1052,776,o),
(1016,776,cs),
(56,776,ls),
(20,776,o),
(0,749,o),
(0,712,cs)
);
}
);
width = 1072;
},
{
layerId = m002;
shapes = (
{
closed = 1;
nodes = (
(0,603,ls),
(0,567,o),
(20,547,o),
(56,547,cs),
(1016,547,ls),
(1052,547,o),
(1072,567,o),
(1072,603,cs),
(1072,826,ls),
(1072,863,o),
(1052,882,o),
(1016,882,cs),
(56,882,ls),
(20,882,o),
(0,863,o),
(0,826,cs)
);
}
);
width = 1072;
}
);
unicode = 8212;
},
{
glyphname = underscore;
lastChange = "2025-03-15 22:19:26 +0000";
layers = (
{
layerId = m01;
shapes = (
{
closed = 1;
nodes = (
(0,-110,ls),
(0,-146,o),
(20,-174,o),
(56,-174,cs),
(903,-174,ls),
(939,-174,o),
(960,-146,o),
(960,-110,cs),
(960,-94,ls),
(960,-57,o),
(939,-30,o),
(903,-30,cs),
(56,-30,ls),
(20,-30,o),
(0,-57,o),
(0,-94,cs)
);
}
);
width = 960;
},
{
layerId = m002;
shapes = (
{
closed = 1;
nodes = (
(0,-275,ls),
(0,-312,o),
(20,-331,o),
(56,-331,cs),
(904,-331,ls),
(940,-331,o),
(960,-312,o),
(960,-275,cs),
(960,-86,ls),
(960,-49,o),
(940,-30,o),
(904,-30,cs),
(56,-30,ls),
(20,-30,o),
(0,-49,o),
(0,-86,cs)
);
}
);
width = 960;
}
);
unicode = 95;
},
{
glyphname = parenleft;
lastChange = "2025-03-15 22:26:03 +0000";
layers = (
{
layerId = m01;
shapes = (
{
closed = 1;
nodes = (
(521,-128,ls),
(561,-128,o),
(588,-105,o),
(588,-64,cs),
(588,-48,ls),
(588,-8,o),
(561,16,o),
(521,16,cs),
(485,16,ls),
(337,16,o),
(288,71,o),
(288,236,cs),
(288,1173,ls),
(288,1337,o),
(337,1392,o),
(485,1392,cs),
(521,1392,ls),
(561,1392,o),
(588,1415,o),
(588,1456,cs),
(588,1472,ls),
(588,1512,o),
(561,1536,o),
(521,1536,cs),
(466,1536,ls),
(220,1536,o),
(112,1418,o),
(112,1147,cs),
(112,260,ls),
(112,-10,o),
(220,-128,o),
(466,-128,cs)
);
}
);
width = 700;
},
{
layerId = m002;
shapes = (
{
closed = 1;
nodes = (
(621,-128,ls),
(662,-128,o),
(688,-101,o),
(688,-59,cs),
(688,126,ls),
(688,169,o),
(662,196,o),
(621,196,cs),
(615,196,ls),
(535,196,o),
(508,250,o),
(508,412,cs),
(508,996,ls),
(508,1158,o),
(535,1212,o),
(615,1212,cs),
(621,1212,ls),
(662,1212,o),
(688,1239,o),
(688,1282,cs),
(688,1467,ls),
(688,1508,o),
(662,1536,o),
(621,1536,cs),
(577,1536,ls),
(253,1536,o),
(112,1380,o),
(112,1024,cs),
(112,383,ls),
(112,27,o),
(253,-128,o),
(577,-128,cs)
);
}
);
width = 800;
}
);
unicode = 40;
},
{
glyphname = braceleft;
lastChange = "2025-03-15 22:32:11 +0000";
layers = (
{
layerId = m01;
shapes = (
{
closed = 1;
nodes = (
(613,-128,ls),
(654,-128,o),
(680,-106,o),
(680,-64,cs),
(680,-48,ls),
(680,-7,o),
(654,16,o),
(613,16,cs),
(580,16,ls),
(430,16,o),
(380,69,o),
(380,227,cs),
(380,407,ls),
(380,547,o),
(358,637,o),
(307,704,c),
(358,770,o),
(380,860,o),
(380,1000,cs),
(380,1180,ls),
(380,1339,o),
(430,1392,o),
(580,1392,cs),
(613,1392,ls),
(654,1392,o),
(680,1414,o),
(680,1456,cs),
(680,1472,ls),
(680,1513,o),
(654,1536,o),
(613,1536,cs),
(560,1536,ls),
(312,1536,o),
(204,1420,o),
(204,1154,cs),
(204,974,ls),
(204,826,o),
(186,776,o),
(131,776,cs),
(95,776,ls),
(54,776,o),
(28,755,o),
(28,712,cs),
(28,696,ls),
(28,653,o),
(54,632,o),
(95,632,cs),
(131,632,ls),
(186,632,o),
(204,582,o),
(204,433,cs),
(204,253,ls),
(204,-12,o),
(312,-128,o),
(560,-128,cs)
);
}
);
width = 792;
},
{
layerId = m002;
shapes = (
{
closed = 1;
nodes = (
(715,-128,ls),
(754,-128,o),
(780,-101,o),
(780,-59,cs),
(780,126,ls),
(780,169,o),
(754,196,o),
(715,196,cs),
(698,196,ls),
(625,196,o),
(600,239,o),
(600,366,cs),
(600,407,ls),
(600,541,o),
(576,632,o),
(521,704,c),
(576,775,o),
(600,865,o),
(600,1000,cs),
(600,1041,ls),
(600,1169,o),
(625,1212,o),
(698,1212,cs),
(715,1212,ls),
(754,1212,o),
(780,1239,o),
(780,1282,cs),
(780,1467,ls),
(780,1508,o),
(754,1536,o),
(715,1536,cs),
(660,1536,ls),
(343,1536,o),
(204,1377,o),
(204,1015,cs),
(204,974,ls),
(204,893,o),
(185,866,o),
(129,866,cs),
(94,866,ls),
(54,866,o),
(28,839,o),
(28,796,cs),
(28,611,ls),
(28,569,o),
(54,542,o),
(94,542,cs),
(129,542,ls),
(185,542,o),
(204,515,o),
(204,433,cs),
(204,391,ls),
(204,30,o),
(343,-128,o),
(660,-128,cs)
);
}
);
width = 892;
}
);
unicode = 123;
},
{
glyphname = bracketleft;
lastChange = "2025-03-15 22:26:26 +0000";
layers = (
{
layerId = m01;
shapes = (
{
closed = 1;
nodes = (
(521,-128,ls),
(561,-128,o),
(588,-105,o),
(588,-64,cs),
(588,-48,ls),
(588,-8,o),
(561,16,o),
(521,16,cs),
(289,16,l),
(289,1392,l),
(521,1392,ls),
(561,1392,o),
(588,1415,o),
(588,1456,cs),
(588,1472,ls),
(588,1512,o),
(561,1536,o),
(521,1536,cs),
(187,1536,ls),
(138,1536,o),
(112,1509,o),
(112,1461,cs),
(112,-54,ls),
(112,-102,o),
(138,-128,o),
(187,-128,cs)
);
}
);
width = 700;
},
{
layerId = m002;
shapes = (
{
closed = 1;
nodes = (
(621,-128,ls),
(662,-128,o),
(688,-102,o),
(688,-61,cs),
(688,129,ls),
(688,170,o),
(662,196,o),
(621,196,cs),
(508,196,l),
(508,1212,l),
(621,1212,ls),
(662,1212,o),
(688,1238,o),
(688,1279,cs),
(688,1469,ls),
(688,1509,o),
(662,1536,o),
(621,1536,cs),
(187,1536,ls),
(138,1536,o),
(112,1509,o),
(112,1461,cs),
(112,-54,ls),
(112,-102,o),
(138,-128,o),
(187,-128,cs)
);
}
);
width = 800;
}
);
unicode = 91;
},
{
glyphname = guilsinglleft;
lastChange = "2025-03-15 22:46:55 +0000";
layers = (
{
layerId = m01;
shapes = (
{
closed = 1;
nodes = (
(565,1032,o),
(567,1066,o),
(539,1094,cs),
(532,1101,ls),
(504,1129,o),
(472,1129,o),
(436,1094,cs),
(152,810,ls),
(125,783,o),
(112,757,o),
(112,719,cs),
(112,691,ls),
(112,652,o),
(125,625,o),
(152,599,cs),
(436,315,ls),
(472,280,o),
(504,279,o),
(532,307,cs),
(539,313,ls),
(567,341,o),
(565,377,o),
(531,410,cs),
(247,695,l),
(247,714,l),
(531,999,ls)
);
}
);
width = 670;
},
{
layerId = m002;
shapes = (
{
closed = 1;
nodes = (
(692,935,o),
(696,969,o),
(667,997,cs),
(542,1122,ls),
(515,1150,o),
(481,1150,o),
(446,1115,cs),
(152,821,ls),
(125,794,o),
(112,768,o),
(112,730,cs),
(112,702,ls),
(112,663,o),
(125,637,o),
(152,610,cs),
(447,315,ls),
(481,281,o),
(515,279,o),
(542,307,cs),
(668,433,ls),
(695,460,o),
(692,495,o),
(659,529,cs),
(482,705,l),
(482,725,l),
(659,902,ls)
);
}
);
width = 798;
}
);
unicode = 8249;
},
{
glyphname = quotesingle;
lastChange = "2025-03-15 22:47:13 +0000";
layers = (
{
layerId = m01;
shapes = (
{
closed = 1;
nodes = (
(196,953,ls),
(232,953,o),
(255,968,o),
(257,1007,cs),
(272,1372,ls),
(274,1411,o),
(248,1429,o),
(209,1429,cs),
(175,1429,ls),
(136,1429,o),
(110,1411,o),
(112,1372,cs),
(127,1007,ls),
(129,968,o),
(152,953,o),
(188,953,cs)
);
}
);
width = 384;
},
{
layerId = m002;
shapes = (
{
closed = 1;
nodes = (
(352,953,ls),
(388,953,o),
(410,968,o),
(414,1007,cs),
(447,1372,ls),
(451,1411,o),
(423,1429,o),
(384,1429,cs),
(175,1429,ls),
(136,1429,o),
(108,1411,o),
(112,1372,cs),
(146,1007,ls),
(149,968,o),
(171,953,o),
(207,953,cs)
);
}
);
width = 559;
}
);
unicode = 39;
},
{
glyphname = repeatArrow;
lastChange = "2025-09-20 22:20:54 +0000";
layers = (
{
layerId = m01;
shapes = (
{
closed = 1;
nodes = (
(170,643,ls),
(170,595,o),
(200,577,o),
(242,602,cs),
(305,639,ls),
(333,656,o),
(346,670,o),
(346,685,cs),
(346,685,ls),
(346,892,o),
(502,944,o),
(618,944,cs),
(1022,944,l),
(1022,841,ls),
(1022,794,o),
(1053,775,o),
(1094,799,cs),
(1397,976,ls),
(1438,1000,o),
(1438,1034,o),
(1397,1058,cs),
(1094,1233,ls),
(1053,1257,o),
(1022,1238,o),
(1022,1191,cs),
(1022,1088,l),
(612,1088,ls),
(304,1088,o),
(170,958,o),
(170,687,cs)
);
},
{
closed = 1;
nodes = (
(1438,765,ls),
(1438,813,o),
(1407,830,o),
(1366,806,cs),
(1303,769,ls),
(1275,752,o),
(1262,738,o),
(1262,723,cs),
(1262,723,ls),
(1262,516,o),
(1106,464,o),
(990,464,cs),
(586,464,l),
(586,567,ls),
(586,614,o),
(555,633,o),
(514,609,cs),
(211,432,ls),
(170,408,o),
(170,374,o),
(211,350,cs),
(514,175,ls),
(555,151,o),
(586,170,o),
(586,217,cs),
(586,320,l),
(996,320,ls),
(1304,320,o),
(1438,472,o),
(1438,743,cs)
);
}
);
width = 1608;
},
{
layerId = m002;
shapes = (
{
closed = 1;
nodes = (
(126,678,ls),
(126,614,o),
(167,591,o),
(222,625,cs),
(446,766,ls),
(474,784,o),
(486,798,o),
(486,813,cs),
(486,813,ls),
(486,846,o),
(550,898,o),
(666,898,cs),
(974,898,l),
(974,795,ls),
(974,748,o),
(1006,728,o),
(1046,753,cs),
(1441,1000,ls),
(1481,1025,o),
(1481,1059,o),
(1441,1084,cs),
(1046,1331,ls),
(1006,1356,o),
(974,1336,o),
(974,1289,cs),
(974,1186,l),
(660,1186,ls),
(260,1186,o),
(126,1056,o),
(126,691,cs)
);
},
{
closed = 1;
nodes = (
(1482,730,ls),
(1482,794,o),
(1441,817,o),
(1386,783,cs),
(1162,642,ls),
(1134,624,o),
(1122,610,o),
(1122,595,cs),
(1122,595,ls),
(1122,562,o),
(1058,510,o),
(942,510,cs),
(634,510,l),
(634,613,ls),
(634,660,o),
(602,680,o),
(562,655,cs),
(167,408,ls),
(127,383,o),
(127,349,o),
(167,324,cs),
(562,77,ls),
(602,52,o),
(634,72,o),
(634,119,cs),
(634,222,l),
(948,222,ls),
(1348,222,o),
(1482,348,o),
(1482,717,cs)
);
}
);
width = 1608;
}
);
unicode = 128257;
},
{
glyphname = ballotBox;
kernLeft = H;
kernRight = H;
lastChange = "2025-09-20 20:53:09 +0000";
layers = (
{
layerId = m01;
shapes = (
{
closed = 1;
nodes = (
(144,80,ls),
(144,28,o),
(172,0,o),
(224,0,cs),
(1684,0,ls),
(1736,0,o),
(1764,28,o),
(1764,80,cs),
(1764,1328,ls),
(1764,1380,o),
(1736,1408,o),
(1684,1408,cs),
(224,1408,ls),
(172,1408,o),
(144,1380,o),
(144,1328,cs)
);
},
{
closed = 1;
nodes = (
(320,1236,o),
(348,1264,o),
(400,1264,cs),
(1508,1264,ls),
(1560,1264,o),
(1588,1236,o),
(1588,1184,cs),
(1588,224,ls),
(1588,172,o),
(1560,144,o),
(1508,144,cs),
(400,144,ls),
(348,144,o),
(320,172,o),
(320,224,cs),
(320,1184,ls)
);
}
);
width = 1908;
},
{
layerId = m002;
shapes = (
{
closed = 1;
nodes = (
(144,80,ls),
(144,28,o),
(172,0,o),
(224,0,cs),
(1684,0,ls),
(1736,0,o),
(1764,28,o),
(1764,80,cs),
(1764,1328,ls),
(1764,1380,o),
(1736,1408,o),
(1684,1408,cs),
(224,1408,ls),
(172,1408,o),
(144,1380,o),
(144,1328,cs)
);
},
{
closed = 1;
nodes = (
(540,1056,o),
(568,1084,o),
(620,1084,cs),
(1288,1084,ls),
(1340,1084,o),
(1368,1056,o),
(1368,1004,cs),
(1368,404,ls),
(1368,352,o),
(1340,324,o),
(1288,324,cs),
(620,324,ls),
(568,324,o),
(540,352,o),
(540,404,cs),
(540,1004,ls)
);
}
);
width = 1908;
}
);
unicode = 9744;
},
{
glyphname = spadeBlackSuit;
lastChange = "2025-04-27 15:55:28 +0000";
layers = (
{
layerId = m01;
shapes = (
{
closed = 1;
nodes = (
(876,0,ls),
(915,0,o),
(936,21,o),
(936,60,cs),
(936,81,ls),
(936,110,o),
(929,131,o),
(913,157,cs),
(879,210,o),
(790,260,o),
(772,307,c),
(780,301,o),
(830,304,o),
(885,314,cs),
(1008,334,o),
(1104,486,o),
(1104,660,cs),
(1104,862,o),
(1038,1152,o),
(686,1514,cs),
(673,1527,o),
(655,1536,o),
(640,1536,cs),
(625,1536,o),
(607,1527,o),
(594,1514,cs),
(242,1152,o),
(176,862,o),
(176,660,cs),
(176,486,o),
(272,334,o),
(395,314,cs),
(450,304,o),
(500,301,o),
(508,307,c),
(490,260,o),
(401,210,o),
(367,157,cs),
(351,131,o),
(344,110,o),
(344,81,cs),
(344,60,ls),
(344,21,o),
(365,0,o),
(404,0,cs)
);
}
);
width = 1280;
},
{
layerId = m002;
shapes = (
{
closed = 1;
nodes = (
(1100,1,ls),
(1139,1,o),
(1160,22,o),
(1160,61,cs),
(1160,82,ls),
(1160,111,o),
(1153,132,o),
(1137,158,cs),
(1103,212,o),
(936,261,o),
(918,308,c),
(963,280,o),
(1048,284,o),
(1109,315,cs),
(1185,354,o),
(1244,506,o),
(1244,660,cs),
(1244,860,o),
(1120,1151,o),
(768,1513,cs),
(754,1528,o),
(737,1535,o),
(720,1536,cs),
(703,1535,o),
(686,1528,o),
(672,1513,cs),
(320,1151,o),
(198,860,o),
(198,660,cs),
(198,506,o),
(257,354,o),
(331,315,cs),
(392,283,o),
(476,280,o),
(522,308,c),
(504,261,o),
(337,212,o),
(303,158,cs),
(287,132,o),
(280,111,o),
(280,82,cs),
(280,61,ls),
(280,22,o),
(301,1,o),
(340,1,cs)
);
}
);
width = 1440;
}
);
unicode = 9824;
},
{
glyphname = heartWhiteSuit;
lastChange = "2025-03-21 16:45:57 +0000";
layers = (
{
layerId = m01;
shapes = (
{
closed = 1;
nodes = (
(658,50,o),
(679,61,o),
(695,77,cs),
(1133,507,o),
(1248,713,o),
(1248,975,cs),
(1248,1212,o),
(1104,1358,o),
(935,1358,cs),
(814,1358,o),
(715,1319,o),
(656,1184,cs),
(650,1171,o),
(645,1164,o),
(640,1164,cs),
(635,1164,o),
(630,1171,o),
(624,1184,cs),
(565,1319,o),
(466,1358,o),
(345,1358,cs),
(176,1358,o),
(32,1212,o),
(32,975,cs),
(32,713,o),
(147,507,o),
(585,77,cs),
(601,61,o),
(622,50,o),
(640,50,cs)
);
},
{
closed = 1;
nodes = (
(233,607,o),
(160,776,o),
(160,975,cs),
(160,1125,o),
(236,1229,o),
(345,1229,cs),
(544,1229,o),
(491,1036,o),
(640,1036,cs),
(789,1036,o),
(736,1229,o),
(935,1229,cs),
(1044,1229,o),
(1120,1125,o),
(1120,975,cs),
(1120,776,o),
(1047,607,o),
(640,203,c)
);
}
);
width = 1280;
},
{
layerId = m002;
shapes = (
{
closed = 1;
nodes = (
(742,56,o),
(763,65,o),
(783,82,cs),
(1284,508,o),
(1416,713,o),
(1416,973,cs),
(1416,1208,o),
(1252,1352,o),
(1059,1352,cs),
(919,1352,o),
(806,1314,o),
(738,1180,cs),
(732,1167,o),
(726,1160,o),
(720,1160,cs),
(714,1160,o),
(708,1167,o),
(702,1180,cs),
(634,1314,o),
(521,1352,o),
(381,1352,cs),
(188,1352,o),
(24,1208,o),
(24,973,cs),
(24,713,o),
(156,508,o),
(657,82,cs),
(677,65,o),
(698,56,o),
(720,56,cs)
);
},
{
closed = 1;
nodes = (
(518,489,o),
(408,601,o),
(330,713,cs),
(213,879,o),
(196,1136,o),
(381,1136,cs),
(571,1136,o),
(530,944,o),
(720,944,cs),
(910,944,o),
(869,1136,o),
(1059,1136,cs),
(1243,1136,o),
(1229,882,o),
(1110,713,cs),
(1031,599,o),
(933,499,o),
(720,313,c)
);
}
);
width = 1440;
}
);
unicode = 9825;
},
{
glyphname = diamondWhiteSuit;
lastChange = "2025-03-12 17:05:39 +0000";
layers = (
{
layerId = m01;
shapes = (
{
closed = 1;
nodes = (
(680,0,ls),
(706,0,o),
(720,11,o),
(736,33,cs),
(1176,653,ls),
(1199,687,o),
(1200,721,o),
(1176,755,cs),
(736,1375,ls),
(720,1398,o),
(706,1408,o),
(680,1408,cs),
(580,1408,ls),
(554,1408,o),
(540,1398,o),
(524,1375,cs),
(84,755,ls),
(60,721,o),
(60,687,o),
(84,653,cs),
(524,33,ls),
(540,11,o),
(554,0,o),
(580,0,cs)
);
},
{
closed = 1;
nodes = (
(614,191,o),
(605,198,o),
(598,207,cs),
(262,683,ls),
(254,695,o),
(254,713,o),
(262,725,cs),
(598,1200,ls),
(605,1209,o),
(614,1216,o),
(619,1216,cs),
(641,1216,ls),
(646,1216,o),
(655,1209,o),
(662,1200,cs),
(998,725,ls),
(1006,713,o),
(1006,695,o),
(998,683,cs),
(662,207,ls),
(655,198,o),
(646,191,o),
(641,191,cs),
(619,191,ls)
);
}
);
width = 1260;
},
{
layerId = m002;
shapes = (
{
closed = 1;
nodes = (
(677,11,ls),
(705,11,o),
(723,21,o),
(741,44,cs),
(1225,664,ls),
(1252,698,o),
(1252,731,o),
(1225,765,cs),
(741,1385,ls),
(723,1408,o),
(705,1419,o),
(677,1419,cs),
(627,1419,ls),
(598,1419,o),
(581,1408,o),
(563,1385,cs),
(79,765,ls),
(52,731,o),
(52,698,o),
(79,664,cs),
(563,44,ls),
(581,21,o),
(598,11,o),
(627,11,cs)
);
},
{
closed = 1;
nodes = (
(621,341,o),
(601,352,o),
(590,367,cs),
(347,675,ls),
(330,697,o),
(330,733,o),
(347,755,cs),
(590,1062,ls),
(601,1077,o),
(621,1088,o),
(637,1088,cs),
(675,1088,ls),
(691,1088,o),
(711,1077,o),
(722,1062,cs),
(957,755,ls),
(974,733,o),
(974,697,o),
(957,675,cs),
(722,367,ls),
(711,352,o),
(691,341,o),
(675,341,cs),
(637,341,ls)
);
}
);
width = 1304;
}
);
unicode = 9826;
},
{
glyphname = clubBlackSuit;
lastChange = "2025-03-18 16:58:27 +0000";
layers = (
{
layerId = m01;
shapes = (
{
closed = 1;
nodes = (
(876,0,ls),
(915,0,o),
(936,21,o),
(936,60,cs),
(936,98,o),
(937,118,o),
(913,157,cs),
(898,181,o),
(884,204,o),
(873,226,c),
(900,218,o),
(930,214,o),
(960,214,cs),
(1137,214,o),
(1280,357,o),
(1280,534,cs),
(1280,711,o),
(1137,854,o),
(960,854,cs),
(905,854,o),
(838,837,o),
(808,816,cs),
(893,877,o),
(960,996,o),
(960,1088,cs),
(960,1265,o),
(817,1408,o),
(640,1408,cs),
(463,1408,o),
(320,1265,o),
(320,1088,cs),
(320,996,o),
(387,877,o),
(472,816,cs),
(442,837,o),
(375,854,o),
(320,854,cs),
(143,854,o),
(0,711,o),
(0,534,cs),
(0,357,o),
(143,214,o),
(320,214,cs),
(350,214,o),
(380,218,o),
(407,226,c),
(396,204,o),
(382,181,o),
(367,157,cs),
(343,118,o),
(344,98,o),
(344,60,cs),
(344,21,o),
(365,0,o),
(404,0,cs)
);
}
);
width = 1280;
},
{
layerId = m002;
shapes = (
{
closed = 1;
nodes = (
(1071,0,ls),
(1129,0,o),
(1160,21,o),
(1160,60,cs),
(1160,104,o),
(1159,121,o),
(1126,157,cs),
(1107,177,o),
(1091,195,o),
(1076,214,c),
(1092,214,o),
(1108,215,o),
(1123,217,cs),
(1311,238,o),
(1440,390,o),
(1440,574,cs),
(1440,773,o),
(1279,930,o),
(1090,930,cs),
(1045,930,o),
(1022,923,o),
(1037,914,cs),
(1061,900,o),
(1080,959,o),
(1080,1048,cs),
(1080,1247,o),
(919,1408,o),
(720,1408,cs),
(521,1408,o),
(360,1247,o),
(360,1048,cs),
(360,959,o),
(379,900,o),
(403,914,cs),
(418,923,o),
(395,930,o),
(350,930,cs),
(161,930,o),
(0,773,o),
(0,574,cs),
(0,390,o),
(129,238,o),
(317,217,cs),
(332,215,o),
(348,214,o),
(364,214,c),
(349,195,o),
(333,177,o),
(314,157,cs),
(281,121,o),
(280,104,o),
(280,60,cs),
(280,21,o),
(311,0,o),
(369,0,cs)
);
}
);
width = 1440;
}
);
unicode = 9827;
},
{
glyphname = spadeWhiteSuit;
lastChange = "2025-04-27 15:55:59 +0000";
layers = (
{
layerId = m01;
shapes = (
{
closed = 1;
nodes = (
(876,0,ls),
(915,0,o),
(936,21,o),
(936,60,cs),
(936,81,ls),
(936,110,o),
(929,131,o),
(913,157,cs),
(879,210,o),
(854,260,o),
(836,307,c),
(852,305,o),
(868,304,o),
(885,304,cs),
(1010,304,o),
(1104,479,o),
(1104,660,cs),
(1104,862,o),
(1038,1152,o),
(686,1514,cs),
(673,1527,o),
(655,1536,o),
(640,1536,cs),
(625,1536,o),
(607,1527,o),
(594,1514,cs),
(242,1152,o),
(176,862,o),
(176,660,cs),
(176,479,o),
(270,304,o),
(395,304,cs),
(412,304,o),
(428,305,o),
(444,307,c),
(426,260,o),
(401,210,o),
(367,157,cs),
(351,131,o),
(344,110,o),
(344,81,cs),
(344,60,ls),
(344,21,o),
(365,0,o),
(404,0,cs)
);
},
{
closed = 1;
nodes = (
(551,218,o),
(564,261,o),
(601,360,cs),
(623,418,o),
(594,459,o),
(532,447,cs),
(463,434,ls),
(347,412,o),
(304,511,o),
(304,627,cs),
(304,807,o),
(322,1053,o),
(640,1378,c),
(958,1053,o),
(976,807,o),
(976,627,cs),
(976,511,o),
(933,412,o),
(817,434,cs),
(748,447,ls),
(686,459,o),
(657,418,o),
(679,360,cs),
(716,261,o),
(729,218,o),
(781,128,c),
(499,128,l)
);
}
);
width = 1280;
},
{
layerId = m002;
shapes = (
{
closed = 1;
nodes = (
(1100,1,ls),
(1139,1,o),
(1160,22,o),
(1160,61,cs),
(1160,82,ls),
(1160,111,o),
(1153,132,o),
(1137,158,cs),
(1103,212,o),
(1078,261,o),
(1060,308,c),
(1064,308,o),
(1085,311,o),
(1109,315,cs),
(1185,327,o),
(1244,479,o),
(1244,660,cs),
(1244,860,o),
(1131,1150,o),
(768,1513,cs),
(754,1528,o),
(737,1535,o),
(720,1536,cs),
(703,1535,o),
(686,1528,o),
(672,1513,cs),
(309,1150,o),
(196,860,o),
(196,660,cs),
(196,480,o),
(255,327,o),
(331,315,cs),
(355,311,o),
(377,308,o),
(380,308,c),
(362,261,o),
(337,212,o),
(303,158,cs),
(287,132,o),
(280,111,o),
(280,82,cs),
(280,61,ls),
(280,22,o),
(301,1,o),
(340,1,cs)
);
},
{
closed = 1;
nodes = (
(602,284,o),
(626,331,o),
(650,397,cs),
(683,485,o),
(641,515,o),
(557,527,cs),
(506,534,ls),
(475,538,o),
(450,608,o),
(450,723,cs),
(450,832,o),
(602,1163,o),
(720,1258,c),
(838,1163,o),
(990,832,o),
(990,723,cs),
(990,608,o),
(965,538,o),
(934,534,cs),
(883,527,ls),
(799,515,o),
(757,486,o),
(790,397,cs),
(814,331,o),
(838,284,o),
(863,218,c),
(577,218,l)
);
}
);
width = 1440;
}
);
unicode = 9828;
},
{
glyphname = heartBlackSuit;
lastChange = "2025-03-18 15:44:59 +0000";
layers = (
{
layerId = m01;
shapes = (
{
closed = 1;
nodes = (
(658,50,o),
(679,61,o),
(695,77,cs),
(1133,507,o),
(1248,713,o),
(1248,975,cs),
(1248,1212,o),
(1104,1358,o),
(935,1358,cs),
(814,1358,o),
(715,1319,o),
(656,1184,cs),
(650,1171,o),
(645,1164,o),
(640,1164,cs),
(635,1164,o),
(630,1171,o),
(624,1184,cs),
(565,1319,o),
(466,1358,o),
(345,1358,cs),
(176,1358,o),
(32,1212,o),
(32,975,cs),
(32,713,o),
(147,507,o),
(585,77,cs),
(601,61,o),
(622,50,o),
(640,50,cs)
);
}
);
width = 1280;
},
{
layerId = m002;
shapes = (
{
closed = 1;
nodes = (
(742,56,o),
(763,65,o),
(783,82,cs),
(1284,508,o),
(1416,713,o),
(1416,973,cs),
(1416,1208,o),
(1252,1352,o),
(1059,1352,cs),
(919,1352,o),
(806,1314,o),
(738,1180,cs),
(732,1167,o),
(726,1160,o),
(720,1160,cs),
(714,1160,o),
(708,1167,o),
(702,1180,cs),
(634,1314,o),
(521,1352,o),
(381,1352,cs),
(188,1352,o),
(24,1208,o),
(24,973,cs),
(24,713,o),
(156,508,o),
(657,82,cs),
(677,65,o),
(698,56,o),
(720,56,cs)
);
}
);
width = 1440;
}
);
unicode = 9829;
},
{
glyphname = diamondBlackSuit;
lastChange = "2025-03-12 16:57:15 +0000";
layers = (
{
layerId = m01;
shapes = (
{
closed = 1;
nodes = (
(659,0,ls),
(686,0,o),
(701,11,o),
(718,33,cs),
(1175,653,ls),
(1200,687,o),
(1200,720,o),
(1175,754,cs),
(718,1374,ls),
(701,1397,o),
(686,1408,o),
(659,1408,cs),
(609,1408,ls),
(582,1408,o),
(567,1397,o),
(550,1374,cs),
(85,754,ls),
(60,720,o),
(60,687,o),
(85,653,cs),
(550,33,ls),
(567,11,o),
(582,0,o),
(609,0,cs)
);
}
);
width = 1260;
},
{
layerId = m002;
shapes = (
{
closed = 1;
nodes = (
(682,0,ls),
(710,0,o),
(727,10,o),
(745,33,cs),
(1225,653,ls),
(1252,687,o),
(1252,720,o),
(1225,754,cs),
(745,1374,ls),
(727,1397,o),
(710,1408,o),
(682,1408,cs),
(631,1408,ls),
(602,1408,o),
(587,1397,o),
(569,1374,cs),
(78,754,ls),
(52,720,o),
(52,687,o),
(78,653,cs),
(569,33,ls),
(587,10,o),
(602,0,o),
(631,0,cs)
);
}
);
width = 1304;
}
);
unicode = 9830;
},
{
glyphname = clubWhiteSuit;
lastChange = "2025-03-18 16:47:55 +0000";
layers = (
{
layerId = m01;
shapes = (
{
closed = 1;
nodes = (
(876,0,ls),
(915,0,o),
(936,21,o),
(936,60,cs),
(936,98,o),
(937,118,o),
(913,157,cs),
(898,181,o),
(884,204,o),
(873,226,c),
(900,218,o),
(930,214,o),
(960,214,cs),
(1137,214,o),
(1280,357,o),
(1280,534,cs),
(1280,711,o),
(1137,854,o),
(960,854,cs),
(905,854,o),
(854,840,o),
(808,816,c),
(899,872,o),
(960,973,o),
(960,1088,cs),
(960,1265,o),
(817,1408,o),
(640,1408,cs),
(463,1408,o),
(320,1265,o),
(320,1088,cs),
(320,973,o),
(381,872,o),
(472,816,c),
(426,840,o),
(375,854,o),
(320,854,cs),
(143,854,o),
(0,711,o),
(0,534,cs),
(0,357,o),
(143,214,o),
(320,214,cs),
(350,214,o),
(380,218,o),
(407,226,c),
(396,204,o),
(382,181,o),
(367,157,cs),
(343,118,o),
(344,98,o),
(344,60,cs),
(344,21,o),
(365,0,o),
(404,0,cs)
);
},
{
closed = 1;
nodes = (
(553,222,o),
(547,257,o),
(507,307,cs),
(482,337,o),
(445,354,o),
(407,354,cs),
(318,354,o),
(272,312,o),
(184,398,cs),
(148,435,o),
(128,483,o),
(128,534,cs),
(128,585,o),
(150,636,o),
(184,670,cs),
(221,706,o),
(269,726,o),
(320,726,cs),
(352,726,o),
(383,718,o),
(411,703,cs),
(473,670,o),
(549,693,o),
(582,752,cs),
(599,781,o),
(604,815,o),
(596,847,cs),
(588,879,o),
(567,907,o),
(539,925,cs),
(476,965,o),
(448,1029,o),
(448,1088,cs),
(448,1139,o),
(470,1190,o),
(504,1224,cs),
(541,1260,o),
(589,1280,o),
(640,1280,cs),
(691,1280,o),
(739,1260,o),
(776,1224,cs),
(811,1189,o),
(832,1139,o),
(832,1088,cs),
(832,1029,o),
(804,965,o),
(741,925,cs),
(713,907,o),
(692,879,o),
(684,847,cs),
(676,815,o),
(681,781,o),
(698,752,cs),
(731,693,o),
(807,670,o),
(869,703,cs),
(897,718,o),
(928,726,o),
(960,726,cs),
(1011,726,o),
(1059,706,o),
(1096,670,cs),
(1131,635,o),
(1152,585,o),
(1152,534,cs),
(1152,483,o),
(1132,435,o),
(1096,398,cs),
(1008,312,o),
(962,354,o),
(873,354,cs),
(835,354,o),
(798,337,o),
(773,307,cs),
(733,257,o),
(727,222,o),
(781,128,c),
(499,128,l)
);
}
);
width = 1280;
},
{
layerId = m002;
shapes = (
{
closed = 1;
nodes = (
(1071,0,ls),
(1129,0,o),
(1160,21,o),
(1160,60,cs),
(1160,104,o),
(1159,121,o),
(1126,157,cs),
(1107,177,o),
(1091,195,o),
(1076,214,c),
(1092,214,o),
(1108,215,o),
(1123,217,cs),
(1311,238,o),
(1440,390,o),
(1440,574,cs),
(1440,773,o),
(1279,934,o),
(1080,934,cs),
(1074,934,o),
(1067,934,o),
(1061,934,c),
(1073,969,o),
(1080,1008,o),
(1080,1048,cs),
(1080,1247,o),
(919,1408,o),
(720,1408,cs),
(521,1408,o),
(360,1247,o),
(360,1048,cs),
(360,1008,o),
(367,969,o),
(379,934,c),
(373,934,o),
(366,934,o),
(360,934,cs),
(161,934,o),
(0,773,o),
(0,574,cs),
(0,390,o),
(129,238,o),
(317,217,cs),
(332,215,o),
(348,214,o),
(364,214,c),
(349,195,o),
(333,177,o),
(314,157,cs),
(281,121,o),
(280,104,o),
(280,60,cs),
(280,21,o),
(311,0,o),
(369,0,cs)
);
},
{
closed = 1;
nodes = (
(580,247,o),
(573,279,o),
(559,308,cs),
(523,383,o),
(447,430,o),
(364,430,cs),
(312,430,o),
(286,444,o),
(258,472,cs),
(231,499,o),
(216,536,o),
(216,574,cs),
(216,612,o),
(231,649,o),
(258,676,cs),
(285,703,o),
(322,718,o),
(360,718,cs),
(366,718,o),
(373,718,o),
(379,718,cs),
(446,718,o),
(510,749,o),
(551,803,cs),
(568,826,o),
(580,851,o),
(587,877,cs),
(598,918,o),
(597,961,o),
(583,1002,cs),
(578,1017,o),
(576,1032,o),
(576,1048,cs),
(576,1086,o),
(591,1123,o),
(618,1150,cs),
(645,1177,o),
(682,1192,o),
(720,1192,cs),
(758,1192,o),
(795,1177,o),
(822,1150,cs),
(849,1123,o),
(864,1086,o),
(864,1048,cs),
(864,1032,o),
(862,1017,o),
(857,1002,cs),
(843,961,o),
(842,918,o),
(853,877,cs),
(860,851,o),
(872,826,o),
(889,803,cs),
(930,749,o),
(994,718,o),
(1061,718,cs),
(1067,718,o),
(1074,718,o),
(1080,718,cs),
(1118,718,o),
(1155,703,o),
(1182,676,cs),
(1209,649,o),
(1224,612,o),
(1224,574,cs),
(1224,536,o),
(1209,499,o),
(1182,472,cs),
(1155,445,o),
(1128,430,o),
(1076,430,cs),
(993,430,o),
(917,383,o),
(881,308,cs),
(867,279,o),
(860,247,o),
(860,216,c),
(580,216,l)
);
}
);
width = 1440;
}
);
unicode = 9831;
},
{
glyphname = checkmark;
kernLeft = v;
kernRight = V;
lastChange = "2025-03-15 23:00:49 +0000";
layers = (
{
layerId = m01;
shapes = (
{
closed = 1;
nodes = (
(552,0,ls),
(594,0,o),
(623,19,o),
(639,58,cs),
(1165,1343,ls),
(1180,1381,o),
(1164,1408,o),
(1122,1408,cs),
(1064,1408,ls),
(1033,1408,o),
(1012,1393,o),
(1000,1364,cs),
(529,214,l),
(250,895,ls),
(234,934,o),
(206,953,o),
(164,953,cs),
(137,953,ls),
(88,953,o),
(67,917,o),
(88,866,cs),
(419,58,ls),
(435,19,o),
(464,0,o),
(506,0,cs)
);
}
);
width = 1231;
},
{
layerId = m002;
shapes = (
{
closed = 1;
nodes = (
(646,0,ls),
(688,0,o),
(716,20,o),
(732,58,cs),
(1258,1322,ls),
(1279,1373,o),
(1256,1408,o),
(1200,1408,cs),
(965,1408,ls),
(924,1408,o),
(896,1390,o),
(880,1351,cs),
(576,626,l),
(466,895,ls),
(449,936,o),
(422,953,o),
(381,953,cs),
(137,953,ls),
(88,953,o),
(67,917,o),
(88,866,cs),
(419,58,ls),
(435,19,o),
(464,0,o),
(506,0,cs)
);
}
);
width = 1326;
}
);
unicode = 10003;
},
{
glyphname = at;
kernLeft = O;
kernRight = O;
lastChange = "2025-03-15 23:00:33 +0000";
layers = (
{
layerId = m01;
shapes = (
{
closed = 1;
nodes = (
(76,682,ls),
(76,187,o),
(298,-30,o),
(807,-30,cs),
(1145,-30,ls),
(1305,-30,o),
(1426,-5,o),
(1542,52,cs),
(1589,76,o),
(1591,118,o),
(1554,155,cs),
(1540,169,ls),
(1508,200,o),
(1477,202,o),
(1437,183,cs),
(1311,131,o),
(1233,114,o),
(1125,114,cs),
(827,114,ls),
(396,114,o),
(252,257,o),
(252,686,cs),
(252,722,ls),
(252,1151,o),
(396,1294,o),
(827,1294,cs),
(1125,1294,ls),
(1556,1294,o),
(1700,1151,o),
(1700,722,cs),
(1700,686,ls),
(1700,526,o),
(1656,465,o),
(1525,445,c),
(1525,1057,ls),
(1525,1101,o),
(1502,1125,o),
(1457,1125,cs),
(1435,1125,ls),
(1390,1125,o),
(1365,1101,o),
(1365,1057,cs),
(1365,990,l),
(1291,1097,o),
(1207,1144,o),
(1089,1144,cs),
(863,1144,ls),
(555,1144,o),
(421,1014,o),
(421,717,cs),
(421,690,ls),
(421,393,o),
(555,263,o),
(863,263,cs),
(1089,263,ls),
(1207,263,o),
(1290,310,o),
(1365,418,c),
(1365,351,ls),
(1365,307,o),
(1390,283,o),
(1435,283,cs),
(1462,283,l),
(1466,283,ls),
(1751,288,o),
(1876,409,o),
(1876,682,cs),
(1876,726,ls),
(1876,1221,o),
(1654,1438,o),
(1145,1438,cs),
(807,1438,ls),
(298,1438,o),
(76,1221,o),
(76,726,cs)
);
},
{
closed = 1;
nodes = (
(581,715,ls),
(581,941,o),
(653,1016,o),
(869,1016,cs),
(1082,1016,ls),
(1282,1016,o),
(1353,945,o),
(1365,731,c),
(1365,676,l),
(1353,462,o),
(1282,391,o),
(1082,391,cs),
(869,391,ls),
(653,391,o),
(581,467,o),
(581,693,cs)
);
}
);
width = 1952;
},
{
layerId = m002;
shapes = (
{
closed = 1;
nodes = (
(76,682,ls),
(76,187,o),
(341,-30,o),
(948,-30,cs),
(1050,-30,ls),
(1196,-30,o),
(1433,1,o),
(1546,55,cs),
(1592,78,o),
(1623,118,o),
(1586,153,cs),
(1441,289,ls),
(1410,318,o),
(1379,320,o),
(1339,303,cs),
(1258,269,o),
(1182,258,o),
(1033,258,cs),
(965,258,ls),
(568,258,o),
(436,365,o),
(436,687,cs),
(436,721,ls),
(436,1043,o),
(568,1150,o),
(965,1150,cs),
(1033,1150,ls),
(1452,1150,o),
(1592,1067,o),
(1592,816,cs),
(1592,804,ls),
(1592,705,o),
(1500,675,o),
(1448,677,c),
(1448,954,ls),
(1448,997,o),
(1425,1019,o),
(1380,1019,cs),
(1214,1019,ls),
(1200,1019,o),
(1187,1015,o),
(1187,1015,cs),
(1187,1015,l),
(1141,1031,o),
(1095,1038,o),
(1035,1038,cs),
(993,1038,ls),
(706,1038,o),
(580,940,o),
(580,717,cs),
(580,691,ls),
(580,468,o),
(706,370,o),
(993,370,cs),
(1035,370,ls),
(1051,370,o),
(1112,371,o),
(1175,392,c),
(1175,392,ls),
(1175,392,o),
(1188,389,o),
(1202,389,cs),
(1380,389,l),
(1448,389,ls),
(1865,389,o),
(1952,603,o),
(1952,784,cs),
(1952,826,ls),
(1952,1252,o),
(1678,1438,o),
(1050,1438,cs),
(948,1438,ls),
(341,1438,o),
(76,1221,o),
(76,725,cs)
);
},
{
closed = 1;
nodes = (
(868,714,ls),
(868,768,o),
(901,786,o),
(1001,786,cs),
(1027,786,ls),
(1127,786,o),
(1160,768,o),
(1160,714,c),
(1160,693,l),
(1160,640,o),
(1127,622,o),
(1027,622,cs),
(1001,622,ls),
(901,622,o),
(868,640,o),
(868,693,cs)
);
}
);
width = 2028;
}
);
unicode = 64;
},
{
glyphname = ampersand;
kernLeft = O;
kernRight = O;
lastChange = "2025-03-15 23:00:18 +0000";
layers = (
{
layerId = m01;
shapes = (
{
closed = 1;
nodes = (
(1060,-30,ls),
(1360,-30,o),
(1565,10,o),
(1679,105,c),
(1870,11,ls),
(1904,-5,o),
(1933,0,o),
(1953,33,cs),
(1972,66,ls),
(1992,99,o),
(1985,130,o),
(1950,147,cs),
(1774,233,l),
(1785,267,o),
(1790,314,o),
(1790,355,cs),
(1790,486,ls),
(1790,534,o),
(1766,560,o),
(1717,560,cs),
(1687,560,ls),
(1638,560,o),
(1614,534,o),
(1614,486,cs),
(1614,360,ls),
(1614,346,o),
(1614,324,o),
(1613,312,c),
(566,825,l),
(478,860,o),
(437,919,o),
(437,1013,cs),
(437,1049,ls),
(437,1238,o),
(565,1294,o),
(917,1294,cs),
(984,1294,ls),
(1337,1294,o),
(1464,1238,o),
(1464,1049,cs),
(1464,985,ls),
(1464,938,o),
(1489,912,o),
(1537,912,cs),
(1567,912,ls),
(1616,912,o),
(1640,938,o),
(1640,985,cs),
(1640,1052,ls),
(1640,1322,o),
(1404,1438,o),
(1004,1438,cs),
(898,1438,ls),
(497,1438,o),
(261,1322,o),
(261,1052,cs),
(261,1008,ls),
(261,887,o),
(312,794,o),
(400,731,c),
(208,674,o),
(112,569,o),
(112,399,cs),
(112,355,ls),
(112,86,o),
(347,-30,o),
(842,-30,cs)
);
},
{
closed = 1;
nodes = (
(415,114,o),
(288,171,o),
(288,360,cs),
(288,396,ls),
(288,534,o),
(369,601,o),
(625,621,c),
(1513,186,l),
(1429,145,o),
(1280,114,o),
(1040,114,cs),
(861,114,ls)
);
}
);
width = 2095;
},
{
layerId = m002;
shapes = (
{
closed = 1;
nodes = (
(1054,-30,ls),
(1400,-30,o),
(1589,0,o),
(1672,70,c),
(1796,8,ls),
(1840,-13,o),
(1875,-1,o),
(1897,41,cs),
(1980,204,ls),
(2001,247,o),
(1988,283,o),
(1947,303,cs),
(1809,371,l),
(1809,400,o),
(1809,488,o),
(1809,529,cs),
(1809,611,ls),
(1809,659,o),
(1783,684,o),
(1735,684,cs),
(1488,684,ls),
(1439,684,o),
(1413,659,o),
(1413,611,cs),
(1413,592,ls),
(1413,592,o),
(1413,566,o),
(1413,566,c),
(892,823,l),
(720,908,o),
(663,951,o),
(663,996,cs),
(663,1003,ls),
(663,1086,o),
(726,1114,o),
(913,1114,cs),
(1008,1114,ls),
(1200,1114,o),
(1264,1086,o),
(1264,1003,cs),
(1264,967,ls),
(1264,919,o),
(1291,893,o),
(1339,893,cs),
(1586,893,ls),
(1634,893,o),
(1660,919,o),
(1660,967,cs),
(1660,1052,ls),
(1660,1321,o),
(1468,1438,o),
(1028,1438,cs),
(894,1438,ls),
(454,1438,o),
(261,1321,o),
(261,1052,cs),
(261,1009,ls),
(261,882,o),
(289,808,o),
(354,766,c),
(186,659,o),
(112,547,o),
(112,399,cs),
(112,355,ls),
(112,87,o),
(333,-30,o),
(838,-30,cs)
);
},
{
closed = 1;
nodes = (
(637,294,o),
(508,354,o),
(508,418,cs),
(508,455,ls),
(508,537,o),
(546,565,o),
(661,568,c),
(1211,297,l),
(1204,295,o),
(1179,294,o),
(1016,294,cs),
(848,294,ls)
);
}
);
width = 2102;
}
);
unicode = 38;
},
{
glyphname = paragraph;
kernLeft = O;
kernRight = H;
lastChange = "2025-03-15 23:00:08 +0000";
layers = (
{
layerId = m01;
shapes = (
{
closed = 1;
nodes = (
(1040,0,o),
(1064,25,o),
(1064,73,cs),
(1064,1264,l),
(1280,1264,l),
(1280,73,ls),
(1280,25,o),
(1304,0,o),
(1353,0,cs),
(1383,0,ls),
(1432,0,o),
(1456,25,o),
(1456,73,cs),
(1456,1334,ls),
(1456,1382,o),
(1429,1408,o),
(1380,1408,cs),
(602,1408,ls),
(261,1408,o),
(112,1280,o),
(112,987,cs),
(112,957,ls),
(112,664,o),
(261,536,o),
(602,536,cs),
(888,536,l),
(888,73,ls),
(888,25,o),
(912,0,o),
(961,0,cs),
(991,0,ls)
);
},
{
closed = 1;
nodes = (
(616,680,ls),
(374,680,o),
(293,750,o),
(293,960,cs),
(293,984,ls),
(293,1194,o),
(374,1264,o),
(616,1264,cs),
(888,1264,l),
(888,680,l)
);
}
);
width = 1568;
},
{
layerId = m002;
shapes = (
{
closed = 1;
nodes = (
(1060,0,o),
(1086,25,o),
(1086,72,cs),
(1086,1084,l),
(1214,1084,l),
(1214,72,ls),
(1214,25,o),
(1240,0,o),
(1288,0,cs),
(1535,0,ls),
(1584,0,o),
(1610,25,o),
(1610,72,cs),
(1610,1335,ls),
(1610,1382,o),
(1584,1408,o),
(1535,1408,cs),
(593,1408,ls),
(258,1408,o),
(112,1262,o),
(112,928,cs),
(112,880,ls),
(112,546,o),
(258,400,o),
(593,400,cs),
(690,400,l),
(690,72,ls),
(690,25,o),
(716,0,o),
(764,0,cs),
(1011,0,ls)
);
},
{
closed = 1;
nodes = (
(625,724,ls),
(542,724,o),
(514,764,o),
(514,883,cs),
(514,925,ls),
(514,1044,o),
(542,1084,o),
(625,1084,cs),
(690,1084,l),
(690,724,l)
);
}
);
width = 1722;
}
);
unicode = 182;
},
{
glyphname = section;
kernLeft = O;
kernRight = O;
lastChange = "2025-03-15 23:00:00 +0000";
layers = (
{
layerId = m01;
shapes = (
{
closed = 1;
nodes = (
(847,-20,ls),
(1217,-20,o),
(1379,62,o),
(1379,249,cs),
(1379,281,ls),
(1379,377,o),
(1344,438,o),
(1265,482,c),
(1344,528,o),
(1379,590,o),
(1379,686,cs),
(1379,733,ls),
(1379,906,o),
(1226,984,o),
(875,987,cs),
(658,989,ls),
(369,992,o),
(273,1027,o),
(273,1129,cs),
(273,1155,ls),
(273,1264,o),
(369,1300,o),
(658,1300,cs),
(862,1300,ls),
(1106,1300,o),
(1195,1266,o),
(1219,1162,cs),
(1229,1115,o),
(1246,1091,o),
(1293,1091,cs),
(1309,1091,ls),
(1356,1091,o),
(1386,1119,o),
(1379,1168,cs),
(1351,1349,o),
(1198,1428,o),
(875,1428,cs),
(645,1428,ls),
(275,1428,o),
(113,1346,o),
(113,1158,cs),
(113,1126,ls),
(113,1029,o),
(148,968,o),
(227,925,c),
(148,881,o),
(113,819,o),
(113,722,cs),
(113,674,ls),
(113,490,o),
(300,422,o),
(617,419,cs),
(834,417,ls),
(1123,414,o),
(1219,379,o),
(1219,278,cs),
(1219,252,ls),
(1219,144,o),
(1123,108,o),
(834,108,cs),
(630,108,ls),
(386,108,o),
(297,142,o),
(273,245,cs),
(263,292,o),
(245,317,o),
(199,317,cs),
(183,317,ls),
(136,317,o),
(106,288,o),
(113,239,cs),
(140,59,o),
(294,-20,o),
(617,-20,cs)
);
},
{
closed = 1;
nodes = (
(658,549,ls),
(369,549,o),
(273,584,o),
(273,689,cs),
(273,719,ls),
(273,824,o),
(366,859,o),
(645,859,cs),
(834,859,ls),
(1123,859,o),
(1219,824,o),
(1219,718,cs),
(1219,688,ls),
(1219,584,o),
(1126,549,o),
(847,549,cs)
);
}
);
width = 1492;
},
{
layerId = m002;
shapes = (
{
closed = 1;
nodes = (
(844,-20,ls),
(1213,-20,o),
(1375,73,o),
(1375,285,cs),
(1375,315,ls),
(1375,418,o),
(1340,482,o),
(1261,525,c),
(1340,567,o),
(1375,630,o),
(1375,731,cs),
(1375,771,ls),
(1375,949,o),
(1213,1030,o),
(844,1036,cs),
(656,1039,ls),
(465,1043,o),
(401,1056,o),
(401,1094,cs),
(401,1121,ls),
(401,1162,o),
(476,1176,o),
(699,1176,cs),
(809,1176,ls),
(1003,1176,o),
(1072,1160,o),
(1082,1111,cs),
(1088,1082,o),
(1113,1077,o),
(1159,1077,cs),
(1303,1077,ls),
(1350,1077,o),
(1382,1105,o),
(1375,1153,cs),
(1345,1344,o),
(1192,1428,o),
(872,1428,cs),
(643,1428,ls),
(274,1428,o),
(113,1335,o),
(113,1122,cs),
(113,1092,ls),
(113,989,o),
(148,925,o),
(227,882,c),
(148,840,o),
(113,777,o),
(113,677,cs),
(113,637,ls),
(113,459,o),
(274,378,o),
(643,372,cs),
(831,369,ls),
(1023,365,o),
(1087,352,o),
(1087,314,cs),
(1087,287,ls),
(1087,246,o),
(1013,232,o),
(789,232,cs),
(679,232,ls),
(481,232,o),
(412,248,o),
(402,296,cs),
(396,325,o),
(371,330,o),
(325,330,cs),
(185,330,ls),
(138,330,o),
(106,302,o),
(113,254,cs),
(143,63,o),
(295,-20,o),
(615,-20,cs)
);
},
{
closed = 1;
nodes = (
(656,624,ls),
(465,624,o),
(401,641,o),
(401,691,cs),
(401,717,ls),
(401,767,o),
(464,784,o),
(651,784,cs),
(839,784,ls),
(1025,784,o),
(1087,767,o),
(1087,717,cs),
(1087,691,ls),
(1087,641,o),
(1026,624,o),
(844,624,cs)
);
}
);
width = 1488;
}
);
unicode = 167;
},
{
glyphname = copyright;
kernLeft = O;
kernRight = O;
lastChange = "2025-03-21 22:28:43 +0000";
layers = (
{
layerId = m01;
shapes = (
{
closed = 1;
nodes = (
(1061,-30,ls),
(1570,-30,o),
(1792,187,o),
(1792,682,cs),
(1792,726,ls),
(1792,1221,o),
(1570,1438,o),
(1061,1438,cs),
(843,1438,ls),
(334,1438,o),
(112,1221,o),
(112,726,cs),
(112,682,ls),
(112,187,o),
(334,-30,o),
(843,-30,cs)
);
},
{
closed = 1;
nodes = (
(432,114,o),
(288,257,o),
(288,686,cs),
(288,722,ls),
(288,1151,o),
(432,1294,o),
(863,1294,cs),
(1041,1294,ls),
(1472,1294,o),
(1616,1151,o),
(1616,722,cs),
(1616,686,ls),
(1616,257,o),
(1472,114,o),
(1041,114,cs),
(863,114,ls)
);
},
{
closed = 1;
nodes = (
(1051,259,ls),
(1296,259,o),
(1416,336,o),
(1443,513,cs),
(1451,561,o),
(1424,589,o),
(1374,589,cs),
(1358,589,ls),
(1311,589,o),
(1294,565,o),
(1283,519,cs),
(1260,420,o),
(1199,387,o),
(1038,387,cs),
(863,387,ls),
(676,387,o),
(613,463,o),
(613,691,cs),
(613,714,ls),
(613,944,o),
(676,1021,o),
(863,1021,cs),
(1038,1021,ls),
(1199,1021,o),
(1260,988,o),
(1283,889,cs),
(1294,843,o),
(1311,819,o),
(1358,819,cs),
(1374,819,ls),
(1424,819,o),
(1451,847,o),
(1443,895,cs),
(1416,1072,o),
(1296,1149,o),
(1051,1149,cs),
(850,1149,ls),
(574,1149,o),
(453,1017,o),
(453,716,cs),
(453,688,ls),
(453,390,o),
(574,259,o),
(850,259,cs)
);
}
);
width = 1904;
},
{
layerId = m002;
shapes = (
{
closed = 1;
nodes = (
(1054,-30,ls),
(1559,-30,o),
(1780,187,o),
(1780,682,cs),
(1780,726,ls),
(1780,1221,o),
(1559,1438,o),
(1054,1438,cs),
(838,1438,ls),
(333,1438,o),
(112,1221,o),
(112,726,cs),
(112,682,ls),
(112,187,o),
(333,-30,o),
(838,-30,cs)
);
},
{
closed = 1;
nodes = (
(513,222,o),
(400,338,o),
(400,686,cs),
(400,722,ls),
(400,1070,o),
(513,1186,o),
(853,1186,cs),
(1039,1186,ls),
(1379,1186,o),
(1492,1070,o),
(1492,722,cs),
(1492,686,ls),
(1492,338,o),
(1379,222,o),
(1039,222,cs),
(853,222,ls)
);
},
{
closed = 1;
nodes = (
(1014,347,ls),
(1206,347,o),
(1300,423,o),
(1323,598,cs),
(1326,629,o),
(1309,647,o),
(1277,647,cs),
(1120,647,ls),
(1090,647,o),
(1074,633,o),
(1070,618,cs),
(1058,577,o),
(1028,563,o),
(952,563,cs),
(940,563,ls),
(849,563,o),
(818,596,o),
(818,695,cs),
(818,711,ls),
(818,812,o),
(849,846,o),
(940,846,cs),
(952,846,ls),
(1028,846,o),
(1057,832,o),
(1070,790,cs),
(1074,775,o),
(1090,761,o),
(1120,761,cs),
(1277,761,ls),
(1309,761,o),
(1326,779,o),
(1323,811,cs),
(1299,986,o),
(1205,1062,o),
(1014,1062,cs),
(874,1062,ls),
(660,1062,o),
(566,956,o),
(566,713,cs),
(566,693,ls),
(566,452,o),
(660,347,o),
(874,347,cs)
);
}
);
width = 1892;
}
);
unicode = 169;
},
{
glyphname = registered;
kernLeft = O;
kernRight = O;
lastChange = "2025-03-21 22:28:37 +0000";
layers = (
{
layerId = m01;
shapes = (
{
closed = 1;
nodes = (
(1061,-30,ls),
(1570,-30,o),
(1792,187,o),
(1792,682,cs),
(1792,726,ls),
(1792,1221,o),
(1570,1438,o),
(1061,1438,cs),
(843,1438,ls),
(334,1438,o),
(112,1221,o),
(112,726,cs),
(112,682,ls),
(112,187,o),
(334,-30,o),
(843,-30,cs)
);
},
{
closed = 1;
nodes = (
(432,114,o),
(288,257,o),
(288,686,cs),
(288,722,ls),
(288,1151,o),
(432,1294,o),
(863,1294,cs),
(1041,1294,ls),
(1472,1294,o),
(1616,1151,o),
(1616,722,cs),
(1616,686,ls),
(1616,257,o),
(1472,114,o),
(1041,114,cs),
(863,114,ls)
);
},
{
closed = 1;
nodes = (
(638,259,ls),
(678,259,o),
(699,280,o),
(699,318,cs),
(699,579,l),
(918,579,l),
(1216,295,ls),
(1239,273,o),
(1258,259,o),
(1290,259,cs),
(1349,259,ls),
(1394,259,o),
(1413,297,o),
(1375,332,cs),
(1105,582,l),
(1319,595,o),
(1407,684,o),
(1407,861,cs),
(1407,867,ls),
(1407,1059,o),
(1279,1149,o),
(985,1149,cs),
(600,1149,ls),
(561,1149,o),
(539,1128,o),
(539,1089,cs),
(539,318,ls),
(539,280,o),
(561,259,o),
(600,259,cs)
);
},
{
closed = 1;
nodes = (
(699,1021,l),
(975,1021,ls),
(1179,1021,o),
(1247,979,o),
(1247,865,cs),
(1247,863,ls),
(1247,748,o),
(1179,707,o),
(975,707,cs),
(699,707,l)
);
}
);
width = 1904;
},
{
layerId = m002;
shapes = (
{
closed = 1;
nodes = (
(1054,-30,ls),
(1559,-30,o),
(1780,187,o),
(1780,682,cs),
(1780,726,ls),
(1780,1221,o),
(1559,1438,o),
(1054,1438,cs),
(838,1438,ls),
(333,1438,o),
(112,1221,o),
(112,726,cs),
(112,682,ls),
(112,187,o),
(333,-30,o),
(838,-30,cs)
);
},
{
closed = 1;
nodes = (
(525,222,o),
(400,338,o),
(400,686,cs),
(400,722,ls),
(400,1070,o),
(513,1186,o),
(853,1186,cs),
(1039,1186,ls),
(1379,1186,o),
(1492,1070,o),
(1492,722,cs),
(1492,686,ls),
(1492,338,o),
(1391,222,o),
(1051,222,cs),
(865,222,ls)
);
},
{
closed = 1;
nodes = (
(789,346,ls),
(826,346,o),
(845,366,o),
(845,402,cs),
(845,496,l),
(989,496,l),
(1073,384,ls),
(1089,363,o),
(1100,346,o),
(1128,346,cs),
(1294,346,ls),
(1331,346,o),
(1354,370,o),
(1331,402,cs),
(1229,543,l),
(1298,591,o),
(1328,658,o),
(1328,764,cs),
(1328,794,ls),
(1328,980,o),
(1231,1062,o),
(1008,1062,cs),
(644,1062,ls),
(608,1062,o),
(588,1049,o),
(588,1006,cs),
(588,402,ls),
(588,366,o),
(608,346,o),
(644,346,cs)
);
},
{
closed = 1;
nodes = (
(845,846,l),
(980,846,ls),
(1052,846,o),
(1076,831,o),
(1076,787,cs),
(1076,771,ls),
(1076,727,o),
(1052,712,o),
(980,712,cs),
(845,712,l)
);
}
);
width = 1892;
}
);
unicode = 174;
},
{
glyphname = trademark;
kernLeft = H;
kernRight = H;
lastChange = "2025-03-15 22:59:36 +0000";
layers = (
{
layerId = m01;
shapes = (
{
closed = 1;
nodes = (
(112,1328,ls),
(112,1288,o),
(138,1264,o),
(179,1264,cs),
(530,1264,l),
(530,609,ls),
(530,561,o),
(556,536,o),
(605,536,cs),
(631,536,ls),
(680,536,o),
(706,561,o),
(706,609,cs),
(706,1264,l),
(1057,1264,ls),
(1098,1264,o),
(1124,1288,o),
(1124,1328,cs),
(1124,1344,ls),
(1124,1384,o),
(1098,1408,o),
(1057,1408,cs),
(179,1408,ls),
(138,1408,o),
(112,1384,o),
(112,1344,cs)
);
},
{
closed = 1;
nodes = (
(1284,609,ls),
(1284,561,o),
(1310,536,o),
(1358,536,cs),
(1386,536,ls),
(1434,536,o),
(1460,561,o),
(1460,609,cs),
(1460,1264,l),
(1479,1264,l),
(1837,585,ls),
(1856,550,o),
(1886,536,o),
(1926,536,cs),
(2010,536,ls),
(2050,536,o),
(2080,550,o),
(2099,585,cs),
(2457,1264,l),
(2476,1264,l),
(2476,609,ls),
(2476,561,o),
(2502,536,o),
(2550,536,cs),
(2578,536,ls),
(2626,536,o),
(2652,561,o),
(2652,609,cs),
(2652,1336,ls),
(2652,1383,o),
(2626,1408,o),
(2578,1408,cs),
(2415,1408,ls),
(2375,1408,o),
(2345,1395,o),
(2326,1359,cs),
(1968,680,l),
(1610,1359,ls),
(1591,1395,o),
(1561,1408,o),
(1521,1408,cs),
(1358,1408,ls),
(1310,1408,o),
(1284,1383,o),
(1284,1336,cs)
);
}
);
width = 2764;
},
{
layerId = m002;
shapes = (
{
closed = 1;
nodes = (
(112,1221,ls),
(112,1181,o),
(138,1156,o),
(179,1156,cs),
(474,1156,l),
(474,608,ls),
(474,561,o),
(500,536,o),
(548,536,cs),
(687,536,ls),
(736,536,o),
(762,561,o),
(762,608,cs),
(762,1156,l),
(1057,1156,ls),
(1098,1156,o),
(1124,1181,o),
(1124,1221,cs),
(1124,1342,ls),
(1124,1382,o),
(1098,1408,o),
(1057,1408,cs),
(179,1408,ls),
(138,1408,o),
(112,1382,o),
(112,1342,cs)
);
},
{
closed = 1;
nodes = (
(1279,608,ls),
(1279,561,o),
(1305,536,o),
(1354,536,cs),
(1491,536,ls),
(1541,536,o),
(1567,561,o),
(1567,608,cs),
(1567,1156,l),
(1570,1156,l),
(1745,585,ls),
(1757,546,o),
(1795,536,o),
(1836,536,cs),
(2091,536,ls),
(2131,536,o),
(2169,546,o),
(2181,585,cs),
(2357,1156,l),
(2359,1156,l),
(2359,608,ls),
(2359,561,o),
(2385,536,o),
(2435,536,cs),
(2572,536,ls),
(2621,536,o),
(2647,561,o),
(2647,608,cs),
(2647,1335,ls),
(2647,1382,o),
(2621,1408,o),
(2572,1408,cs),
(2234,1408,ls),
(2194,1408,o),
(2155,1395,o),
(2144,1359,cs),
(1963,788,l),
(1782,1359,ls),
(1771,1395,o),
(1732,1408,o),
(1692,1408,cs),
(1354,1408,ls),
(1305,1408,o),
(1279,1382,o),
(1279,1335,cs)
);
}
);
width = 2759;
}
);
unicode = 8482;
},
{
glyphname = brokenbar;
kernLeft = l;
kernRight = l;
lastChange = "2025-03-15 22:59:23 +0000";
layers = (
{
layerId = m01;
shapes = (
{
closed = 1;
nodes = (
(232,0,ls),
(268,0,o),
(288,20,o),
(288,56,cs),
(288,560,ls),
(288,597,o),
(268,616,o),
(232,616,cs),
(168,616,ls),
(132,616,o),
(112,597,o),
(112,560,cs),
(112,56,ls),
(112,20,o),
(132,0,o),
(168,0,cs)
);
},
{
closed = 1;
nodes = (
(232,792,ls),
(268,792,o),
(288,811,o),
(288,848,cs),
(288,1352,ls),
(288,1389,o),
(268,1408,o),
(232,1408,cs),
(168,1408,ls),
(132,1408,o),
(112,1389,o),
(112,1352,cs),
(112,848,ls),
(112,811,o),
(132,792,o),
(168,792,cs)
);
}
);
width = 400;
},
{
layerId = m002;
shapes = (
{
closed = 1;
nodes = (
(425,0,ls),
(461,0,o),
(481,20,o),
(481,56,cs),
(481,569,ls),
(481,606,o),
(461,625,o),
(425,625,cs),
(168,625,ls),
(132,625,o),
(112,606,o),
(112,569,cs),
(112,56,ls),
(112,20,o),
(132,0,o),
(168,0,cs)
);
},
{
closed = 1;
nodes = (
(425,804,ls),
(461,804,o),
(481,823,o),
(481,860,cs),
(481,1373,ls),
(481,1410,o),
(461,1429,o),
(425,1429,cs),
(168,1429,ls),
(132,1429,o),
(112,1410,o),
(112,1373,cs),
(112,860,ls),
(112,823,o),
(132,804,o),
(168,804,cs)
);
}
);
width = 593;
}
);
unicode = 166;
},
{
glyphname = dagger;
kernLeft = l;
kernRight = l;
lastChange = "2025-03-15 22:56:54 +0000";
layers = (
{
layerId = m01;
shapes = (
{
closed = 1;
nodes = (
(439,336,ls),
(488,336,o),
(512,362,o),
(512,410,cs),
(512,1072,l),
(696,1072,ls),
(733,1072,o),
(752,1094,o),
(752,1128,cs),
(752,1144,ls),
(752,1177,o),
(733,1200,o),
(696,1200,cs),
(512,1200,l),
(512,1334,ls),
(512,1382,o),
(488,1408,o),
(439,1408,cs),
(424,1408,ls),
(376,1408,o),
(352,1382,o),
(352,1334,cs),
(352,1200,l),
(168,1200,ls),
(131,1200,o),
(112,1177,o),
(112,1144,cs),
(112,1128,ls),
(112,1094,o),
(131,1072,o),
(168,1072,cs),
(352,1072,l),
(352,410,ls),
(352,362,o),
(376,336,o),
(424,336,cs)
);
}
);
width = 864;
},
{
layerId = m002;
shapes = (
{
closed = 1;
nodes = (
(543,339,ls),
(591,339,o),
(617,365,o),
(617,413,cs),
(617,992,l),
(678,992,ls),
(726,992,o),
(752,1018,o),
(752,1052,cs),
(752,1221,ls),
(752,1254,o),
(726,1280,o),
(678,1280,cs),
(617,1280,l),
(617,1355,ls),
(617,1403,o),
(591,1429,o),
(543,1429,cs),
(322,1429,ls),
(273,1429,o),
(247,1403,o),
(247,1355,cs),
(247,1280,l),
(187,1280,ls),
(138,1280,o),
(112,1254,o),
(112,1221,cs),
(112,1052,ls),
(112,1018,o),
(138,992,o),
(187,992,cs),
(247,992,l),
(247,413,ls),
(247,365,o),
(273,339,o),
(322,339,cs)
);
}
);
width = 864;
}
);
unicode = 8224;
},
{
glyphname = daggerdbl;
kernLeft = l;
kernRight = l;
lastChange = "2025-03-15 22:57:02 +0000";
layers = (
{
layerId = m01;
shapes = (
{
closed = 1;
nodes = (
(439,336,ls),
(488,336,o),
(512,362,o),
(512,410,cs),
(512,816,l),
(702,816,ls),
(735,816,o),
(752,836,o),
(751,872,cs),
(752,888,ls),
(752,925,o),
(734,944,o),
(702,944,cs),
(512,944,l),
(512,1072,l),
(696,1072,ls),
(733,1072,o),
(752,1094,o),
(752,1128,cs),
(752,1144,ls),
(752,1177,o),
(733,1200,o),
(696,1200,cs),
(512,1200,l),
(512,1334,ls),
(512,1382,o),
(488,1408,o),
(439,1408,cs),
(424,1408,ls),
(376,1408,o),
(352,1382,o),
(352,1334,cs),
(352,1200,l),
(168,1200,ls),
(131,1200,o),
(112,1177,o),
(112,1144,cs),
(112,1128,ls),
(112,1094,o),
(131,1072,o),
(168,1072,cs),
(352,1072,l),
(352,944,l),
(162,944,ls),
(130,944,o),
(112,925,o),
(112,888,cs),
(112,872,ls),
(112,836,o),
(129,816,o),
(162,816,cs),
(352,816,l),
(352,410,ls),
(352,362,o),
(376,336,o),
(424,336,cs)
);
}
);
width = 864;
},
{
layerId = m002;
shapes = (
{
closed = 1;
nodes = (
(538,339,ls),
(586,339,o),
(612,365,o),
(612,413,cs),
(612,631,l),
(678,631,ls),
(726,631,o),
(752,657,o),
(752,690,cs),
(752,859,ls),
(752,893,o),
(726,919,o),
(678,919,cs),
(612,919,l),
(612,1015,l),
(678,1015,ls),
(726,1015,o),
(752,1041,o),
(752,1075,cs),
(752,1244,ls),
(752,1277,o),
(726,1303,o),
(678,1303,cs),
(612,1303,l),
(612,1355,ls),
(612,1403,o),
(586,1429,o),
(538,1429,cs),
(327,1429,ls),
(278,1429,o),
(252,1403,o),
(252,1355,cs),
(252,1303,l),
(187,1303,ls),
(138,1303,o),
(112,1277,o),
(112,1244,cs),
(112,1075,ls),
(112,1041,o),
(138,1015,o),
(187,1015,cs),
(252,1015,l),
(252,919,l),
(187,919,ls),
(138,919,o),
(112,893,o),
(112,859,cs),
(112,690,ls),
(112,657,o),
(139,631,o),
(187,631,cs),
(252,631,l),
(252,413,ls),
(252,365,o),
(278,339,o),
(327,339,cs)
);
}
);
width = 864;
}
);
unicode = 8225;
},
{
glyphname = numero;
lastChange = "2025-03-21 22:33:09 +0000";
layers = (
{
layerId = m01;
shapes = (
{
closed = 1;
nodes = (
(228,0,ls),
(277,0,o),
(300,26,o),
(300,74,cs),
(300,1280,l),
(332,1280,l),
(1275,38,ls),
(1299,7,o),
(1329,0,o),
(1367,0,cs),
(1506,0,ls),
(1554,0,o),
(1580,26,o),
(1580,74,cs),
(1580,1334,ls),
(1580,1382,o),
(1556,1408,o),
(1508,1408,cs),
(1492,1408,ls),
(1443,1408,o),
(1420,1382,o),
(1420,1334,cs),
(1420,128,l),
(1388,128,l),
(445,1370,ls),
(421,1401,o),
(391,1408,o),
(353,1408,cs),
(214,1408,ls),
(166,1408,o),
(140,1382,o),
(140,1334,cs),
(140,74,ls),
(140,26,o),
(164,0,o),
(212,0,cs)
);
},
{
alignment = -1;
pos = (1614,0);
ref = zerosuperior;
},
{
closed = 1;
nodes = (
(1724,320,ls),
(1724,284,o),
(1744,264,o),
(1780,264,cs),
(2614,264,ls),
(2650,264,o),
(2670,284,o),
(2670,320,cs),
(2670,336,ls),
(2670,372,o),
(2650,392,o),
(2614,392,cs),
(1780,392,ls),
(1744,392,o),
(1724,372,o),
(1724,336,cs)
);
}
);
width = 2782;
},
{
layerId = m002;
shapes = (
{
closed = 1;
nodes = (
(354,0,ls),
(402,0,o),
(428,26,o),
(428,74,cs),
(428,1177,l),
(460,1177,l),
(1056,38,ls),
(1074,3,o),
(1110,0,o),
(1148,0,cs),
(1495,0,ls),
(1543,0,o),
(1569,26,o),
(1569,74,cs),
(1569,1355,ls),
(1569,1403,o),
(1543,1429,o),
(1495,1429,cs),
(1355,1429,ls),
(1307,1429,o),
(1281,1403,o),
(1281,1355,cs),
(1281,252,l),
(1249,252,l),
(653,1391,ls),
(634,1427,o),
(599,1429,o),
(561,1429,cs),
(214,1429,ls),
(166,1429,o),
(140,1403,o),
(140,1355,cs),
(140,74,ls),
(140,26,o),
(166,0,o),
(214,0,cs)
);
},
{
alignment = -1;
pos = (1591,0);
ref = zerosuperior;
},
{
closed = 1;
nodes = (
(1698,196,ls),
(1698,160,o),
(1717,140,o),
(1753,140,cs),
(2595,140,ls),
(2631,140,o),
(2650,160,o),
(2650,196,cs),
(2650,336,ls),
(2650,372,o),
(2631,392,o),
(2595,392,cs),
(1753,392,ls),
(1717,392,o),
(1698,372,o),
(1698,336,cs)
);
}
);
width = 2759;
}
);
unicode = 8470;
},
{
glyphname = blackMediumRightTriangle;
lastChange = "2025-09-20 22:27:51 +0000";
layers = (
{
layerId = m01;
shapes = (
{
closed = 1;
nodes = (
(220,389,ls),
(220,342,o),
(251,324,o),
(292,347,cs),
(851,662,ls),
(892,685,o),
(892,723,o),
(851,746,cs),
(292,1061,ls),
(251,1084,o),
(220,1066,o),
(220,1019,cs)
);
}
);
width = 1102;
},
{
layerId = m002;
shapes = (
{
closed = 1;
nodes = (
(250,231,ls),
(250,168,o),
(291,144,o),
(346,175,cs),
(1185,649,ls),
(1240,680,o),
(1240,728,o),
(1185,759,cs),
(346,1233,ls),
(291,1264,o),
(250,1240,o),
(250,1177,cs)
);
}
);
width = 1476;
}
);
unicode = 9205;
},
{
glyphname = blackRightDoubleTriangle;
lastChange = "2025-09-20 22:29:57 +0000";
layers = (
{
layerId = m01;
shapes = (
{
closed = 1;
nodes = (
(683,395,ls),
(683,348,o),
(717,324,o),
(755,353,cs),
(1150,662,ls),
(1188,691,o),
(1188,717,o),
(1150,746,cs),
(755,1055,ls),
(717,1084,o),
(683,1060,o),
(683,1013,cs)
);
},
{
closed = 1;
nodes = (
(148,395,ls),
(148,348,o),
(182,324,o),
(220,353,cs),
(635,662,ls),
(673,691,o),
(673,717,o),
(635,746,cs),
(220,1055,ls),
(182,1084,o),
(148,1060,o),
(148,1013,cs)
);
}
);
width = 1326;
},
{
layerId = m002;
shapes = (
{
closed = 1;
nodes = (
(738,241,ls),
(738,178,o),
(785,144,o),
(834,185,cs),
(1398,649,ls),
(1447,690,o),
(1447,718,o),
(1398,759,cs),
(834,1223,ls),
(785,1264,o),
(738,1230,o),
(738,1167,cs)
);
},
{
closed = 1;
nodes = (
(29,241,ls),
(29,178,o),
(76,144,o),
(125,185,cs),
(689,649,ls),
(738,690,o),
(738,718,o),
(689,759,cs),
(125,1223,ls),
(76,1264,o),
(29,1230,o),
(29,1167,cs)
);
}
);
width = 1464;
}
);
unicode = 9193;
},
{
glyphname = blackRightDoubleTriangleWithVerticalBar;
lastChange = "2025-09-20 22:42:29 +0000";
layers = (
{
layerId = m01;
shapes = (
{
ref = blackRightDoubleTriangle;
},
{
closed = 1;
nodes = (
(1198,384,ls),
(1198,345,o),
(1219,324,o),
(1258,324,cs),
(1402,324,ls),
(1441,324,o),
(1462,345,o),
(1462,384,cs),
(1462,1024,ls),
(1462,1063,o),
(1441,1084,o),
(1402,1084,cs),
(1258,1084,ls),
(1219,1084,o),
(1198,1063,o),
(1198,1024,cs)
);
}
);
width = 1610;
},
{
layerId = m002;
shapes = (
{
ref = blackRightDoubleTriangle;
},
{
closed = 1;
nodes = (
(1447,262,ls),
(1447,210,o),
(1475,182,o),
(1527,182,cs),
(1763,182,ls),
(1815,182,o),
(1843,210,o),
(1843,262,cs),
(1843,1146,ls),
(1843,1198,o),
(1815,1226,o),
(1763,1226,cs),
(1527,1226,ls),
(1475,1226,o),
(1447,1198,o),
(1447,1146,cs)
);
}
);
width = 1872;
}
);
unicode = 9197;
},
{
glyphname = blackRightTriangleWithDoubleVerticalBar;
lastChange = "2025-09-20 23:04:15 +0000";
layers = (
{
layerId = m01;
shapes = (
{
pos = (510,0);
ref = doubleVerticalBar;
},
{
closed = 1;
nodes = (
(148,395,ls),
(148,348,o),
(182,324,o),
(220,353,cs),
(615,662,ls),
(653,691,o),
(653,717,o),
(615,746,cs),
(220,1055,ls),
(182,1084,o),
(148,1060,o),
(148,1013,cs)
);
},
{
closed = 1;
nodes = (
);
}
);
width = 1610;
},
{
layerId = m002;
shapes = (
{
pos = (565,0);
ref = doubleVerticalBar;
},
{
closed = 1;
nodes = (
(29,241,ls),
(29,178,o),
(76,144,o),
(125,185,cs),
(689,649,ls),
(738,690,o),
(738,718,o),
(689,759,cs),
(125,1223,ls),
(76,1264,o),
(29,1230,o),
(29,1167,cs)
);
},
{
closed = 1;
nodes = (
);
}
);
width = 1872;
}
);
unicode = 9199;
},
{
glyphname = doubleVerticalBar;
lastChange = "2025-09-20 22:35:13 +0000";
layers = (
{
layerId = m01;
shapes = (
{
closed = 1;
nodes = (
(160,384,ls),
(160,345,o),
(181,324,o),
(220,324,cs),
(364,324,ls),
(403,324,o),
(424,345,o),
(424,384,cs),
(424,1024,ls),
(424,1063,o),
(403,1084,o),
(364,1084,cs),
(220,1084,ls),
(181,1084,o),
(160,1063,o),
(160,1024,cs)
);
},
{
closed = 1;
nodes = (
(688,384,ls),
(688,345,o),
(709,324,o),
(748,324,cs),
(892,324,ls),
(931,324,o),
(952,345,o),
(952,384,cs),
(952,1024,ls),
(952,1063,o),
(931,1084,o),
(892,1084,cs),
(748,1084,ls),
(709,1084,o),
(688,1063,o),
(688,1024,cs)
);
}
);
width = 1112;
},
{
layerId = m002;
shapes = (
{
closed = 1;
nodes = (
(198,262,ls),
(198,210,o),
(226,182,o),
(278,182,cs),
(514,182,ls),
(566,182,o),
(594,210,o),
(594,262,cs),
(594,1146,ls),
(594,1198,o),
(566,1226,o),
(514,1226,cs),
(278,1226,ls),
(226,1226,o),
(198,1198,o),
(198,1146,cs)
);
},
{
closed = 1;
nodes = (
(882,262,ls),
(882,210,o),
(910,182,o),
(962,182,cs),
(1198,182,ls),
(1250,182,o),
(1278,210,o),
(1278,262,cs),
(1278,1146,ls),
(1278,1198,o),
(1250,1226,o),
(1198,1226,cs),
(962,1226,ls),
(910,1226,o),
(882,1198,o),
(882,1146,cs)
);
}
);
width = 1476;
}
);
unicode = 9208;
},
{
glyphname = cent;
kernLeft = c;
kernRight = c;
lastChange = "2025-03-15 22:52:49 +0000";
layers = (
{
layerId = m01;
shapes = (
{
ref = c;
},
{
closed = 1;
nodes = (
(649,-104,ls),
(649,-153,o),
(673,-179,o),
(721,-179,cs),
(736,-179,ls),
(785,-179,o),
(809,-153,o),
(809,-104,cs),
(809,1176,ls),
(809,1225,o),
(785,1251,o),
(736,1251,cs),
(721,1251,ls),
(673,1251,o),
(649,1225,o),
(649,1176,cs)
);
}
);
width = 1451;
},
{
layerId = m002;
shapes = (
{
ref = c;
},
{
closed = 1;
nodes = (
(549,-104,ls),
(549,-153,o),
(576,-179,o),
(624,-179,cs),
(835,-179,ls),
(883,-179,o),
(909,-153,o),
(909,-104,cs),
(909,1176,ls),
(909,1225,o),
(883,1251,o),
(835,1251,cs),
(624,1251,ls),
(576,1251,o),
(549,1225,o),
(549,1176,cs)
);
}
);
width = 1449;
}
);
unicode = 162;
},
{
glyphname = currency;
kernLeft = z;
kernRight = z;
lastChange = "2025-03-15 22:53:18 +0000";
layers = (
{
layerId = m01;
shapes = (
{
closed = 1;
nodes = (
(125,70,o),
(160,72,o),
(195,105,cs),
(370,280,l),
(454,243,o),
(536,227,o),
(638,227,cs),
(746,227,ls),
(849,227,o),
(931,243,o),
(1015,280,c),
(1190,105,ls),
(1224,71,o),
(1260,70,o),
(1295,105,cs),
(1303,113,ls),
(1338,148,o),
(1335,186,o),
(1303,218,cs),
(1144,377,l),
(1210,465,o),
(1239,560,o),
(1239,689,cs),
(1239,719,ls),
(1239,848,o),
(1210,943,o),
(1143,1031,c),
(1302,1190,ls),
(1335,1223,o),
(1335,1262,o),
(1302,1295,cs),
(1294,1303,ls),
(1261,1336,o),
(1224,1338,o),
(1189,1303,cs),
(1014,1128,l),
(934,1165,o),
(853,1181,o),
(746,1181,cs),
(638,1181,ls),
(531,1181,o),
(450,1165,o),
(370,1128,c),
(195,1303,ls),
(160,1338,o),
(122,1335,o),
(90,1303,cs),
(82,1295,ls),
(50,1263,o),
(50,1222,o),
(82,1190,cs),
(241,1031,l),
(174,943,o),
(145,848,o),
(145,719,cs),
(145,689,ls),
(145,561,o),
(174,466,o),
(241,377,c),
(82,218,ls),
(49,185,o),
(46,149,o),
(82,113,cs),
(90,105,ls)
);
},
{
closed = 1;
nodes = (
(397,371,o),
(321,451,o),
(321,692,cs),
(321,716,ls),
(321,957,o),
(397,1037,o),
(623,1037,cs),
(761,1037,ls),
(988,1037,o),
(1063,957,o),
(1063,716,cs),
(1063,692,ls),
(1063,451,o),
(988,371,o),
(761,371,cs),
(623,371,ls)
);
}
);
width = 1384;
},
{
layerId = m002;
shapes = (
{
closed = 1;
nodes = (
(247,72,o),
(278,72,o),
(310,104,cs),
(453,247,l),
(483,233,o),
(536,227,o),
(629,227,cs),
(737,227,ls),
(830,227,o),
(883,233,o),
(913,247,c),
(1056,104,ls),
(1088,72,o),
(1119,72,o),
(1151,104,cs),
(1287,240,ls),
(1319,272,o),
(1319,303,o),
(1287,335,cs),
(1177,445,l),
(1213,503,o),
(1229,576,o),
(1229,686,cs),
(1229,716,ls),
(1229,828,o),
(1213,903,o),
(1177,963,c),
(1287,1073,ls),
(1319,1105,o),
(1319,1136,o),
(1287,1168,cs),
(1151,1304,ls),
(1119,1336,o),
(1088,1336,o),
(1056,1304,cs),
(913,1161,l),
(882,1175,o),
(828,1181,o),
(737,1181,cs),
(629,1181,ls),
(538,1181,o),
(484,1175,o),
(453,1161,c),
(310,1304,ls),
(278,1336,o),
(247,1336,o),
(215,1304,cs),
(79,1168,ls),
(47,1136,o),
(47,1105,o),
(79,1073,cs),
(189,963,l),
(153,906,o),
(137,831,o),
(137,716,cs),
(137,686,ls),
(137,573,o),
(153,499,o),
(189,445,c),
(79,335,ls),
(47,303,o),
(47,272,o),
(79,240,cs),
(215,104,ls)
);
},
{
closed = 1;
nodes = (
(535,515,o),
(497,561,o),
(497,698,cs),
(497,712,ls),
(497,848,o),
(535,893,o),
(648,893,cs),
(718,893,ls),
(831,893,o),
(869,848,o),
(869,712,cs),
(869,698,ls),
(869,561,o),
(831,515,o),
(718,515,cs),
(648,515,ls)
);
}
);
width = 1367;
}
);
unicode = 164;
},
{
glyphname = dollar;
kernLeft = O;
kernRight = O;
lastChange = "2025-03-15 22:53:38 +0000";
layers = (
{
layerId = m01;
shapes = (
{
ref = S;
},
{
closed = 1;
nodes = (
(751,-56,ls),
(751,-105,o),
(775,-128,o),
(823,-128,cs),
(839,-128,ls),
(887,-128,o),
(911,-105,o),
(911,-56,cs),
(911,1464,ls),
(911,1513,o),
(887,1536,o),
(839,1536,cs),
(823,1536,ls),
(775,1536,o),
(751,1513,o),
(751,1464,cs)
);
},
{
closed = 1;
nodes = (
(1071,-56,ls),
(1071,-105,o),
(1094,-128,o),
(1143,-128,cs),
(1159,-128,ls),
(1207,-128,o),
(1231,-105,o),
(1231,-56,cs),
(1231,1464,ls),
(1231,1513,o),
(1207,1536,o),
(1159,1536,cs),
(1143,1536,ls),
(1094,1536,o),
(1071,1513,o),
(1071,1464,cs)
);
}
);
width = 1966;
},
{
layerId = m002;
shapes = (
{
ref = S;
},
{
closed = 1;
nodes = (
(573,-53,ls),
(573,-102,o),
(599,-128,o),
(647,-128,cs),
(858,-128,ls),
(906,-128,o),
(933,-102,o),
(933,-53,cs),
(933,1461,ls),
(933,1510,o),
(906,1536,o),
(858,1536,cs),
(647,1536,ls),
(599,1536,o),
(573,1510,o),
(573,1461,cs)
);
},
{
closed = 1;
nodes = (
(1045,-53,ls),
(1045,-102,o),
(1071,-128,o),
(1119,-128,cs),
(1331,-128,ls),
(1379,-128,o),
(1405,-102,o),
(1405,-53,cs),
(1405,1461,ls),
(1405,1510,o),
(1379,1536,o),
(1331,1536,cs),
(1119,1536,ls),
(1071,1536,o),
(1045,1510,o),
(1045,1461,cs)
);
}
);
width = 1962;
}
);
unicode = 36;
},
{
glyphname = euro;
kernLeft = O;
kernRight = O;
lastChange = "2025-03-15 22:53:47 +0000";
layers = (
{
layerId = m01;
shapes = (
{
closed = 1;
nodes = (
(1178,-30,ls),
(1428,-30,o),
(1591,21,o),
(1712,139,cs),
(1746,173,o),
(1749,207,o),
(1709,239,cs),
(1699,247,ls),
(1661,277,o),
(1625,277,o),
(1590,242,cs),
(1490,146,o),
(1382,114,o),
(1159,114,cs),
(893,114,ls),
(533,114,o),
(413,258,o),
(413,689,cs),
(413,712,ls),
(413,1149,o),
(533,1294,o),
(893,1294,cs),
(1159,1294,ls),
(1382,1294,o),
(1490,1262,o),
(1591,1166,cs),
(1626,1131,o),
(1661,1131,o),
(1699,1161,cs),
(1709,1169,ls),
(1749,1201,o),
(1746,1235,o),
(1712,1270,cs),
(1591,1387,o),
(1428,1438,o),
(1178,1438,cs),
(873,1438,ls),
(431,1438,o),
(237,1218,o),
(237,716,cs),
(237,685,ls),
(237,188,o),
(431,-30,o),
(873,-30,cs)
);
},
{
closed = 1;
nodes = (
(1313,488,ls),
(1355,488,o),
(1383,496,o),
(1400,540,c),
(1409,564,ls),
(1426,608,o),
(1404,616,o),
(1348,616,cs),
(157,616,ls),
(115,616,o),
(88,608,o),
(71,564,cs),
(62,540,ls),
(45,496,o),
(66,488,o),
(122,488,cs)
);
},
{
closed = 1;
nodes = (
(1433,792,ls),
(1475,792,o),
(1509,800,o),
(1526,844,cs),
(1535,868,ls),
(1552,912,o),
(1524,920,o),
(1468,920,cs),
(166,920,ls),
(124,920,o),
(103,912,o),
(86,868,cs),
(77,844,ls),
(60,800,o),
(75,792,o),
(131,792,cs)
);
}
);
width = 1850;
},
{
layerId = m002;
shapes = (
{
closed = 1;
nodes = (
(1248,-30,ls),
(1548,-30,o),
(1582,66,o),
(1714,191,cs),
(1749,226,o),
(1745,262,o),
(1707,295,cs),
(1538,436,ls),
(1500,467,o),
(1468,461,o),
(1433,428,cs),
(1338,336,o),
(1279,294,o),
(1102,294,cs),
(990,294,ls),
(810,294,o),
(637,414,o),
(637,681,cs),
(637,727,ls),
(637,995,o),
(810,1114,o),
(990,1114,cs),
(1102,1114,ls),
(1279,1114,o),
(1338,1071,o),
(1434,980,cs),
(1469,946,o),
(1500,940,o),
(1538,971,cs),
(1707,1113,ls),
(1745,1145,o),
(1749,1181,o),
(1714,1216,cs),
(1585,1345,o),
(1455,1438,o),
(1155,1438,cs),
(877,1438,ls),
(557,1438,o),
(241,1238,o),
(241,731,cs),
(241,677,ls),
(241,169,o),
(557,-30,o),
(877,-30,cs)
);
},
{
closed = 1;
nodes = (
(1024,368,ls),
(1066,368,o),
(1094,385,o),
(1111,430,cs),
(1174,594,ls),
(1190,636,o),
(1169,656,o),
(1113,656,cs),
(210,656,ls),
(168,656,o),
(141,639,o),
(124,594,cs),
(61,430,ls),
(45,388,o),
(64,368,o),
(120,368,cs)
);
},
{
closed = 1;
nodes = (
(1115,752,ls),
(1157,752,o),
(1186,769,o),
(1203,814,cs),
(1266,978,ls),
(1283,1021,o),
(1261,1040,o),
(1205,1040,cs),
(244,1040,ls),
(202,1040,o),
(175,1023,o),
(158,978,cs),
(95,814,ls),
(79,772,o),
(98,752,o),
(154,752,cs)
);
}
);
width = 1850;
}
);
unicode = 8364;
},
{
glyphname = sterling;
kernLeft = f;
kernRight = H;
lastChange = "2025-03-15 22:53:56 +0000";
layers = (
{
layerId = m01;
shapes = (
{
closed = 1;
nodes = (
(1646,0,ls),
(1687,0,o),
(1706,23,o),
(1706,64,cs),
(1706,80,ls),
(1706,121,o),
(1687,144,o),
(1646,144,cs),
(465,144,l),
(494,219,o),
(506,346,o),
(506,560,c),
(1129,560,ls),
(1170,560,o),
(1196,584,o),
(1196,624,cs),
(1196,640,ls),
(1196,680,o),
(1170,704,o),
(1129,704,cs),
(506,704,l),
(506,1124,o),
(621,1264,o),
(965,1264,cs),
(981,1264,ls),
(1308,1264,o),
(1423,1179,o),
(1440,925,cs),
(1443,876,o),
(1468,850,o),
(1516,850,cs),
(1543,850,ls),
(1592,850,o),
(1620,877,o),
(1616,926,cs),
(1592,1261,o),
(1405,1408,o),
(1000,1408,cs),
(945,1408,ls),
(514,1408,o),
(326,1194,o),
(326,704,c),
(124,704,ls),
(83,704,o),
(56,680,o),
(56,640,cs),
(56,624,ls),
(56,584,o),
(83,560,o),
(124,560,cs),
(326,560,l),
(326,259,o),
(300,156,o),
(223,145,cs),
(220,145,o),
(217,144,o),
(214,144,c),
(165,144,o),
(146,121,o),
(146,80,cs),
(146,64,ls),
(146,23,o),
(165,0,o),
(214,0,cs)
);
}
);
width = 1818;
},
{
layerId = m002;
shapes = (
{
closed = 1;
nodes = (
(1647,0,ls),
(1687,0,o),
(1706,26,o),
(1706,67,cs),
(1706,257,ls),
(1706,298,o),
(1687,324,o),
(1647,324,cs),
(707,324,l),
(716,385,o),
(720,429,o),
(720,470,c),
(1121,470,ls),
(1162,470,o),
(1188,496,o),
(1188,537,cs),
(1188,727,ls),
(1188,768,o),
(1162,794,o),
(1121,794,cs),
(720,794,l),
(720,1012,o),
(780,1084,o),
(958,1084,cs),
(1030,1084,ls),
(1182,1084,o),
(1240,1048,o),
(1260,939,cs),
(1269,890,o),
(1287,863,o),
(1335,863,cs),
(1588,863,ls),
(1636,863,o),
(1664,890,o),
(1661,941,cs),
(1638,1266,o),
(1452,1408,o),
(1049,1408,cs),
(939,1408,ls),
(511,1408,o),
(324,1221,o),
(324,794,c),
(123,794,ls),
(82,794,o),
(56,768,o),
(56,727,cs),
(56,537,ls),
(56,496,o),
(82,470,o),
(123,470,cs),
(324,470,l),
(319,398,o),
(315,353,o),
(311,323,cs),
(311,323,o),
(213,324,o),
(213,324,c),
(164,324,o),
(146,298,o),
(146,257,cs),
(146,67,ls),
(146,26,o),
(164,0,o),
(213,0,cs)
);
}
);
width = 1818;
}
);
unicode = 163;
},
